<svg width="1920" height="612" viewBox="0 0 1920 612" fill="none" xmlns="http://www.w3.org/2000/svg">
<g opacity="0.3">
<path d="M648.673 611.666C639.202 611.666 629.983 611.167 621.124 610.17C602.543 608.077 585.378 603.782 570.102 597.401C553.684 590.546 539.284 581.204 527.299 569.637C503.212 546.388 491.161 518.545 479.506 491.617C477.216 486.33 474.849 480.863 472.445 475.558C456.045 439.402 435.255 407.732 408.892 378.737C356.303 320.897 282.344 271.535 195.009 235.987C94.0064 194.879 -14.5879 174.401 -110.772 178.327C-167.304 180.636 -241.999 202.591 -275.382 240.086C-295.193 262.338 -296.791 287.033 -279.999 311.496L-280.332 311.6C-289.137 298.77 -292.973 285.908 -291.731 273.371C-290.591 261.871 -285.198 250.629 -275.697 239.958C-260.587 222.985 -235.668 207.942 -203.633 196.454C-174.032 185.84 -141.063 179.314 -110.794 178.079C-60.4578 176.026 -6.92279 180.582 48.3233 191.625C98.4032 201.636 147.82 216.489 195.199 235.773C282.586 271.34 356.589 320.73 409.208 378.604C435.585 407.618 456.386 439.306 472.797 475.482C475.204 480.786 477.571 486.256 479.857 491.544C491.502 518.451 503.545 546.274 527.6 569.49C550.862 591.944 582.351 605.547 621.186 609.919C674.966 615.974 740.274 603.309 795.879 576.037C876.011 536.738 931.624 479.536 985.408 424.219C994.836 414.523 1004.58 404.497 1014.23 394.816C1039.29 369.676 1073.22 337.099 1113.55 308.077C1154.77 278.413 1196.65 256.618 1241.6 241.445C1269.12 232.157 1298.28 225.9 1328.27 222.847C1355.97 220.026 1385.3 219.852 1415.43 222.323C1467.11 226.564 1522.78 238.545 1585.64 258.946C1709.42 299.122 1833.05 347.886 1953.12 403.887C2067.25 457.113 2179.18 517.343 2285.8 582.898L2285.55 583.08C2064.53 447.188 1828.99 338.209 1585.48 259.168C1447.91 214.512 1338.69 208.949 1241.77 241.664C1143.17 274.944 1074.29 335.004 1014.54 394.951C1004.89 404.63 995.143 414.656 985.716 424.352C931.917 479.689 876.286 536.908 796.099 576.234C770.187 588.943 741.036 598.856 711.801 604.899C696.357 608.092 681.005 610.18 666.166 611.105C660.252 611.482 654.415 611.666 648.673 611.666Z" fill="#FFE492"/>
<path d="M657.934 597.879C633.781 597.879 611.408 594.789 591.414 588.692C569.118 581.893 549.878 571.358 534.226 557.381C532.841 556.143 531.466 554.862 530.14 553.573C506.309 530.424 493.723 502.943 481.555 476.365C479.093 470.994 476.55 465.438 473.971 460.047C458.607 427.948 440.108 399.657 417.409 373.562C414.613 370.35 411.719 367.13 408.799 363.994C355.436 306.651 280.877 257.915 193.182 223.051C91.4503 182.644 -17.4517 163.013 -113.464 167.776C-169.586 170.59 -243.936 192.904 -277.462 230.111C-297.537 252.391 -299.809 277.135 -284.039 301.669L-284.376 301.768C-292.642 288.908 -296.038 276.022 -294.466 263.47C-293.023 251.943 -287.41 240.676 -277.777 229.983C-262.513 213.04 -237.667 197.98 -205.933 186.433C-176.602 175.759 -143.776 169.047 -113.497 167.53C-63.2227 165.037 -9.62903 169.157 45.793 179.777C95.9937 189.397 145.645 203.885 193.365 222.84C281.111 257.723 355.711 306.489 409.107 363.864C412.027 367.002 414.925 370.224 417.721 373.439C440.434 399.552 458.945 427.857 474.315 459.973C476.898 465.364 479.441 470.92 481.903 476.294C494.068 502.854 506.643 530.316 530.441 553.432C531.763 554.717 533.137 555.997 534.519 557.233C566.865 586.125 611.309 597.879 658.047 597.879C658.304 597.879 658.557 597.879 658.813 597.879C658.52 597.876 658.227 597.879 657.934 597.879ZM667.904 597.706C711.355 596.207 756.192 584.99 794.657 568.303C877.629 532.159 937.261 476.336 994.932 422.351C997.307 420.125 999.681 417.905 1002.06 415.685C1007.27 410.811 1013.45 405.041 1019.76 399.224C1048.06 373.139 1082.32 342.787 1121.77 315.469C1163.74 286.4 1205.68 264.829 1249.97 249.521C1277.18 240.125 1305.94 233.506 1335.44 229.848C1362.78 226.458 1391.67 225.501 1421.3 227C1472.49 229.592 1527.53 239.418 1589.57 257.043C1650.06 274.2 1699.78 290.351 1746.05 307.87C1811.59 332.712 1874.02 361.336 1926.45 386.057C2048.34 443.698 2167.93 509.148 2281.91 580.593L2281.66 580.773C2167.69 509.338 2048.11 443.892 1926.24 386.259C1873.82 361.54 1811.4 332.921 1745.87 308.087C1699.62 290.572 1649.91 274.427 1589.43 257.275C1454.29 218.879 1346.47 216.484 1250.14 249.742C1150.15 284.298 1078.95 345.096 1020.06 399.372C1013.74 405.189 1007.57 410.956 1002.35 415.832C999.978 418.05 997.604 420.273 995.229 422.498C937.539 476.501 877.885 532.344 794.855 568.514C774.267 577.445 752.359 584.539 729.738 589.598C708.681 594.302 687.924 597.022 667.904 597.706Z" fill="#FFE492"/>
<path d="M668.145 584.407C665.24 584.407 662.352 584.365 659.487 584.279C635.356 583.563 613.024 579.843 593.113 573.219C571.338 565.975 552.472 555.245 537.043 541.324C535.672 540.084 534.306 538.801 532.987 537.511C509.423 514.476 496.314 487.362 483.64 461.143C480.998 455.679 478.265 450.027 475.495 444.542C459.373 412.552 440.386 384.487 417.442 358.744C414.602 355.561 411.664 352.369 408.699 349.257C354.563 292.414 279.403 244.303 191.35 210.124C88.8926 170.418 -20.3173 151.632 -116.161 157.232C-170.124 160.434 -244.259 181.476 -279.507 220.103C-299.871 242.42 -302.835 267.23 -288.08 291.851L-288.421 291.942C-296.152 279.043 -299.102 266.127 -297.196 253.553C-295.445 241.989 -289.597 230.693 -279.818 219.975C-264.392 203.071 -239.627 188.006 -208.197 176.405C-179.142 165.68 -146.466 158.785 -116.194 156.988C-65.9783 154.056 -12.326 157.739 43.2682 167.935C93.5935 177.166 143.476 191.288 191.533 209.912C279.638 244.113 354.838 292.252 409.007 349.127C411.971 352.241 414.914 355.433 417.753 358.621C440.708 384.379 459.706 412.461 475.835 444.469C478.605 449.956 481.339 455.607 483.98 461.072C496.651 487.276 509.75 514.37 533.284 537.379C534.603 538.668 535.962 539.948 537.332 541.184C600.027 597.746 711.135 591.674 793.433 560.567C879.867 527.609 944.101 472.831 1006.22 419.858L1006.86 419.314C1012.87 414.179 1019.1 408.872 1025.29 403.631C1090.63 348.344 1162.45 291.526 1258.33 257.593C1285.25 248.086 1313.62 241.105 1342.63 236.844C1369.61 232.881 1398.07 231.141 1427.19 231.672C1477.97 232.598 1532.37 240.273 1593.51 255.136C1657.76 270.701 1706.12 285.007 1750.29 301.527C1813.23 325.112 1874.19 354.914 1927.98 381.208C2047.74 440.067 2165.51 506.372 2278.03 578.278L2277.77 578.455C2165.27 506.557 2047.51 440.259 1927.76 381.405C1873.98 355.116 1813.03 325.318 1750.11 301.741C1705.95 285.227 1657.62 270.925 1593.39 255.365C1460.86 223.148 1354.45 223.923 1258.5 257.807C1162.68 291.718 1090.89 348.511 1025.57 403.779C1019.38 409.019 1013.16 414.329 1007.14 419.461L1006.51 420.005C975.549 446.403 943.541 473.7 908.974 498.082C870.128 525.482 832.392 545.989 793.609 560.776C753.033 576.111 708.834 584.407 668.145 584.407Z" fill="#FFE492"/>
<path d="M2273.89 576.134C2162.85 503.773 2046.91 436.623 1929.29 376.551C1924.31 374.025 1919.32 371.487 1914.31 368.942C1863.37 343.041 1810.69 316.259 1754.36 295.395C1699.71 275.21 1644.32 262.868 1597.35 253.457C1467.69 227.32 1362.69 231.266 1266.88 265.871C1168.54 301.5 1092.33 360.654 1031.1 408.187C1027.43 411.04 1023.76 413.898 1020.09 416.758C1017.37 418.87 1014.66 420.983 1011.94 423.092C977.081 450.184 945.368 474.406 910.329 496.509C870.3 521.757 831.718 540.249 792.37 553.041C755.495 565.032 716.103 571.375 679.463 571.378C672.787 571.378 666.21 571.168 659.747 570.743C636.151 569.189 614.306 564.825 594.82 557.77C573.558 550.073 555.066 539.138 539.849 525.27C538.49 524.027 537.134 522.742 535.822 521.449C512.537 498.535 498.918 471.802 485.75 445.95C482.914 440.382 479.979 434.622 477.011 429.032C460.12 397.142 440.642 369.302 417.471 343.918C414.587 340.76 411.601 337.596 408.596 334.512C353.684 278.169 277.926 230.683 189.517 197.185C86.3347 158.182 -23.1792 140.244 -118.854 146.674C-184.261 151.156 -251.144 177.215 -281.504 210.04C-302.187 232.403 -305.855 257.292 -292.118 282.016L-292.463 282.103C-299.655 269.157 -302.162 256.202 -299.912 243.596C-297.842 231.99 -291.752 220.657 -281.815 209.909C-266.229 193.055 -241.544 177.99 -210.429 166.347C-181.652 155.577 -149.145 148.503 -118.891 146.43C-68.734 143.058 -15.0268 146.305 40.7396 156.077C91.1859 164.919 141.306 178.677 189.7 196.969C278.165 230.486 353.962 277.999 408.908 334.377C411.916 337.464 414.902 340.629 417.786 343.787C440.972 369.186 460.457 397.041 477.359 428.946C480.327 434.538 483.262 440.296 486.098 445.867C499.259 471.703 512.871 498.419 536.126 521.307C537.438 522.597 538.79 523.879 540.146 525.12C605.596 584.774 716.84 577.322 792.212 552.817C882.138 523.579 950.953 470.108 1011.67 422.93C1014.38 420.818 1017.1 418.706 1019.81 416.596C1023.48 413.736 1027.15 410.878 1030.83 408.025C1065.78 380.893 1100.29 354.527 1138.24 330.231C1181.87 302.29 1223.9 281.167 1266.71 265.654C1293.35 256.032 1321.31 248.689 1349.82 243.832C1376.47 239.291 1404.48 236.77 1433.09 236.337C1483.54 235.574 1537.31 241.098 1597.46 253.221C1644.45 262.636 1699.86 274.984 1754.54 295.181C1810.89 316.053 1863.58 342.842 1914.54 368.748C1919.54 371.293 1924.54 373.831 1929.52 376.356C2047.14 436.434 2163.1 503.591 2274.15 575.959L2273.89 576.134Z" fill="#FFE492"/>
<path d="M2270.01 573.814C2158.33 499.607 2044.22 431.604 1930.82 371.696C1924.04 368.112 1917.1 364.417 1910.38 360.846C1862.31 335.265 1812.6 308.813 1758.61 289.049C1704.69 269.383 1648.84 259.054 1601.31 251.547C1474.81 231.369 1371.2 238.483 1275.26 273.935C1183.75 307.872 1112.05 358.906 1042.72 408.258L1035.1 413.676C1029.09 417.957 1022.87 422.38 1016.74 426.72C947.34 475.789 877.863 521.779 791.132 545.302C770.086 551.01 748.475 554.966 726.894 557.066C703.719 559.318 681.208 559.35 659.982 557.159C636.928 554.779 615.578 549.779 596.525 542.299C575.79 534.158 557.668 523.024 542.667 509.21C541.315 507.96 539.971 506.672 538.67 505.382C515.671 482.603 501.561 456.264 487.916 430.791C484.871 425.108 481.72 419.229 478.54 413.521C460.864 381.73 440.903 354.113 417.512 329.094C414.588 325.968 411.558 322.829 408.505 319.769C352.82 263.926 276.465 217.065 187.693 184.249C83.7814 145.952 -26.0404 128.859 -121.55 136.123C-186.36 141.157 -252.939 167.397 -283.453 199.937C-304.48 222.357 -308.874 247.342 -296.159 272.192L-296.508 272.273C-303.161 259.271 -305.217 246.266 -302.619 233.624C-300.223 221.968 -293.88 210.591 -283.768 199.809C-268.012 183.011 -243.416 167.961 -212.631 156.283C-184.139 145.475 -151.808 138.23 -121.594 135.882C-71.4962 132.071 -17.734 134.88 38.2083 144.229C88.7791 152.682 139.13 166.073 187.865 184.035C276.689 216.868 353.087 263.758 408.806 319.634C411.858 322.696 414.892 325.837 417.816 328.963C441.221 353.995 461.194 381.626 478.877 413.435C482.057 419.143 485.208 425.024 488.253 430.708C501.89 456.165 515.993 482.492 538.967 505.245C540.264 506.529 541.608 507.814 542.957 509.065C606.832 567.889 712.964 566.238 790.989 545.075C877.651 521.572 947.098 475.6 1016.47 426.553C1022.6 422.213 1028.82 417.789 1034.83 413.509L1042.45 408.091C1076.48 383.866 1111.67 358.815 1149.89 335.511C1193.18 309.118 1234.13 288.906 1275.08 273.718C1301.44 263.975 1329.01 256.27 1357 250.82C1383.32 245.695 1410.9 242.392 1438.97 241.001C1489.21 238.512 1542.33 241.885 1601.39 251.305C1648.94 258.818 1704.82 269.149 1758.77 288.832C1812.8 308.604 1862.52 335.063 1910.61 360.651C1917.32 364.223 1924.26 367.915 1931.05 371.502C2044.45 431.414 2158.58 499.423 2270.26 573.637L2270.01 573.814Z" fill="#FFE492"/>
<path d="M2266.12 571.496C2155.41 496.464 2043.11 427.609 1932.35 366.845C1924.03 362.279 1915.49 357.53 1907.24 352.939C1861.76 327.634 1814.73 301.468 1762.85 282.708C1709.19 263.38 1653.08 255.146 1605.27 249.642C1482.28 235.264 1380.07 245.548 1283.63 282.004C1199.47 313.953 1130.37 359.231 1063.54 403.018C1056.51 407.626 1049.24 412.389 1042.15 417.005C1033.83 422.425 1027.47 426.543 1021.54 430.354C989.769 450.75 951.942 474.236 912.246 493.771C870.179 514.471 830.157 528.797 789.89 537.57C768.715 542.183 747.196 545.093 725.927 546.215C703.089 547.422 680.977 546.535 660.209 543.579C637.708 540.377 616.856 534.742 598.225 526.833C578.021 518.257 560.276 506.924 545.481 493.154C544.147 491.906 542.81 490.616 541.513 489.321C518.818 466.694 504.235 440.761 490.129 415.683C486.857 409.866 483.475 403.852 480.063 398.011C461.593 366.308 441.144 338.918 417.544 314.271C414.576 311.171 411.502 308.062 408.406 305.027C351.947 249.684 274.992 203.448 185.861 171.314C81.2272 133.721 -28.9023 117.477 -124.244 125.571C-178.493 130.277 -249.348 151.959 -285.351 189.783C-306.756 212.272 -311.893 237.371 -300.201 262.363L-300.549 262.437C-306.665 249.368 -308.262 236.307 -305.302 223.615C-302.568 211.901 -295.962 200.474 -285.659 189.651C-269.735 172.922 -245.23 157.896 -214.786 146.194C-186.58 135.353 -154.443 127.944 -124.288 125.327C-74.2482 121.078 -20.4274 123.449 35.6834 132.374C86.3752 140.439 136.961 153.465 186.033 171.098C275.215 203.248 352.215 249.511 408.707 304.887C411.803 307.922 414.88 311.036 417.848 314.138C441.459 338.798 461.919 366.202 480.401 397.92C483.815 403.764 487.197 409.777 490.469 415.594C504.565 440.66 519.144 466.578 541.813 489.181C543.11 490.473 544.444 491.76 545.778 493.006C598.917 542.469 690.133 559.04 789.776 537.332C880.014 517.673 953.624 473.614 1021.29 430.172C1027.22 426.361 1033.57 422.243 1041.89 416.822C1048.98 412.207 1056.25 407.444 1063.28 402.836C1096.18 381.28 1130.2 358.99 1166.49 338.118C1207.52 314.514 1245.78 296.087 1283.46 281.785C1309.57 271.914 1336.73 263.848 1364.19 257.812C1390.2 252.093 1417.35 248.01 1444.87 245.669C1494.98 241.41 1547.47 242.629 1605.34 249.393C1653.17 254.902 1709.31 263.139 1763.02 282.484C1814.93 301.256 1861.98 327.43 1907.47 352.743C1915.72 357.333 1924.26 362.082 1932.58 366.648C2043.35 427.42 2155.66 496.28 2266.38 571.316L2266.12 571.496Z" fill="#FFE492"/>
<path d="M2262.24 569.177C2152.48 493.316 2042.01 423.607 1933.87 361.991C1924.67 356.75 1915.23 351.249 1906.09 345.929C1862.56 320.59 1817.56 294.389 1767.09 276.362C1713.39 257.265 1657.16 251.173 1609.23 247.732C1491.81 239.074 1388.04 252.923 1292 290.068C1215.53 319.78 1149.98 359.527 1086.58 397.967C1073.78 405.731 1060.54 413.76 1047.67 421.414C1039.79 426.098 1032.82 430.211 1026.33 433.987C996.173 451.528 956.055 474.02 913.186 492.401C870.112 510.867 829.372 523.114 788.639 529.836C744.213 537.169 699.874 537.224 660.42 529.996C638.484 525.977 618.126 519.709 599.912 511.367C580.248 502.36 562.88 490.83 548.286 477.102C546.964 475.851 545.637 474.559 544.348 473.264C521.975 450.81 506.938 425.303 492.399 400.638C488.882 394.671 485.247 388.502 481.579 382.508C462.299 350.889 441.363 323.721 417.572 299.454C414.561 296.382 411.442 293.301 408.302 290.292C351.07 235.448 273.518 189.835 184.028 158.389C78.6723 121.502 -31.765 106.105 -126.942 115.028C-191.443 121.206 -255.846 147.152 -287.195 179.585C-309.011 202.156 -314.906 227.384 -304.244 252.544L-304.595 252.611C-310.168 239.463 -311.304 226.333 -307.974 213.587C-304.896 201.806 -298.007 190.32 -287.503 179.45C-271.41 162.8 -247.001 147.809 -216.912 136.097C-189.003 125.234 -157.067 117.662 -126.993 114.782C-77.012 110.095 -23.1325 112.03 33.1505 120.53C83.9668 128.205 134.787 140.867 184.196 158.167C273.737 189.634 351.334 235.271 408.603 290.15C411.743 293.158 414.861 296.242 417.876 299.317C441.678 323.598 462.625 350.778 481.916 382.412C485.584 388.406 489.219 394.577 492.736 400.544C507.268 425.197 522.297 450.692 544.648 473.124C545.938 474.419 547.26 475.706 548.583 476.957C600.81 526.1 690.516 545.778 788.551 529.598C877.924 514.845 955.535 474.837 1026.09 433.803C1032.57 430.027 1039.55 425.916 1047.42 421.231C1060.29 413.578 1073.53 405.551 1086.33 397.787C1149.74 359.34 1215.31 319.583 1291.82 289.859C1317.7 279.848 1344.46 271.422 1371.37 264.81C1397.1 258.489 1423.81 253.622 1450.75 250.346C1500.84 244.254 1552.7 243.321 1609.27 247.491C1657.22 250.934 1713.5 257.029 1767.26 276.148C1817.76 294.187 1862.78 320.398 1906.33 345.747C1915.47 351.066 1924.91 356.566 1934.11 361.806C2042.25 423.427 2152.74 493.142 2262.5 569.007L2262.24 569.177Z" fill="#FFE492"/>
<path d="M2258.35 566.858C2149.58 490.16 2040.92 419.602 1935.4 357.139C1925.71 351.399 1915.73 345.321 1906.09 339.443C1864.15 313.889 1820.78 287.464 1771.33 270.019C1717.41 251.084 1661.13 247.163 1613.19 245.824C1500.21 242.437 1397.88 259.547 1300.38 298.135C1231.99 325.326 1171.04 359.738 1112.08 393.017C1091.81 404.46 1072.66 415.269 1053.19 425.822C1045.27 430.117 1038.05 433.977 1031.13 437.618C986.446 461.089 949.271 478.059 914.133 491.022C870.051 507.286 828.596 517.452 787.398 522.099C771.415 523.901 755.491 524.8 739.857 524.8C712.142 524.8 685.325 521.984 660.637 516.406C615.958 506.311 579.105 487.684 551.101 461.042C549.782 459.78 548.467 458.487 547.192 457.197C525.16 434.937 509.701 409.883 494.752 385.652C490.964 379.512 487.05 373.166 483.104 366.995C463 335.45 441.572 308.508 417.61 284.628C414.554 281.583 411.392 278.528 408.208 275.547C350.203 221.203 272.049 176.215 182.2 145.45C76.1227 109.273 -34.6187 94.7197 -129.63 104.473C-194.399 111.259 -256.944 136.712 -288.964 169.318C-311.223 191.982 -317.899 217.361 -308.277 242.712L-308.633 242.774C-313.656 229.536 -314.323 216.327 -310.611 203.514C-307.174 191.654 -299.997 180.105 -289.268 169.183C-273.007 152.623 -248.704 137.682 -218.981 125.969C-191.373 115.089 -159.661 107.37 -129.685 104.229C-79.7631 99.1038 -25.825 100.6 30.6266 108.677C81.5675 115.966 132.618 128.264 182.368 145.229C272.269 176.013 350.466 221.026 408.508 275.402C411.692 278.386 414.854 281.44 417.914 284.488C441.891 308.38 463.329 335.337 483.441 366.894C487.387 373.065 491.304 379.414 495.089 385.553C510.031 409.773 525.482 434.817 547.496 457.057C548.771 458.344 550.082 459.637 551.401 460.897C603.694 510.651 689.689 532.869 787.335 521.853C880.288 511.367 962.619 473.289 1030.9 437.421C1037.82 433.78 1045.04 429.923 1052.96 425.628C1072.43 415.075 1091.58 404.268 1111.85 392.825C1170.81 359.539 1231.78 325.121 1300.19 297.921C1325.88 287.754 1352.24 278.967 1378.56 271.798C1404.05 264.857 1430.32 259.207 1456.64 255.01C1506.84 247.008 1558.06 243.921 1613.21 245.575C1661.19 246.914 1717.51 250.841 1771.5 269.797C1820.99 287.255 1864.37 313.692 1906.33 339.256C1915.98 345.134 1925.95 351.212 1935.64 356.949C2041.16 419.417 2149.83 489.983 2258.61 566.686L2258.35 566.858Z" fill="#FFE492"/>
<path d="M2254.47 564.54C2145.15 485.907 2041.28 416.478 1936.93 352.285C1926.97 346.161 1917.17 339.906 1906.79 333.284C1866.22 307.398 1824.26 280.633 1775.58 263.676C1720.98 244.748 1662.23 243.173 1617.15 243.916C1509.31 245.462 1408.43 265.837 1308.75 306.204C1248.94 330.542 1193.72 359.768 1140.32 388.035C1112.25 402.89 1085.74 416.919 1058.71 430.233C1050.68 434.189 1043.23 437.793 1035.92 441.251C990.63 462.657 952.231 478.032 915.071 489.641C869.967 503.731 827.797 511.818 786.152 514.363C764.754 515.67 743.503 515.424 722.988 513.632C701.268 511.734 680.361 508.093 660.85 502.813C617.603 491.108 581.626 471.655 553.915 444.988C552.607 443.723 551.303 442.428 550.035 441.138C528.373 419.107 512.526 394.531 497.2 370.764C493.111 364.423 488.883 357.865 484.629 351.49C463.681 320.014 441.771 293.296 417.643 269.81C414.539 266.792 411.333 263.764 408.113 260.81C349.335 206.966 270.584 162.603 180.375 132.52C97.1143 104.869 11.2515 90.4418 -67.4847 90.4418C-89.7436 90.4418 -111.416 91.5938 -132.32 93.9249C-196.308 101.201 -258.461 126.745 -290.668 159.002C-313.399 181.771 -320.885 207.323 -312.315 232.891L-312.674 232.945C-317.148 219.603 -317.334 206.303 -313.231 193.417C-309.427 181.471 -301.938 169.845 -290.975 158.864C-274.546 142.408 -250.356 127.528 -221.015 115.828C-193.318 104.783 -162.669 97.125 -132.385 93.6837C-82.5218 88.1205 -28.5251 89.1814 28.0987 96.832C79.1605 103.729 130.449 115.661 180.537 132.296C270.796 162.396 349.595 206.783 408.41 260.66C411.634 263.614 414.844 266.644 417.947 269.665C442.086 293.163 464.008 319.893 484.966 351.384C489.22 357.76 493.452 364.317 497.541 370.661C512.86 394.417 528.699 418.984 550.343 440.998C551.611 442.285 552.915 443.58 554.219 444.843C606.04 494.707 690.561 519.953 786.123 514.114C882.82 508.204 970.302 471.96 1035.72 441.045C1043.02 437.586 1050.47 433.982 1058.5 430.029C1085.53 416.719 1112.03 402.688 1140.1 387.835C1193.51 359.566 1248.73 330.333 1308.56 305.988C1359.89 285.205 1410.25 270.058 1462.53 259.68C1512.96 249.672 1563.54 244.433 1617.15 243.665C1647.74 243.161 1672.7 244.037 1695.69 246.42C1725.38 249.497 1751.57 255.067 1775.75 263.452C1824.48 280.424 1866.46 307.204 1907.05 333.102C1917.43 339.724 1927.23 345.976 1937.18 352.1C2041.54 416.296 2145.42 485.73 2254.74 564.368L2254.47 564.54Z" fill="#FFE492"/>
<path d="M2250.58 562.221C2142.27 482.727 2040.17 412.471 1938.45 347.431C1928.39 340.996 1918.47 334.367 1907.97 327.349C1868.61 301.055 1827.91 273.861 1779.82 257.329C1724.77 238.491 1666.09 239.244 1621.11 242.004C1519.35 248.032 1419.91 271.671 1317.12 314.266C1266.48 335.354 1218.26 359.488 1171.63 382.828C1134.76 401.278 1099.95 418.706 1064.23 434.635C1056.16 438.238 1048.24 441.685 1040.71 444.875C995.335 464.085 954.544 478.271 916.009 488.245C869.868 500.189 826.984 506.2 784.907 506.619C763.498 506.83 742.331 505.531 722.006 502.752C700.7 499.837 680.196 495.281 661.063 489.205C619.3 475.945 584.195 455.664 556.726 428.924C555.436 427.661 554.139 426.364 552.875 425.067C531.62 403.304 515.429 379.247 499.769 355.982C495.339 349.4 490.755 342.591 486.15 335.972C464.345 304.555 441.947 278.063 417.676 254.979C414.529 251.988 411.279 248.987 408.014 246.06C348.463 192.715 269.111 148.978 178.544 119.577C71.0268 84.8194 -40.3338 71.9601 -135.016 83.367C-198.176 91.1087 -259.915 116.719 -292.301 148.609C-315.546 171.499 -323.863 197.242 -316.359 223.059L-316.718 223.106C-320.632 209.649 -320.331 196.245 -315.821 183.27C-311.633 171.226 -303.825 159.516 -292.605 148.468C-276.015 132.131 -251.946 117.325 -223 105.649C-195.622 94.6066 -165.222 86.8182 -135.082 83.1233C-85.2731 77.1245 -31.2214 77.7448 25.571 84.972C76.7574 91.4853 128.277 103.052 178.701 119.353C269.324 148.769 348.719 192.533 408.304 245.91C411.572 248.837 414.826 251.84 417.973 254.833C442.258 277.93 464.664 304.434 486.479 335.864C491.089 342.483 495.669 349.292 500.102 355.876C515.755 379.131 531.939 403.178 553.179 424.926C554.443 426.221 555.74 427.518 557.026 428.779C609.393 479.753 690.32 507.313 784.899 506.368C861.642 505.605 942.866 485.996 1040.52 444.661C1048.04 441.47 1055.95 438.027 1064.02 434.423C1099.73 418.497 1134.55 401.073 1171.4 382.624C1218.04 359.281 1266.27 335.143 1316.93 314.049C1368.75 292.572 1418.3 276.316 1468.42 264.345C1519.18 252.219 1569.12 244.827 1621.08 241.75C1666.1 238.986 1724.85 238.235 1779.99 257.103C1828.13 273.655 1868.85 300.86 1908.23 327.167C1918.73 334.185 1928.65 340.811 1938.71 347.244C2040.43 412.286 2142.53 482.547 2250.85 562.046L2250.58 562.221Z" fill="#FFE492"/>
<path d="M2246.7 559.902C2139.39 479.544 2039.07 408.456 1939.98 342.579C1929.93 335.891 1919.99 328.942 1909.48 321.584C1871.24 294.819 1831.69 267.144 1784.07 250.986C1728.5 232.216 1669.91 235.306 1625.08 240.093C1529.32 250.124 1434.13 276.256 1325.5 322.332C1284.75 339.691 1244.93 358.734 1206.43 377.149C1159.66 399.515 1115.49 420.643 1069.75 439.043C1061.51 442.361 1053.35 445.547 1045.51 448.506C999.317 465.919 957.265 478.463 916.949 486.852C894.368 491.551 872.076 494.956 850.693 496.972C827.884 499.121 805.332 499.763 783.663 498.882C739.698 497.092 698.522 489.259 661.281 475.603C621.061 460.853 586.832 439.747 559.546 412.867C558.263 411.594 556.977 410.294 555.721 409.005C534.92 387.562 518.439 364.076 502.504 341.365C497.679 334.49 492.692 327.381 487.676 320.464C464.992 289.098 442.107 262.831 417.712 240.157C414.52 237.191 411.223 234.218 407.918 231.32C347.593 178.473 267.644 135.36 176.718 106.646C68.4825 72.6 -43.1822 60.5875 -137.707 72.8191C-238.918 86.119 -337.542 143.585 -320.395 213.235L-320.758 213.274C-325.048 195.851 -322.535 178.687 -313.29 162.253C-304.848 147.245 -290.995 133.12 -272.114 120.276C-254.56 108.332 -233.499 98.0208 -209.522 89.6268C-186.717 81.6439 -161.908 75.7459 -137.78 72.5754C-88.0299 66.1384 -33.9196 66.323 23.045 73.1268C74.356 79.2537 126.11 90.4563 176.872 106.425C267.849 135.159 347.846 178.295 408.207 231.173C411.516 234.072 414.813 237.046 418.008 240.015C442.414 262.698 465.311 288.98 488.006 320.358C493.022 327.275 498.009 334.384 502.834 341.262C518.765 363.965 535.239 387.441 556.028 408.872C557.281 410.161 558.564 411.461 559.846 412.731C612.289 464.39 691.784 494.897 783.685 498.638C861.487 501.801 947.071 485.336 1045.33 448.294C1053.17 445.335 1061.32 442.152 1069.56 438.834C1115.29 420.439 1159.46 399.313 1206.22 376.95C1244.73 358.532 1284.55 339.487 1325.3 322.126C1433.98 276.03 1529.21 249.888 1625.02 239.85C1655.14 236.632 1680.08 235.603 1703.52 236.615C1733.47 237.907 1759.87 242.535 1784.23 250.764C1831.9 266.939 1871.47 294.632 1909.74 321.412C1920.25 328.767 1930.18 335.716 1940.24 342.402C2039.33 408.283 2139.66 479.374 2246.96 559.737L2246.7 559.902Z" fill="#FFE492"/>
<path d="M2242.81 557.583C2136.53 476.348 2037.97 404.433 1941.51 337.724C1931.53 330.822 1921.67 323.592 1911.23 315.934C1874.02 288.657 1835.54 260.45 1788.31 244.639C1731.53 225.712 1670.22 231.888 1629.04 238.18C1517.27 255.047 1417.11 294.26 1333.87 330.398C1303.96 343.44 1274.12 357.254 1245.25 370.613C1187.36 397.413 1132.68 422.725 1075.28 443.451C1066.83 446.501 1058.44 449.423 1050.31 452.138C1003.22 467.841 959.904 478.741 917.899 485.456C870.282 493.07 824.705 494.985 782.426 491.145C738.992 487.199 698.307 477.392 661.506 461.995C622.905 445.847 589.552 423.916 562.365 396.812C561.097 395.539 559.818 394.237 558.569 392.942C538.285 371.893 521.599 349.052 505.459 326.962C500.171 319.723 494.701 312.239 489.205 304.956C465.297 273.196 442.591 247.899 417.753 225.336C414.518 222.397 411.18 219.453 407.827 216.58C346.722 164.234 266.172 121.747 174.887 93.7125C65.9335 60.3802 -46.0391 49.212 -140.402 62.2682C-241.976 76.5085 -338.586 133.194 -324.435 203.41L-324.798 203.442C-328.308 186.022 -325.271 168.874 -315.773 152.478C-307.068 137.455 -293.133 123.315 -274.352 110.456C-256.838 98.4633 -235.887 88.0755 -212.078 79.5756C-189.409 71.4819 -164.647 65.4142 -140.476 62.0246C-90.7805 55.1494 -36.6152 54.8983 20.5179 61.2762C71.9535 67.0166 123.942 77.855 175.041 93.4885C266.381 121.538 346.975 164.05 408.109 216.427C411.462 219.302 414.803 222.249 418.042 225.188C442.895 247.761 465.609 273.073 489.527 304.845C495.023 312.129 500.494 319.614 505.781 326.854C521.917 348.937 538.6 371.77 558.869 392.809C560.119 394.104 561.394 395.404 562.661 396.677C615.511 449.364 693.573 482.827 782.47 490.901C862.199 498.143 949.754 485.389 1050.14 451.917C1058.27 449.204 1066.67 446.285 1075.1 443.235C1132.49 422.513 1187.16 397.206 1245.05 370.409C1273.91 357.05 1303.75 343.233 1333.67 330.189C1389.64 305.891 1436.2 287.939 1480.19 273.693C1531.98 256.925 1580.64 245.23 1628.95 237.939C1658.41 233.439 1684.08 231.401 1707.43 231.711C1737.51 232.11 1764.02 236.265 1788.47 244.418C1835.77 260.248 1874.26 288.473 1911.49 315.767C1921.94 323.422 1931.8 330.652 1941.77 337.549C2038.24 404.261 2136.8 476.181 2243.09 557.418L2242.81 557.583Z" fill="#FFE492"/>
<path d="M2238.93 555.262C2133.67 473.148 2036.88 400.404 1943.04 332.868C1933.2 325.786 1923.46 318.305 1913.15 310.383C1876.92 282.558 1839.47 253.784 1792.56 238.294C1735.16 219.411 1674.01 228.093 1633 236.268C1531.74 256.283 1441.41 294.393 1342.25 338.463C1324.36 346.441 1306.27 354.675 1288.78 362.64C1221.49 393.272 1151.92 424.945 1080.8 447.858C1072.16 450.644 1063.51 453.305 1055.1 455.767C1007.69 469.631 961.846 479.147 918.841 484.053C870.124 489.611 823.811 489.392 781.176 483.406C738.351 477.392 698.161 465.608 661.718 448.382C624.84 430.949 592.354 408.197 565.167 380.758C563.911 379.483 562.643 378.178 561.401 376.883C541.729 356.326 524.937 334.229 508.698 312.86C502.846 305.16 496.797 297.199 490.718 289.453C465.876 257.725 442.698 232.644 417.775 210.52C414.503 207.615 411.117 204.696 407.717 201.845C345.85 149.992 264.707 108.13 173.055 80.7795C63.3869 48.1611 -48.8897 37.8397 -143.099 51.7181C-241.449 66.3645 -339.842 121.061 -328.48 193.584L-328.843 193.609C-331.573 176.188 -328.011 159.06 -318.261 142.701C-309.296 127.66 -295.277 113.509 -276.598 100.635C-242.134 76.8853 -193.505 58.9675 -143.18 51.4744C-93.5432 44.1635 -39.3193 43.4743 17.986 49.4264C69.5461 54.7828 121.766 65.2544 173.201 80.5531C264.904 107.918 346.096 149.807 408.003 201.685C411.407 204.538 414.792 207.457 418.068 210.365C443.002 232.502 466.191 257.592 491.041 289.332C497.119 297.081 503.172 305.042 509.024 312.742C525.259 334.106 542.047 356.198 561.709 376.745C562.947 378.04 564.215 379.342 565.472 380.617C619.864 435.515 694.478 470.975 781.246 483.162C861.591 494.446 953.675 485.153 1054.95 455.54C1063.35 453.079 1071.99 450.42 1080.63 447.636C1151.73 424.731 1221.29 393.063 1288.56 362.436C1306.06 354.47 1324.15 346.236 1342.04 338.258C1385.44 318.967 1435.95 296.84 1486.08 278.366C1538.52 259.042 1586.54 245.196 1632.89 236.034C1662.07 230.217 1687.74 227.199 1711.35 226.81C1741.12 226.318 1768.49 230.109 1792.71 238.075C1813.72 245.014 1834.87 255.37 1857.37 269.735C1877.23 282.42 1895.63 296.554 1913.42 310.221C1923.72 318.14 1933.46 325.621 1943.3 332.7C2037.15 400.239 2133.94 472.986 2239.2 555.102L2238.93 555.262Z" fill="#FFE492"/>
<path d="M2235.04 552.943C2130.82 469.943 2035.8 396.369 1944.57 328.016C1934.9 320.779 1925.33 313.071 1915.2 304.914C1879.92 276.51 1843.44 247.138 1796.8 231.952C1753.22 217.806 1700.93 218.593 1636.96 234.36C1547.51 256.28 1467.56 292.945 1382.9 331.767C1372.36 336.602 1361.47 341.599 1350.62 346.534C1346.37 348.471 1342.12 350.414 1337.88 352.353C1257.22 389.201 1173.81 427.303 1086.32 452.269C1077.47 454.794 1068.59 457.195 1059.9 459.4C1011.45 471.691 964.307 479.514 919.797 482.65C869.955 486.16 822.898 483.812 779.941 475.669C737.783 467.676 698.087 453.916 661.956 434.77C626.935 416.212 595.322 392.64 567.992 364.703C566.746 363.426 565.49 362.118 564.255 360.821C545.33 340.909 528.593 319.703 512.401 299.195C505.847 290.89 499.064 282.302 492.253 273.942C466.451 242.237 442.803 217.372 417.822 195.696C414.502 192.816 411.077 189.926 407.632 187.102C344.981 135.751 263.237 94.5125 171.226 67.8462C60.8473 35.9441 -51.7408 26.467 -145.793 41.1676C-242.336 56.3826 -340.59 111.527 -332.519 183.76L-332.885 183.779C-334.831 166.356 -330.749 149.248 -320.746 132.93C-311.516 117.873 -297.417 103.704 -278.837 90.8201C-244.52 67.0216 -196.059 48.8379 -145.877 40.9288C-96.2953 33.1798 -42.0165 32.0524 15.4574 37.5811C67.1421 42.5485 119.6 52.6558 171.373 67.6197C263.435 94.3033 345.23 135.564 407.907 186.942C411.351 189.766 414.785 192.661 418.104 195.541C443.096 217.23 466.759 242.102 492.568 273.819C499.383 282.179 506.162 290.769 512.72 299.075C528.904 319.577 545.642 340.779 564.559 360.683C565.794 361.981 567.047 363.285 568.293 364.563C623.865 421.366 697.083 459.7 780.036 475.425C861.924 490.948 956.038 485.476 1059.77 459.164C1068.45 456.958 1077.33 454.561 1086.17 452.037C1173.64 427.082 1257.03 388.987 1337.67 352.144C1341.92 350.202 1346.16 348.262 1350.41 346.325C1361.26 341.389 1372.15 336.392 1382.69 331.56C1467.37 292.731 1547.35 256.056 1636.83 234.126C1665.73 227.002 1691.39 223.007 1715.27 221.907C1745.16 220.531 1772.64 223.837 1796.96 231.728C1817.85 238.53 1838.73 248.932 1860.81 263.532C1880.28 276.414 1898.18 290.821 1915.48 304.754C1925.62 312.909 1935.18 320.614 1944.84 327.848C2036.08 396.204 2131.1 469.781 2235.32 552.783L2235.04 552.943Z" fill="#FFE492"/>
<path d="M2231.16 550.624C2136.03 473.281 2040.12 396.751 1946.09 323.162C1936.52 315.713 1927.03 307.711 1916.99 299.24C1884.33 271.685 1847.3 240.455 1801.05 225.609C1756.95 211.487 1704.58 213.725 1640.92 232.448C1565.23 254.636 1498.24 287.262 1427.33 321.803C1405.12 332.619 1382.15 343.807 1358.99 354.599C1318.56 373.477 1274.82 393.452 1228.97 411.646C1179.87 431.132 1135.01 445.859 1091.83 456.676C1082.76 458.948 1073.63 461.087 1064.68 463.029C1015.2 473.769 966.785 479.881 920.768 481.195C869.827 482.648 822.026 478.187 778.688 467.928C698.659 448.747 628.713 408.616 570.795 348.647C569.561 347.367 568.315 346.057 567.087 344.76C549.123 325.727 532.678 305.648 516.777 286.228C509.291 277.089 501.553 267.636 493.767 258.437C466.983 226.739 442.859 202.094 417.848 180.878C414.481 178.022 411.011 175.159 407.526 172.365C344.113 121.509 261.768 80.898 169.398 54.9136C58.3047 23.7253 -54.5875 15.0975 -148.485 30.6178C-245.615 46.7633 -341.407 101.177 -336.56 173.936L-336.926 173.946C-338.088 156.518 -333.478 139.43 -323.23 123.154C-313.733 108.076 -299.553 93.8927 -281.079 80.999C-263.675 68.8511 -243.047 58.2293 -219.769 49.4267C-197.169 40.8826 -173.218 34.4726 -148.577 30.3765C-99.0504 22.1918 -44.713 20.6262 12.9295 25.7291C64.7387 30.315 117.427 40.0555 169.537 54.6846C261.962 80.6839 344.355 121.32 407.805 172.201C411.289 174.997 414.766 177.862 418.134 180.718C443.155 201.946 467.29 226.601 494.085 258.309C501.871 267.511 509.61 276.963 517.095 286.105C532.997 305.522 549.438 325.599 567.395 344.624C568.619 345.924 569.868 347.231 571.099 348.511C628.973 408.434 698.857 448.533 778.809 467.694C861.165 487.189 959.98 485.496 1064.57 462.793C1073.51 460.85 1082.64 458.714 1091.7 456.444C1188.25 432.264 1276.58 392.773 1358.78 354.395C1381.94 343.603 1404.9 332.417 1427.11 321.601C1498.04 287.053 1565.04 254.42 1640.77 232.221C1704.52 213.469 1757 211.231 1801.2 225.385C1821.92 232.034 1842.49 242.457 1864.09 257.243C1883.13 270.282 1900.49 284.926 1917.28 299.085C1927.32 307.556 1936.8 315.556 1946.37 322.999C2040.4 396.591 2136.31 473.122 2231.44 550.467L2231.16 550.624Z" fill="#FFE492"/>
<path d="M2227.27 548.305C2133.6 470.534 2039.51 393.152 1947.62 318.308C1938.35 310.778 1929.15 302.635 1919.4 294.014C1887.54 265.817 1851.43 233.856 1805.29 219.261C1760.67 205.163 1708.2 208.851 1644.87 230.53C1578.53 253.211 1517.57 285.236 1458.63 316.21C1429.07 331.74 1398.5 347.8 1367.36 362.66C1318.2 386.139 1276.84 404.049 1237.2 419.028C1188.31 437.497 1142.56 451.253 1097.35 461.079C1088.07 463.098 1078.69 464.974 1069.48 466.655C1021.46 475.411 974.314 479.841 929.209 479.844C926.703 479.844 924.212 479.829 921.72 479.802C869.574 479.231 821.033 472.629 777.446 460.183C756.407 454.143 735.804 446.475 716.213 437.391C697.797 428.855 679.701 418.799 662.425 407.505C631.343 387.188 602.287 362.68 573.605 332.587C572.374 331.292 571.146 329.995 569.926 328.693C553.284 310.938 537.54 292.377 522.316 274.427C513.526 264.067 504.439 253.351 495.287 242.922C467.107 210.788 443.235 187.078 417.877 166.049C414.466 163.221 410.952 160.385 407.423 157.618C343.241 107.266 260.298 67.2805 167.569 41.9779C55.7651 11.506 -57.4349 3.72495 -151.179 20.0649C-246.487 36.7249 -342.155 91.5517 -340.598 164.107L-340.964 164.109C-341.69 130.314 -321.754 98.1783 -283.315 71.1772C-265.94 58.9727 -245.421 48.2746 -222.323 39.3736C-199.848 30.7137 -175.944 24.1364 -151.271 19.8237C-101.803 11.2008 -47.4065 9.1995 10.4045 13.8765C62.3383 18.0784 115.262 27.4546 167.705 41.7465C260.492 67.0663 343.482 107.077 407.705 157.458C411.234 160.227 414.755 163.066 418.166 165.894C443.536 186.935 467.418 210.653 495.605 242.799C504.758 253.231 513.849 263.946 522.635 274.307C537.859 292.254 553.599 310.812 570.238 328.563C571.458 329.865 572.682 331.162 573.913 332.454C634.86 396.401 701.483 438.108 777.589 459.957C882.999 490.057 994.447 480.085 1069.38 466.418C1078.59 464.737 1087.96 462.864 1097.24 460.845C1201.22 438.243 1296.1 396.394 1367.15 362.461C1398.29 347.605 1428.85 331.546 1458.4 316.018C1517.37 285.039 1578.33 253.004 1644.71 230.313C1673.04 220.612 1698.69 214.655 1723.1 212.105C1753.22 208.959 1780.92 211.293 1805.44 219.042C1826.1 225.577 1846.48 236.083 1867.72 251.158C1886.44 264.441 1903.35 279.4 1919.7 293.869C1929.44 302.487 1938.63 310.627 1947.9 318.153C2039.79 392.997 2133.88 470.379 2227.56 548.15L2227.27 548.305Z" fill="#FFE492"/>
<path d="M2223.39 545.987L1949.15 313.456C1940.19 305.862 1931.3 297.598 1921.88 288.852C1890.81 259.988 1855.58 227.273 1809.53 212.92C1765 199.041 1710.94 204.324 1648.83 228.622C1589.13 251.98 1534.68 283.043 1482.02 313.084C1447.7 332.666 1412.2 352.912 1375.74 370.732C1266.13 424.291 1170.33 455.925 1074.28 470.288C1034.43 476.245 995.114 479.243 956.99 479.243C945.434 479.243 933.995 478.968 922.676 478.416C869.299 475.817 820.018 467.078 776.207 452.446C735.602 438.883 698.457 419.737 662.659 393.91C634.072 373.287 606.669 348.701 576.423 316.535C560.458 299.56 545 281.923 530.051 264.867C496.217 226.269 461.233 186.357 417.921 151.23C351.485 97.3535 264.281 55.1029 165.737 29.0446C53.2257 -0.708508 -60.282 -7.64524 -153.872 9.51444C-244.483 26.1276 -342.829 78.515 -344.639 154.282L-345.006 154.278C-344.196 120.411 -323.637 88.2801 -285.553 61.3578C-251.119 37.0152 -204.388 18.5189 -153.967 9.27567C-104.554 0.217048 -50.0997 -2.22238 7.87616 2.02877C59.9346 5.84422 113.092 14.8585 165.872 28.8157C214.633 41.7095 260.943 58.6821 303.519 79.2634C346.45 100.017 385.036 124.175 418.199 151.068C461.53 186.207 496.525 226.129 530.366 264.736C545.315 281.79 560.773 299.425 576.734 316.397C620.863 363.33 683.438 421.179 776.372 452.22C882.951 487.817 997.155 481.56 1074.19 470.042C1170.21 455.688 1265.95 424.067 1375.52 370.527C1411.97 352.715 1447.46 332.469 1481.78 312.892C1534.45 282.846 1588.92 251.776 1648.65 228.406C1710.86 204.066 1765.04 198.778 1809.69 212.693C1830.31 219.121 1850.49 229.718 1871.4 245.095C1889.8 258.631 1906.26 273.92 1922.18 288.705C1931.59 297.451 1940.49 305.709 1949.44 313.301L2223.68 545.831L2223.39 545.987Z" fill="#FFE492"/>
<path d="M2221.18 528.11C2151.35 463.366 2091.43 410.828 2032.62 362.776C2004.08 339.433 1974.92 316.456 1945.97 294.484C1937.21 287.838 1928.54 280.768 1919.35 273.283C1896.27 254.469 1872.4 235.015 1844.93 220.578C1830.18 212.812 1815.98 207.251 1801.52 203.578C1757.14 192.193 1705.07 199.721 1646.75 225.954C1616.57 239.51 1589.09 254.937 1566.19 268.239C1541.95 282.322 1518.03 297.852 1494.9 312.87C1461.66 334.458 1427.28 356.78 1390.33 375.95C1367.84 387.65 1345.05 398.105 1322.58 407.025C1277.62 424.872 1229.36 439.577 1179.15 450.733C1148.13 457.549 1116.95 462.701 1086.5 466.044C1060.26 468.914 1033.96 470.571 1008.35 470.967C970.012 471.563 932.661 469.291 897.333 464.208C859.769 458.802 824.221 450.174 791.677 438.561C762.658 428.205 735.247 415.166 707.881 398.695C656.885 368.029 616.21 332.57 586.473 305.104C571.865 291.548 557.601 277.723 543.806 264.355C504.084 225.853 466.564 189.488 419.614 157.096C381.321 130.851 337.631 108.202 289.746 89.7743C252.948 75.6128 212.926 64.0311 170.794 55.3491C160.758 53.2838 150.531 51.3589 140.408 49.6333C96.8206 42.2165 47.752 37.3869 -5.43134 35.2773C-59.0506 33.1013 -105.441 34.9844 -147.244 41.0399C-170.877 44.4369 -193.773 49.7662 -215.307 56.8777C-291.328 81.9859 -340.143 124.136 -345.889 169.63L-346.347 169.603C-344.815 157.475 -340.319 145.529 -332.988 134.093C-326.022 123.23 -316.456 112.753 -304.555 102.954C-282.069 84.4425 -251.276 68.4127 -215.508 56.5996C-193.942 49.4757 -171.009 44.139 -147.339 40.7371C-105.492 34.6767 -59.0653 32.7911 -5.40204 34.9696C47.8106 37.0792 96.9048 41.9138 140.521 49.3354C150.656 51.0635 160.886 52.9884 170.929 55.0561C213.095 63.7431 253.15 75.3347 289.977 89.5084C337.895 107.948 381.621 130.617 419.932 156.879C466.913 189.291 504.439 225.666 544.176 264.177C557.967 277.546 572.231 291.368 586.836 304.921C616.558 332.375 657.214 367.817 708.181 398.464C735.518 414.917 762.9 427.944 791.886 438.287C855.577 461.015 928.4 471.908 1008.33 470.66C1033.93 470.263 1060.2 468.607 1086.43 465.739C1116.86 462.396 1148.01 457.249 1179 450.438C1229.19 439.289 1277.41 424.594 1322.34 406.757C1344.8 397.844 1367.58 387.394 1390.04 375.704C1426.98 356.543 1461.35 334.227 1494.58 312.646C1517.71 297.625 1541.63 282.09 1565.89 268.003C1588.8 254.693 1616.29 239.261 1646.5 225.695C1672.46 214.015 1697.6 205.946 1721.22 201.71C1750.24 196.506 1777.31 197.038 1801.68 203.29C1816.19 206.975 1830.42 212.551 1845.21 220.334C1872.72 234.793 1896.6 254.26 1919.7 273.086C1928.89 280.569 1937.56 287.639 1946.31 294.28C1975.27 316.254 2004.43 339.233 2032.98 362.581C2091.79 410.639 2151.71 463.181 2221.55 527.931L2221.18 528.11Z" fill="#FFE492"/>
<path d="M2218.97 510.23C2154.22 444.39 2093.46 389.294 2033.19 341.798C2003.81 318.598 1973.39 296.296 1942.79 275.513C1934.67 269.999 1926.66 264.268 1918.17 258.203C1892.76 240.039 1866.48 221.257 1837.05 208.262C1822.19 201.673 1807.95 197.084 1793.51 194.234C1738.22 183.314 1682.06 204.001 1644.67 223.278C1618.19 236.896 1594 252.293 1569.49 268.187C1548.05 282.1 1527.87 297.066 1506.51 312.909C1474.8 336.427 1442.02 360.745 1404.92 381.164C1382.9 393.346 1359.92 403.879 1336.62 412.47C1293.22 428.475 1245.7 440.904 1191.33 450.47C1160.9 455.821 1129.75 459.634 1098.72 461.798C1072.54 463.602 1046.41 464.247 1021.04 463.708C983.313 462.915 946.431 459.351 911.417 453.116C874.645 446.566 839.559 436.995 807.136 424.67C778.728 413.873 751.3 400.477 723.281 383.719C672.395 353.326 628.804 319.632 596.517 293.672C584.565 284.062 572.803 274.393 561.426 265.039C516.121 227.79 473.328 192.604 421.307 162.962C382.428 140.808 338.778 122.075 291.578 107.286C255.865 96.0956 218.012 87.7114 175.861 81.6535C166.133 80.2578 156.237 78.9999 146.45 77.9143C103.464 73.1709 57.5864 71.3764 2.08014 69.5204C-37.931 68.1148 -90.3082 67.1892 -140.626 72.5604C-164.457 75.0564 -187.493 79.3913 -209.1 85.4394C-285.172 106.739 -336.776 143.949 -347.145 184.978L-347.688 184.917C-344.939 174.037 -339.37 163.366 -331.144 153.197C-323.303 143.508 -313 134.218 -300.524 125.578C-276.814 109.164 -245.274 95.1651 -209.312 85.0972C-187.665 79.0368 -164.585 74.6946 -140.714 72.1936C-90.3485 66.8151 -37.931 67.7431 2.10574 69.1486C57.6303 71.0047 103.522 72.7992 146.538 77.5451C156.332 78.6331 166.236 79.891 175.975 81.2867C218.166 87.352 256.056 95.7436 291.809 106.946C339.057 121.75 382.743 140.498 421.662 162.674C473.721 192.338 516.531 227.534 561.851 264.798C573.224 274.149 584.986 283.818 596.938 293.426C629.218 319.376 672.791 353.058 723.647 383.436C751.633 400.177 779.032 413.558 807.407 424.342C871.161 448.577 943.049 461.695 1021.06 463.334C1046.4 463.871 1072.51 463.228 1098.66 461.424C1129.66 459.263 1160.79 455.454 1191.19 450.105C1245.51 440.55 1293 428.131 1336.36 412.14C1359.63 403.559 1382.58 393.041 1404.57 380.871C1441.64 360.469 1474.41 336.161 1506.11 312.656C1527.48 296.806 1547.66 281.837 1569.12 267.916C1593.63 252.012 1617.83 236.61 1644.34 222.978C1668.58 210.48 1692.48 201.491 1715.39 196.252C1743.17 189.901 1769.51 189.102 1793.67 193.872C1808.16 196.735 1822.45 201.338 1837.36 207.947C1866.84 220.967 1893.14 239.766 1918.58 257.945C1927.06 264.007 1935.08 269.736 1943.19 275.247C1973.8 296.038 2004.22 318.347 2033.62 341.555C2093.89 389.063 2154.68 444.168 2219.43 510.023L2218.97 510.23Z" fill="#FFE492"/>
<path d="M2216.76 492.349C2156.16 424.52 2096.31 368.414 2033.77 320.824C2003.53 297.766 1971.85 276.141 1939.62 256.545C1932.73 252.355 1925.63 247.909 1918.77 243.611C1890.45 225.854 1861.16 207.493 1829.18 195.95C1814.17 190.495 1799.88 186.877 1785.51 184.89C1730.33 177.262 1677.34 200.101 1642.59 220.601C1619.05 234.44 1597.52 250.125 1576.7 265.295L1572.8 268.136C1553.9 281.899 1536.17 296.993 1517.4 312.976C1487.5 338.427 1456.59 364.741 1419.51 386.378C1397.93 399.06 1374.77 409.672 1350.67 417.918C1308.65 432.297 1261.88 442.556 1203.5 450.207C1173.31 454.163 1142.17 456.634 1110.93 457.55C1084.81 458.286 1058.84 457.917 1033.73 456.447C957.701 452.019 886.663 436.654 822.587 410.78C794.887 399.594 767.44 385.846 738.681 368.743C690.011 339.862 646.725 310.175 606.563 282.243C601.177 278.499 595.85 274.78 590.563 271.09C535.709 232.815 483.899 196.662 423.011 168.836C383.26 150.669 339.654 135.856 293.41 124.803C259.46 116.69 222.665 111.181 180.932 107.961C171.527 107.24 161.96 106.647 152.496 106.199C128.687 105.091 103.434 104.911 76.6981 104.722C55.2233 104.569 33.0193 104.411 9.58786 103.769C-35.6665 102.422 -86.9554 100.899 -134.016 104.089C-158.298 105.736 -181.473 109.074 -202.9 114.012C-278.943 131.538 -333.339 163.812 -348.409 200.344L-349.028 200.229C-345.057 190.596 -338.417 181.2 -329.298 172.302C-320.577 163.792 -309.541 155.684 -296.497 148.203C-271.549 133.896 -239.254 121.933 -203.112 113.603C-181.637 108.653 -158.415 105.307 -134.086 103.658C-86.9774 100.466 -35.6628 101.992 9.60986 103.338C33.0266 103.978 55.2306 104.138 76.6981 104.291C103.445 104.48 128.705 104.66 152.536 105.77C162.008 106.221 171.585 106.814 180.998 107.535C222.783 110.757 259.621 116.274 293.619 124.399C339.918 135.464 383.571 150.295 423.366 168.481C484.31 196.332 536.145 232.502 591.021 270.795C596.308 274.485 601.639 278.202 607.021 281.948C647.175 309.875 690.448 339.554 739.102 368.426C767.832 385.509 795.25 399.245 822.917 410.416C886.909 436.257 957.855 451.6 1033.78 456.024C1058.87 457.491 1084.81 457.86 1110.9 457.124C1142.1 456.208 1173.22 453.739 1203.37 449.789C1261.69 442.145 1308.41 431.898 1350.37 417.539C1374.43 409.31 1397.54 398.718 1419.08 386.058C1456.12 364.448 1487.01 338.148 1516.89 312.713C1535.67 296.722 1553.41 281.621 1572.33 267.848L1576.22 265.007C1597.05 249.829 1618.59 234.134 1642.17 220.281C1677.02 199.714 1730.2 176.809 1785.63 184.472C1800.07 186.468 1814.41 190.099 1829.48 195.576C1861.53 207.143 1890.85 225.524 1919.21 243.301C1926.06 247.599 1933.16 252.045 1940.04 256.232C1972.29 275.838 2003.98 297.476 2034.24 320.546C2096.81 368.155 2156.68 424.282 2217.3 492.133L2216.76 492.349Z" fill="#FFE492"/>
<path d="M2214.55 474.466C2158.91 405.613 2098.28 346.862 2034.34 299.851C2003.26 276.938 1970.32 255.988 1936.45 237.58C1931.56 234.922 1926.55 232.162 1921.7 229.494C1889.69 211.866 1856.59 193.636 1821.33 183.642C1806.19 179.307 1791.86 176.661 1777.52 175.548C1722.5 171.285 1672.65 196.238 1640.53 217.922C1620.57 231.318 1602.57 246.215 1585.15 260.623C1582.14 263.117 1579.13 265.605 1576.11 268.084C1559.55 281.702 1544.06 296.914 1527.66 313.018C1499.79 340.395 1470.96 368.704 1434.1 391.596C1412.45 405.039 1389.76 415.432 1364.71 423.373C1312.32 439.981 1259.97 446.128 1215.67 449.953C1185.7 452.538 1154.57 453.67 1123.14 453.311C1097.1 452.978 1071.29 451.592 1046.42 449.195C972.673 442.103 902.565 424.508 838.045 396.896C811.199 385.41 783.737 371.306 754.084 353.777C724.131 336.112 696.219 319.115 669.222 302.677C650.876 291.504 633.545 280.951 616.621 270.826C552.647 232.554 494.049 198.904 424.729 174.716C384.124 160.55 340.563 149.65 295.253 142.322C262.779 137.069 228.066 134.511 186.014 134.268C176.942 134.223 167.701 134.295 158.552 134.482C144.655 134.785 130.277 135.417 115.06 136.089C85.8582 137.377 52.7538 138.836 17.0955 138.019C3.5166 137.706 -10.3371 137.266 -23.7364 136.837C-58.2002 135.737 -93.8365 134.6 -127.41 135.617C-152.065 136.365 -175.383 138.708 -196.708 142.583C-272.622 156.38 -329.807 183.721 -349.681 215.719L-350.358 215.529C-345.155 207.15 -337.446 199.032 -327.447 191.398C-317.844 184.068 -306.075 177.143 -292.474 170.82C-266.265 158.635 -233.22 148.707 -196.905 142.108C-175.53 138.223 -152.16 135.873 -127.45 135.124C-93.8401 134.105 -58.1892 135.245 -23.7071 136.345C-10.3114 136.773 3.54224 137.214 17.1175 137.527C52.7428 138.344 85.8215 136.887 115.009 135.599C130.233 134.927 144.614 134.295 158.527 133.992C167.687 133.805 176.935 133.733 186.018 133.778C228.129 134.019 262.893 136.584 295.422 141.844C340.786 149.182 384.406 160.095 425.062 174.281C456.375 185.205 488.106 199.047 522.068 216.593C552.472 232.3 582.047 249.487 617.105 270.46C634.029 280.586 651.36 291.139 669.709 302.312C696.702 318.748 724.615 335.746 754.561 353.407C784.184 370.919 811.617 385.009 838.43 396.483C902.862 424.057 972.87 441.628 1046.51 448.71C1071.36 451.105 1097.14 452.488 1123.14 452.821C1154.54 453.18 1185.64 452.05 1215.56 449.466C1259.81 445.648 1312.1 439.509 1364.39 422.93C1389.37 415.011 1412.01 404.645 1433.6 391.237C1470.39 368.384 1499.2 340.098 1527.05 312.742C1543.46 296.629 1558.95 281.409 1575.54 267.776C1578.55 265.298 1581.56 262.809 1584.57 260.318C1602 245.9 1620.02 230.993 1639.99 217.58C1660.9 203.472 1682.34 192.619 1703.73 185.323C1729.07 176.681 1753.92 173.23 1777.59 175.066C1792 176.183 1806.4 178.842 1821.6 183.194C1856.95 193.215 1890.1 211.468 1922.15 229.117C1927 231.786 1932.01 234.545 1936.89 237.201C1970.79 255.624 2003.75 276.594 2034.86 299.523C2068.81 324.486 2102.06 352.927 2133.68 384.057C2161.63 411.57 2189.05 441.911 2215.17 474.234L2214.55 474.466Z" fill="#FFE492"/>
<path d="M2212.33 456.577C2160.84 385.749 2101.15 325.963 2034.92 278.875C2002.98 256.108 1968.79 235.834 1933.29 218.613C1931.6 217.793 1929.91 216.974 1928.22 216.151C1891.3 198.221 1853.13 179.681 1813.49 171.334C1798.13 168.099 1783.75 166.423 1769.55 166.206C1714.75 165.374 1668.02 192.412 1638.47 215.238C1621.08 228.592 1605.64 243.229 1590.71 257.383C1587.02 260.883 1583.2 264.502 1579.44 268.027C1565.09 281.452 1551.75 296.717 1537.62 312.879C1511.94 342.278 1485.38 372.676 1448.71 396.809C1427.49 410.771 1404.61 421.243 1378.76 428.825C1327.84 443.759 1276.13 447.68 1227.84 449.694C1198.06 450.935 1166.94 450.723 1135.34 449.066C1109.4 447.663 1083.75 445.263 1059.11 441.935C987.871 432.335 918.694 412.509 853.507 383.007C827.401 371.194 800.705 357.148 769.499 338.805C710.189 304.037 666.148 279.55 626.701 259.406C548.243 219.344 488.362 195.775 426.48 180.596C385.051 170.435 341.534 163.452 297.129 159.838C266.322 157.332 233.628 157.556 191.125 160.571C182.416 161.197 173.505 161.933 164.638 162.762C156.262 163.557 147.754 164.468 138.745 165.431C105.479 168.988 67.7725 173.02 24.6176 172.266C1.8714 171.87 -21.3622 170.785 -43.83 169.736C-69.3645 168.545 -95.7675 167.311 -120.8 167.144C-145.899 166.977 -169.359 168.325 -190.512 171.156C-266.174 181.276 -326.154 203.689 -350.956 231.108L-351.659 230.82C-345.218 223.696 -336.439 216.856 -325.568 210.487C-315.074 204.338 -302.58 198.6 -288.429 193.429C-260.942 183.38 -227.137 175.489 -190.673 170.612C-169.462 167.777 -145.95 166.423 -120.793 166.59C-95.7382 166.757 -69.3206 167.991 -43.775 169.185C-21.3145 170.233 1.90802 171.319 24.636 171.715C67.7139 172.466 105.38 168.439 138.609 164.887C147.623 163.922 156.138 163.013 164.517 162.216C173.395 161.386 182.313 160.65 191.03 160.023C233.599 157.005 266.348 156.778 297.221 159.291C341.688 162.91 385.267 169.903 426.755 180.08C488.721 195.277 548.664 218.872 627.192 258.968C666.653 279.119 710.71 303.614 770.034 338.391C801.218 356.72 827.885 370.751 853.962 382.552C919.061 412.012 988.135 431.811 1059.26 441.396C1083.87 444.719 1109.49 447.114 1135.4 448.517C1166.96 450.172 1198.04 450.383 1227.78 449.145C1276 447.134 1327.62 443.223 1378.43 428.323C1404.18 420.77 1426.98 410.333 1448.12 396.42C1484.71 372.339 1511.25 341.973 1536.91 312.606C1551.04 296.434 1564.39 281.157 1578.76 267.712C1582.53 264.189 1586.35 260.571 1590.03 257.07C1604.97 242.904 1620.42 228.258 1637.84 214.881C1657.12 199.984 1677.34 188.2 1697.93 179.855C1722.05 170.081 1746.15 165.308 1769.56 165.66C1783.85 165.876 1798.29 167.562 1813.73 170.812C1853.5 179.188 1891.73 197.754 1928.7 215.711C1930.39 216.533 1932.08 217.355 1933.77 218.172C1969.31 235.413 2003.54 255.712 2035.51 278.503C2101.8 325.633 2161.54 385.466 2213.07 456.343L2212.33 456.577Z" fill="#FFE492"/>
<path d="M1246.07 449.439C1244.01 449.439 1241.99 449.436 1239.99 449.429C1210.37 449.345 1179.26 447.795 1147.54 444.816C1121.69 442.342 1096.2 438.928 1071.79 434.672C1036.91 428.602 1001.9 419.878 967.733 408.744C934.739 397.992 901.51 384.66 868.966 369.115C837.078 353.885 807.293 336.915 784.906 323.832C732.525 293.303 682.687 267.786 636.777 247.988C562.419 215.923 496.155 196.376 428.235 186.473C387.261 180.499 343.3 177.348 300.973 177.348C300.317 177.348 299.665 177.348 299.009 177.35C262.647 177.434 228.125 181.973 196.24 186.867C187.941 188.149 179.357 189.55 170.724 191.034C165.994 191.857 161.256 192.703 156.244 193.599C120.89 199.928 80.8164 207.099 32.1325 206.51C2.48325 206.151 -27.7999 204.088 -57.0865 202.092C-75.9965 200.802 -95.5477 199.47 -114.198 198.665C-139.835 197.56 -163.427 197.914 -184.327 199.724C-259.586 206.232 -322.362 223.719 -352.256 246.504L-352.945 246.097C-337.611 234.412 -314.546 224.295 -284.391 216.024C-255.592 208.128 -221.029 202.279 -184.444 199.116C-163.49 197.304 -139.835 196.945 -114.139 198.055C-95.4707 198.86 -75.9085 200.194 -56.9912 201.484C-27.723 203.48 2.54184 205.543 32.1508 205.9C80.7101 206.488 120.714 199.327 156.009 193.011C161.026 192.113 165.763 191.266 170.497 190.444C179.137 188.959 187.729 187.556 196.035 186.274C227.974 181.373 262.556 176.826 299.005 176.74C342.006 176.639 386.755 179.8 428.43 185.877C463.483 190.99 497.467 198.515 532.316 208.883C565.878 218.87 600.21 231.493 637.268 247.476C683.215 267.289 733.089 292.826 785.503 323.374C807.872 336.45 837.635 353.408 869.49 368.62C935.527 400.163 1003.67 422.187 1072.02 434.083C1096.4 438.335 1121.85 441.744 1147.67 444.215C1179.35 447.189 1210.41 448.74 1239.99 448.821C1286.28 448.949 1340.03 447.9 1392.46 433.709C1418.99 426.526 1441.95 416.023 1462.64 401.6C1498.98 376.271 1523.06 343.761 1546.36 312.319C1558.35 296.146 1569.67 280.87 1581.97 267.646C1585.92 263.41 1589.9 259.045 1593.74 254.824C1606.74 240.561 1620.18 225.816 1635.67 212.187C1653.36 196.506 1672.35 183.787 1692.11 174.384C1715.01 163.482 1738.36 157.382 1761.5 156.255C1775.79 155.558 1790.29 156.269 1805.83 158.431C1847.38 164.206 1888.57 180.984 1930.62 199.143C1967.28 214.976 2003.77 235.148 2036.14 257.482C2072.1 282.219 2105.89 311.238 2136.56 343.734C2163.88 372.684 2188.91 404.552 2210.95 438.453L2210.11 438.699C2162.78 365.895 2104.03 305.07 2035.49 257.913C2003.16 235.611 1966.73 215.468 1930.13 199.662C1888.15 181.535 1847.04 164.789 1805.64 159.034C1790.19 156.885 1775.77 156.178 1761.57 156.87C1719.04 158.945 1674.59 178.722 1636.4 212.561C1620.94 226.166 1607.51 240.899 1594.52 255.146C1590.68 259.37 1586.69 263.737 1582.75 267.974C1570.47 281.173 1559.15 296.437 1547.18 312.595C1535.75 328.021 1523.93 343.975 1510.37 359.311C1494.99 376.697 1479.6 390.669 1463.3 402.029C1442.52 416.515 1419.46 427.066 1392.8 434.283C1369.29 440.649 1344.02 444.855 1315.55 447.15C1291.43 449.082 1267.22 449.439 1246.07 449.439Z" fill="#FFE492"/>
<path d="M1304.82 450.672C1286.14 450.672 1268.19 449.923 1252.14 449.165C1222.62 447.772 1191.52 444.88 1159.73 440.567C1133.98 437.025 1108.66 432.599 1084.45 427.407C1018.18 413.221 952.74 389.607 884.41 355.222C854.61 340.228 826.518 324.095 800.306 308.858C748.555 278.863 696.929 254.543 646.853 236.568C573.206 210.133 504.301 196.08 430.002 192.344C387.667 190.214 343.025 191.083 300.896 194.854C265.633 198.01 232.39 205.626 201.356 213.154C193.591 215.047 185.333 217.114 176.814 219.298C174.685 219.847 172.538 220.406 170.362 220.969C134.619 230.254 94.1755 240.76 42.271 240.76C41.3953 240.76 40.5233 240.758 39.6403 240.751C4.52426 240.512 -31.3282 237.144 -66.0045 233.885C-79.7519 232.593 -93.9683 231.259 -107.609 230.178C-134.254 228.071 -157.33 227.448 -178.16 228.28C-253.921 231.308 -317.869 243.557 -353.601 261.893L-354.213 261.354C-336.549 252.29 -311.007 244.421 -280.357 238.597C-250.21 232.869 -214.892 229.068 -178.223 227.603C-157.334 226.769 -134.199 227.392 -107.496 229.504C-93.8401 230.584 -79.62 231.921 -65.869 233.211C-31.2256 236.465 4.59387 239.83 39.6439 240.069C92.6294 240.433 133.732 229.752 169.992 220.332C172.164 219.768 174.315 219.209 176.444 218.658C184.97 216.472 193.232 214.404 201.004 212.511C232.089 204.969 265.395 197.343 300.753 194.177C342.948 190.401 387.664 189.53 430.068 191.662C466.887 193.513 501.992 197.885 537.387 205.023C573.84 212.376 609.799 222.496 647.318 235.965C697.457 253.964 749.149 278.314 800.954 308.338C827.156 323.57 855.23 339.694 885.004 354.673C953.242 389.012 1018.58 412.591 1084.75 426.755C1108.92 431.937 1134.21 436.358 1159.92 439.895C1191.67 444.203 1222.72 447.093 1252.2 448.481C1301.8 450.819 1354.57 452.021 1406.48 439.08C1433.8 432.269 1456.91 421.699 1477.15 406.765C1513.19 380.162 1535.63 343.876 1555.42 311.861C1565.38 295.752 1574.79 280.537 1585.17 267.567C1588.92 262.888 1592.69 258.051 1596.33 253.374C1607.74 238.739 1619.53 223.608 1633.48 209.476C1649.63 193.013 1667.39 179.359 1686.28 168.892C1707.97 156.872 1730.56 149.448 1753.43 146.831C1767.73 145.194 1782.28 144.934 1797.92 146.026C1841.61 149.086 1886 164.205 1927.46 180.09C1965.75 194.756 2003.54 214.242 2036.77 236.44C2073.73 261.061 2107.78 290.371 2137.98 323.551C2164.98 353.223 2188.82 385.853 2208.83 420.542L2207.89 420.786C2165.36 347.052 2105.94 283.471 2036.06 236.918C2002.9 214.761 1965.18 195.312 1926.97 180.676C1885.6 164.828 1841.33 149.746 1797.82 146.698C1782.27 145.61 1767.81 145.871 1753.61 147.496C1711.38 152.328 1669.02 174.47 1634.33 209.845C1620.4 223.948 1608.62 239.064 1597.23 253.684C1593.59 258.363 1589.82 263.2 1586.07 267.885C1575.71 280.825 1566.31 296.025 1556.36 312.117C1536.53 344.181 1514.06 380.527 1477.89 407.217C1457.55 422.233 1434.3 432.862 1406.83 439.713C1383 445.655 1357.28 449.096 1328.21 450.226C1320.36 450.546 1312.53 450.672 1304.82 450.672Z" fill="#FFE492"/>
<path d="M1341.7 453.338C1341.43 453.338 1341.17 453.338 1340.9 453.338C1314.5 453.293 1288.58 451.122 1264.28 448.902C1234.81 446.209 1203.73 441.973 1171.92 436.316C1146.29 431.71 1121.13 426.268 1097.13 420.143C1033.5 403.929 970.818 378.887 899.865 341.331C874.312 327.809 849.166 313.249 824.844 299.171C821.803 297.409 818.758 295.649 815.713 293.889C763.695 263.902 710.277 240.775 656.947 225.154C583.92 203.765 510.269 194.953 431.786 198.214C388.752 200.004 344.15 204.895 302.801 212.359C270.177 218.249 241.106 227.699 206.489 239.441C199.472 241.831 191.979 244.411 182.914 247.562L182.409 247.739C164.92 253.858 145.098 260.793 122.865 266.065C97.33 272.121 72.5575 275.035 47.1548 275.001C7.54312 274.935 -32.8821 269.982 -71.9735 265.189C-81.5513 264.015 -91.4588 262.801 -101.022 261.703C-128.447 258.56 -151.662 256.972 -171.994 256.852C-246.857 256.409 -313.55 263.862 -354.968 277.298L-355.444 276.633C-335.157 270.051 -307.79 264.709 -276.305 261.184C-244.762 257.652 -208.686 255.899 -171.983 256.116C-151.593 256.236 -128.319 257.827 -100.835 260.977C-91.2646 262.075 -81.3571 263.289 -71.7757 264.463C-32.7318 269.248 7.64203 274.196 47.1585 274.262C47.3344 274.262 47.5139 274.262 47.6898 274.262C104.215 274.262 147.278 259.198 181.903 247.084L182.412 246.907C191.481 243.754 198.974 241.174 205.994 238.784C240.67 227.022 269.792 217.555 302.519 211.647C343.937 204.169 388.612 199.27 431.72 197.478C470.126 195.883 506.352 197.099 542.476 201.2C581.402 205.619 618.992 213.233 657.387 224.479C710.819 240.13 764.329 263.294 816.431 293.33C819.476 295.09 822.521 296.852 825.562 298.615C849.873 312.688 875.012 327.243 900.542 340.755C971.405 378.264 1033.99 403.272 1097.52 419.459C1121.48 425.576 1146.61 431.009 1172.2 435.609C1203.97 441.259 1235 445.488 1264.43 448.176C1317.15 452.995 1368.75 456.338 1420.53 444.483C1448.62 438.049 1471.9 427.412 1491.67 411.963C1527.39 384.056 1546.91 345.387 1564.13 311.267C1572.19 295.294 1579.8 280.205 1588.39 267.525C1591.7 262.646 1595.01 257.6 1598.22 252.719C1608.24 237.457 1618.61 221.678 1631.32 206.8C1645.95 189.547 1662.49 174.955 1680.46 163.43C1700.96 150.295 1722.79 141.551 1745.37 137.445C1759.37 134.9 1773.66 133.659 1789.01 133.659C1789.34 133.659 1789.68 133.659 1790.01 133.662C1837.74 133.829 1886.86 148.397 1924.32 161.069C1964.22 174.571 2003.33 193.368 2037.41 215.428C2075.37 239.936 2109.7 269.534 2139.42 303.403C2166.09 333.796 2188.74 367.192 2206.72 402.668L2205.68 402.907C2178.92 350.121 2127.86 274.841 2036.65 215.962C2002.65 193.951 1963.63 175.199 1923.82 161.729C1886.47 149.091 1837.51 134.565 1790.01 134.4C1774.37 134.339 1759.87 135.575 1745.66 138.159C1703.83 145.768 1663.56 170.275 1632.27 207.167C1619.59 222.01 1609.24 237.772 1599.22 253.017C1596.02 257.9 1592.7 262.949 1589.39 267.83C1580.83 280.478 1573.22 295.548 1565.17 311.504C1547.92 345.685 1528.37 384.428 1492.51 412.443C1472.6 427.996 1449.17 438.704 1420.88 445.18C1396.91 450.667 1371 453.338 1341.7 453.338Z" fill="#FFE492"/>
<path d="M1371.03 456.803C1365.34 456.803 1359.53 456.68 1353.58 456.434C1327.53 455.358 1302.22 452.131 1276.43 448.635C1246.53 444.584 1216.33 439.163 1184.11 432.064C1158.61 426.397 1133.61 419.943 1109.8 412.876C1049.39 394.975 989.41 368.624 915.32 327.437C896.919 317.209 878.526 306.482 860.737 296.106C851.053 290.459 841.043 284.618 831.124 278.914C778.487 248.725 723.285 226.798 667.049 213.737C592.746 196.478 516.381 193.318 433.581 204.075C389.837 209.759 345.275 218.672 304.718 229.85C272.137 238.83 243.756 251.441 213.707 264.792L211.63 265.715C206.936 267.808 202.191 269.93 197.388 272.076C194.621 273.314 191.836 274.56 189.026 275.815C171.505 283.685 152.58 291.894 130.878 298.213C105.681 305.549 80.7579 309.157 54.6774 309.246C11.2588 309.389 -33.0283 302.609 -75.8534 296.047C-81.9649 295.109 -88.2891 294.142 -94.4263 293.223C-123.2 288.916 -145.884 286.437 -165.823 285.418C-239.404 281.659 -308.845 284.308 -356.345 292.687L-356.649 291.914C-309.024 283.513 -239.441 280.854 -165.732 284.62C-145.737 285.642 -122.995 288.128 -94.1662 292.443C-88.0252 293.364 -81.7011 294.331 -75.5859 295.269C-33.2848 301.75 10.4417 308.448 53.2851 308.448C53.7468 308.448 54.2085 308.448 54.6738 308.446C110.089 308.259 149.535 292.588 188.37 275.151C191.181 273.895 193.965 272.65 196.732 271.411C201.535 269.262 206.276 267.143 210.974 265.048L213.051 264.125C243.151 250.751 271.58 238.119 304.267 229.109C344.897 217.909 389.536 208.981 433.358 203.287C516.366 192.503 592.937 195.674 667.441 212.978C723.816 226.074 779.146 248.051 831.901 278.306C841.819 284.012 851.833 289.851 861.517 295.5C879.299 305.874 897.688 316.599 916.078 326.819C990.08 367.96 1049.98 394.274 1110.28 412.145C1134.06 419.2 1159.02 425.647 1184.48 431.303C1216.65 438.393 1246.81 443.806 1276.67 447.85C1321.99 453.992 1378.4 461.637 1434.57 449.861C1463.45 443.808 1486.88 433.105 1506.19 417.139C1541.57 387.896 1557.97 346.765 1572.45 310.479C1578.74 294.715 1584.68 279.825 1591.61 267.468C1594.31 262.653 1597.02 257.673 1599.63 252.856C1608.41 236.701 1617.49 219.996 1629.15 204.109C1642.3 186.054 1657.61 170.524 1674.64 157.95C1693.94 143.702 1715.03 133.642 1737.3 128.046C1751.6 124.455 1766.25 122.242 1782.1 121.28C1803.32 119.99 1825.91 121.368 1851.16 125.484C1872.52 128.97 1895.42 134.38 1921.17 142.028C1962.7 154.363 2003.11 172.473 2038.04 194.398C2077.02 218.79 2111.61 248.681 2140.85 283.237C2167.18 314.354 2188.64 348.516 2204.61 384.777L2203.47 385.004C2169.74 308.448 2110.7 240.964 2037.23 194.984C2002.39 173.118 1962.09 155.06 1920.68 142.762C1865.2 126.284 1821.21 119.709 1782.21 122.077C1766.46 123.032 1751.92 125.23 1737.72 128.795C1684.72 142.105 1650 177.29 1630.22 204.461C1618.59 220.309 1609.52 236.994 1600.75 253.129C1598.13 257.949 1595.42 262.931 1592.72 267.749C1585.81 280.069 1579.88 294.942 1573.6 310.686C1559.1 347.051 1542.66 388.268 1507.11 417.644C1487.65 433.735 1464.03 444.525 1434.92 450.627C1415.19 454.762 1394.15 456.803 1371.03 456.803Z" fill="#FFE492"/>
<path d="M1396.43 460.776C1357.68 460.776 1320.43 454.088 1288.56 448.368C1258.58 442.987 1228.4 436.262 1196.28 427.811C1170.93 421.091 1146.09 413.622 1122.46 405.61C1051.62 381.619 988.461 347.184 930.767 313.544C918.987 306.677 907.086 299.597 895.581 292.751C879.606 283.245 863.085 273.416 846.531 263.943C793.106 233.457 736.119 212.723 677.158 202.318C600.884 188.86 521.796 191.349 435.376 209.929C390.88 219.495 346.363 232.43 306.634 247.338C275.991 258.833 250.065 273.347 222.618 288.712C220.672 289.8 218.723 290.893 216.762 291.986L215.7 292.582C209.028 296.321 202.128 300.185 195.134 304.065C178.375 313.402 159.919 323.058 138.572 330.436C113.792 339 88.8111 343.27 62.192 343.492C15.4684 343.883 -32.153 335.059 -78.2024 326.524C-81.4304 325.926 -84.6437 325.33 -87.8424 324.742C-118.21 319.144 -140.363 315.826 -159.665 313.98C-231.399 307.122 -303.595 304.966 -357.742 308.065L-357.852 307.206C-303.617 304.099 -231.315 306.258 -159.485 313.126C-140.128 314.977 -117.928 318.303 -87.5053 323.91C-84.3066 324.498 -81.0933 325.094 -77.8616 325.695C-31.9001 334.212 15.6296 343.014 62.1737 342.63C119.981 342.148 160.692 322.128 194.313 303.4C201.308 299.521 208.207 295.656 214.879 291.919L215.942 291.324C217.902 290.228 219.851 289.138 221.797 288.05C249.292 272.657 275.262 258.119 306.007 246.584C345.809 231.65 390.411 218.692 434.984 209.109C475.955 200.302 514.439 195.216 552.629 193.562C595.23 191.718 637.235 194.384 677.48 201.486C736.629 211.923 793.784 232.716 847.359 263.286C863.924 272.763 880.449 282.595 896.428 292.104C907.933 298.95 919.826 306.027 931.602 312.892C989.237 346.495 1052.32 380.893 1123.03 404.839C1146.63 412.84 1171.43 420.298 1196.75 427.008C1228.81 435.447 1258.95 442.162 1288.89 447.536C1334.86 455.787 1392.07 466.056 1448.6 455.25C1478.26 449.579 1501.84 438.809 1520.69 422.326C1555.71 391.707 1568.81 348.046 1580.37 309.522C1585.01 294.044 1589.4 279.424 1594.81 267.419C1596.81 262.979 1598.82 258.39 1600.76 253.952C1608.36 236.593 1616.22 218.641 1626.96 201.427C1638.66 182.554 1652.73 166.081 1668.79 152.471C1686.91 137.113 1707.24 125.736 1729.21 118.654C1743.48 114.055 1758.18 110.868 1774.16 108.906C1795.69 106.264 1819.58 106.353 1845.17 109.169C1867.57 111.636 1892.07 116.286 1917.99 122.993C1961.14 134.162 2002.86 151.582 2038.66 173.372C2078.65 197.651 2113.51 227.83 2142.27 263.075C2168.25 294.915 2188.52 329.845 2202.49 366.892L2201.24 367.103C2171.64 288.604 2113.6 220.029 2037.8 174.012C2002.12 152.294 1960.53 134.93 1917.53 123.798C1861.79 109.371 1814.97 104.775 1774.39 109.755C1758.53 111.702 1743.93 114.868 1729.77 119.431C1677.49 136.281 1645.65 173.5 1628.15 201.759C1617.43 218.929 1609.58 236.856 1601.99 254.193C1600.05 258.631 1598.04 263.222 1596.04 267.668C1590.65 279.634 1586.26 294.233 1581.63 309.692C1576.06 328.225 1569.76 349.23 1560.61 368.923C1550.13 391.485 1537.4 409.125 1521.71 422.851C1512.64 430.787 1502.21 437.542 1490.71 442.927C1478.35 448.72 1464.3 453.145 1448.95 456.08C1431.38 459.44 1413.75 460.776 1396.43 460.776Z" fill="#FFE492"/>
<path d="M1419.33 465.135C1406.52 465.135 1393.1 464.298 1378.92 462.627C1351 459.336 1324.28 453.364 1300.7 448.099C1270.98 441.46 1239.94 433.201 1208.46 423.554C1183.27 415.79 1158.6 407.308 1135.12 398.338C1067.75 372.622 1009.71 338.428 946.214 299.648C940.572 296.202 934.841 292.687 929.301 289.285C907.482 275.896 884.923 262.052 861.938 248.972C807.626 218.128 748.859 198.59 687.267 190.9C609.575 181.199 525.427 189.569 437.172 215.78C391.884 229.23 347.407 246.185 308.55 264.817C279.293 278.845 255.209 295.385 229.711 312.896C227.121 314.676 224.519 316.461 221.903 318.253C215.392 322.718 208.379 327.511 201.245 332.308C186.285 342.403 168.053 353.906 146.27 362.652C121.886 372.444 96.8427 377.38 69.7142 377.737C20.052 378.394 -30.5005 367.346 -79.3895 356.663L-81.2509 356.257C-105.188 351.029 -130.51 345.746 -153.498 342.539C-223.569 332.764 -296.596 325.977 -359.123 323.429L-359.039 322.509C-296.446 325.059 -223.353 331.85 -153.22 341.635C-130.166 344.853 -104.8 350.142 -80.8258 355.378L-78.9645 355.784C-30.1817 366.443 20.2682 377.464 69.6886 376.811C126.763 376.058 166.181 354.662 200.274 331.651C207.408 326.856 214.414 322.063 220.925 317.6C223.541 315.811 226.142 314.024 228.733 312.246C254.275 294.705 278.402 278.136 307.755 264.061C346.685 245.392 391.247 228.405 436.618 214.93C478.026 202.635 518.773 194.162 557.722 189.751C602.225 184.712 645.896 184.791 687.523 189.987C749.35 197.707 808.334 217.313 862.829 248.263C885.831 261.356 908.402 275.205 930.232 288.6C935.772 292 941.503 295.515 947.145 298.961C1010.58 337.704 1068.56 371.861 1135.81 397.533C1159.25 406.488 1183.89 414.958 1209.04 422.712C1240.48 432.344 1271.46 440.591 1301.14 447.22C1347.66 457.613 1405.56 470.543 1462.65 460.635C1493.1 455.35 1516.84 444.517 1535.22 427.512C1569.85 395.475 1579.87 347.186 1587.92 308.384C1591.06 293.27 1594.02 278.995 1598.03 267.377C1599.3 263.714 1600.58 259.94 1601.81 256.29C1608.22 237.326 1614.86 217.714 1624.81 198.75C1640.17 169.238 1669.35 129.76 1721.14 109.272C1735.45 103.615 1750.2 99.4502 1766.25 96.5406C1808.24 88.8186 1858.23 91.3171 1914.84 103.962C1959.61 113.964 2002.64 130.695 2039.3 152.35C2080.3 176.512 2115.43 206.982 2143.71 242.918C2156.69 259.401 2168.15 277.006 2177.8 295.244C2187.01 312.665 2194.61 330.755 2200.38 349.013L2199.04 349.205C2173.59 268.755 2116.53 199.09 2038.39 153.041C2001.87 131.468 1959 114.801 1914.4 104.836C1858.06 92.2476 1808.33 89.7565 1766.61 97.4292C1750.68 100.317 1736.03 104.45 1721.84 110.064C1670.41 130.409 1641.39 169.686 1626.1 199.053C1616.18 217.968 1609.56 237.552 1603.15 256.492C1601.91 260.142 1600.64 263.918 1599.37 267.584C1595.37 279.163 1592.41 293.418 1589.28 308.51C1585.23 328.035 1580.64 350.165 1572.79 371.051C1563.77 395.052 1551.84 413.698 1536.33 428.054C1527.48 436.244 1517.12 443.151 1505.56 448.581C1493.1 454.432 1478.78 458.789 1462.99 461.527C1449.14 463.934 1434.67 465.135 1419.33 465.135Z" fill="#FFE492"/>
<path d="M1440.44 469.739C1425.08 469.739 1408.89 468.402 1391.6 465.722C1363.58 461.382 1336.62 454.179 1312.83 447.824C1282.88 439.823 1251.87 430.226 1220.64 419.294C1195.62 410.494 1171.1 400.997 1147.79 391.064C1083.62 363.753 1028.59 328.553 970.323 291.289C967.44 289.445 964.556 287.599 961.665 285.753C934.57 268.443 906.555 250.543 877.349 234.001C822.092 202.766 761.544 184.422 697.387 179.479C616.8 173.269 529.857 187.45 438.967 221.624C393.504 238.717 347.868 260.263 310.466 282.292C282.224 298.925 259.573 317.64 235.592 337.456C232.752 339.802 229.905 342.155 227.036 344.513C221.305 349.232 214.487 354.828 207.349 360.551C194.129 371.177 176.117 384.682 153.964 394.841C129.969 405.846 104.87 411.456 77.2325 411.985C54.5155 412.367 29.4463 410.011 0.58844 404.78C-24.1877 400.29 -48.1541 394.422 -74.6743 387.776C-98.8824 381.634 -124.432 375.291 -147.354 371.101C-215.252 358.69 -286.971 347.822 -360.516 338.793L-360.252 337.825C-286.664 346.857 -214.904 357.735 -146.969 370.151C-123.985 374.353 -98.3988 380.706 -74.1613 386.853C-29.7094 397.996 25.6137 411.87 77.1922 411.001C136.161 409.868 174.058 385.779 206.224 359.916C213.358 354.197 220.173 348.605 225.9 343.888C228.769 341.53 231.616 339.177 234.452 336.833C258.473 316.986 281.165 298.238 309.499 281.551C346.978 259.478 392.701 237.89 438.252 220.765C529.417 186.487 616.661 172.269 697.555 178.502C728.571 180.892 759.037 186.443 788.101 195C819.285 204.179 849.63 217.05 878.294 233.25C907.533 249.809 935.567 267.72 962.677 285.042C965.568 286.89 968.455 288.734 971.338 290.578C1029.55 327.809 1084.53 362.975 1148.57 390.235C1171.86 400.153 1196.33 409.637 1221.32 418.422C1252.5 429.337 1283.47 438.922 1313.37 446.91C1360.37 459.464 1418.86 475.088 1476.69 466.027C1508.02 461.119 1531.91 450.219 1549.73 432.707C1584.05 399.259 1590.16 348.164 1595.07 307.11C1596.83 292.426 1598.49 278.558 1601.24 267.343C1601.81 265.029 1602.38 262.703 1602.95 260.364C1608.08 239.242 1613.4 217.397 1622.63 196.08C1635.82 165.419 1662.2 123.843 1713.06 99.8963C1727.25 93.2156 1742.05 88.0758 1758.32 84.1816C1780.93 78.7194 1806.13 76.1519 1833.21 76.5458C1857.93 76.9052 1884.33 79.7286 1911.67 84.9348C1958.05 93.7645 2002.4 109.807 2039.92 131.326C2081.93 155.371 2117.33 186.135 2145.14 222.761C2157.9 239.566 2168.94 257.534 2177.97 276.163C2186.62 294.004 2193.45 312.501 2198.26 331.137L2196.82 331.305C2175.84 250.095 2118.3 177.478 2038.97 132.074C2001.61 110.649 1957.45 94.6729 1911.27 85.8776C1854.32 75.0319 1801.61 74.7661 1758.81 85.1047C1742.66 88.9694 1727.97 94.0698 1713.9 100.699C1663.39 124.48 1637.15 165.842 1624.04 196.351C1614.83 217.612 1609.52 239.424 1604.39 260.519C1603.82 262.858 1603.25 265.187 1602.69 267.5C1599.94 278.674 1598.29 292.525 1596.53 307.186C1591.6 348.358 1585.47 399.601 1550.93 433.263C1542.34 441.704 1532.07 448.769 1520.41 454.256C1507.86 460.159 1493.26 464.442 1477.02 466.987C1465.3 468.818 1453.16 469.739 1440.44 469.739Z" fill="#FFE492"/>
<path d="M1460.27 474.532C1442.77 474.532 1424.24 472.632 1404.27 468.817C1376.01 463.418 1348.88 454.987 1324.95 447.551C1294.71 438.153 1263.71 427.211 1232.81 415.036C1207.97 405.214 1183.62 394.701 1160.44 383.793C1103.36 356.943 1054.59 324.048 1002.94 289.222C994.499 283.528 985.768 277.643 977.106 271.856C946.658 251.523 920.658 234.757 892.749 219.03C836.507 187.382 774.182 170.232 707.5 168.056C623.711 165.321 533.961 185.309 440.748 227.463C394.442 248.407 348.847 274.081 312.365 299.76C284.881 319.106 263.395 340.164 240.649 362.459C237.831 365.221 235.002 367.993 232.155 370.767C227.084 375.717 220.372 382.24 213.443 388.781C184.285 416.37 146.19 444.774 84.7408 446.227C82.8245 446.268 80.9009 446.288 78.981 446.288C30.9969 446.288 -17.9911 433.53 -68.1075 419.285L-71.2366 418.389C-96.0604 411.27 -119.51 404.547 -141.216 399.653C-223.015 381.211 -302.125 365.644 -361.907 354.144L-361.479 353.137C-301.682 364.642 -222.55 380.212 -140.721 398.661C-118.957 403.567 -95.4815 410.3 -70.6248 417.426L-67.4993 418.322C-15.5471 433.089 35.1886 446.261 84.6859 445.183C145.454 443.745 183.23 415.56 212.172 388.178C219.097 381.642 225.802 375.124 230.873 370.176C233.72 367.399 236.545 364.63 239.363 361.868C262.145 339.539 283.664 318.446 311.236 299.039C347.792 273.305 393.479 247.579 439.876 226.594C482.939 207.118 526.017 192.164 567.912 182.143C615.98 170.645 662.971 165.555 707.573 167.009C774.599 169.195 837.24 186.429 893.746 218.225C921.695 233.977 947.721 250.76 978.198 271.11C986.864 276.897 995.595 282.785 1004.04 288.479C1055.63 323.271 1104.37 356.133 1161.33 382.929C1184.48 393.824 1208.79 404.321 1233.59 414.128C1264.45 426.288 1295.4 437.212 1325.6 446.596C1373.01 461.328 1432.01 479.662 1490.73 471.409C1522.82 466.896 1546.87 455.933 1564.23 437.892C1598.11 402.92 1600.15 348.95 1601.79 305.584C1602.32 291.435 1602.83 278.069 1604.45 267.299L1604.48 267.053C1608.11 242.937 1611.85 218.001 1620.45 193.398C1627.89 171.938 1638.25 152.644 1651.25 136.048C1665.91 117.337 1683.98 102.016 1704.96 90.5085C1719 82.8086 1733.86 76.6916 1750.37 71.8103C1794.99 58.5448 1849.66 56.4968 1908.49 65.8926C1932.16 69.6736 1955.51 75.4017 1977.9 82.9145C2000.41 90.4715 2021.49 99.6852 2040.54 110.295C2083.57 134.224 2119.24 165.279 2146.56 202.599C2171.12 236.143 2188.26 274.408 2196.14 313.254L2194.6 313.395C2177.74 230.252 2121.23 156.518 2039.54 111.1C2001.35 89.8266 1955.9 74.5451 1908.13 66.9167C1849.64 57.575 1795.31 59.6008 1751.01 72.7752C1734.62 77.6196 1719.89 83.6874 1705.95 91.3257C1666.77 112.813 1637.73 148.193 1621.97 193.641C1613.4 218.181 1609.66 243.082 1606.04 267.164L1606 267.41C1604.39 278.14 1603.88 291.487 1603.35 305.616C1601.7 349.115 1599.66 403.247 1565.53 438.465C1557.16 447.164 1546.96 454.382 1535.23 459.915C1522.58 465.882 1507.72 470.094 1491.04 472.44C1481.11 473.833 1470.88 474.532 1460.27 474.532Z" fill="#FFE492"/>
<path d="M85.8798 480.56C64.4233 480.56 41.0578 477.751 14.6879 472.016C-11.5135 466.317 -37.4256 458.45 -61.5275 450.799C-65.8914 449.406 -70.2222 448.015 -74.5238 446.634C-95.9363 439.759 -116.162 433.266 -135.064 428.207C-210.437 408.044 -282.281 389.922 -351.762 372.4L-363.274 369.496L-362.696 368.46L-351.183 371.364C-281.699 388.891 -209.843 407.013 -134.456 427.181C-115.502 432.251 -95.2512 438.752 -73.813 445.637C-69.515 447.018 -65.1842 448.409 -60.824 449.8C-11.3487 465.505 41.2154 480.725 92.1966 479.369C154.866 477.616 192.422 444.818 218.136 416.443C224.724 409.186 231.07 401.954 235.863 396.465C238.508 393.44 241.135 390.417 243.755 387.401C265.483 362.404 286.005 338.793 312.994 316.53C348.62 287.149 394.262 257.28 441.521 232.43C485.365 209.375 529.608 191.159 573.026 178.29C622.828 163.528 671.471 155.867 717.605 155.52C787.024 154.826 851.499 170.871 909.215 203.204C941.209 221.149 969.895 240.561 993.74 257.184C1006.71 266.23 1019.69 275.503 1032.24 284.47C1076.66 316.217 1122.59 349.043 1174.1 375.63C1197.11 387.51 1221.27 399.02 1245.88 409.839C1276.35 423.198 1307.29 435.461 1337.85 446.287C1385.61 463.208 1445.05 484.267 1504.77 476.794C1537.64 472.68 1561.84 461.653 1578.74 443.08C1612.18 406.523 1609.92 349.596 1608.1 303.855C1607.57 290.329 1607.06 277.551 1607.67 267.264C1609.04 244.073 1611.11 217.121 1618.28 190.723C1624.33 168.355 1633.45 148.118 1645.4 130.577C1658.92 110.734 1676.25 94.099 1696.89 81.1314C1710.57 72.538 1725.9 65.2443 1742.45 59.4498C1766.06 51.1542 1792.57 45.9381 1821.22 43.9492C1848.06 42.0858 1876.35 43.0655 1905.32 46.8588C1929.74 50.0588 1953.82 55.3217 1976.88 62.5046C2000.08 69.7318 2021.71 78.7363 2041.17 89.2669C2063.6 101.393 2084.22 115.712 2102.47 131.828C2119.75 147.097 2135.07 164.126 2148 182.44C2172.19 216.703 2188.11 255.758 2194.03 295.378L2192.39 295.488C2179.67 210.409 2124.18 135.559 2040.13 90.1309C2001.64 69.301 1953.66 54.3198 1905 47.9468C1844.84 40.0673 1788.9 44.3849 1743.21 60.4319C1726.79 66.1797 1711.58 73.4168 1698.01 81.9412C1659.12 106.375 1632.83 143.04 1619.9 190.923C1612.75 217.249 1610.68 244.155 1609.31 267.308C1608.71 277.558 1609.21 290.317 1609.75 303.826C1610.64 326.391 1611.66 351.969 1608.26 376.696C1604.31 405.388 1595.12 427.291 1580.15 443.658C1572 452.614 1561.88 459.986 1550.07 465.569C1537.32 471.6 1522.18 475.743 1505.08 477.882C1496.45 478.962 1487.83 479.452 1479.26 479.452C1427.93 479.452 1378.2 461.832 1337.08 447.265C1306.48 436.421 1275.49 424.14 1244.99 410.762C1220.33 399.928 1196.14 388.401 1173.1 376.504C1121.48 349.862 1075.5 317.003 1031.04 285.226C1018.49 276.261 1005.52 266.991 992.557 257.949C968.744 241.346 940.099 221.961 908.163 204.05C850.759 171.89 786.661 155.939 717.631 156.623C609.223 157.44 508.199 198.768 442.539 233.297C395.376 258.097 349.825 287.902 314.277 317.224C287.368 339.42 266.875 362.995 245.181 387.953C242.561 390.968 239.93 393.991 237.285 397.019C232.488 402.511 226.139 409.748 219.547 417.012C208.753 428.923 191.807 446.263 169.361 459.26C158.46 465.571 146.86 470.531 134.882 474.005C121.527 477.877 107.186 480.053 92.2662 480.469C90.1521 480.53 88.0233 480.56 85.8798 480.56Z" fill="#FFE492"/>
<path d="M92.7689 514.831C71.2867 514.831 47.9689 511.805 21.7381 505.632C-5.41959 499.241 -32.2696 490.257 -54.9499 482.308C-61.9189 479.861 -68.8731 477.38 -75.6003 474.98C-94.4041 468.272 -112.167 461.934 -128.915 456.759C-189.06 438.175 -248.813 420.03 -306.602 402.482C-325.717 396.677 -345.481 390.676 -364.637 384.847L-363.919 383.781C-344.763 389.61 -324.999 395.611 -305.884 401.416C-248.095 418.964 -188.335 437.111 -128.186 455.699C-111.394 460.888 -93.609 467.231 -74.7832 473.949C-68.0598 476.349 -61.1054 478.828 -54.1438 481.274C-7.10507 497.752 47.4559 515.195 99.7012 513.553C163.847 511.49 199.876 475.677 224.102 444.708C230.313 436.774 236.318 428.808 240.854 422.755C243.184 419.649 245.5 416.545 247.812 413.448C268.594 385.595 288.222 359.288 314.757 334.025C349.269 301.168 394.875 267.161 443.167 238.27C510.42 198.207 614.364 149.34 727.634 144.04C799.669 140.579 865.969 155.432 924.685 188.191C951.066 202.916 977.154 219.901 1009.28 243.269C1025.52 255.077 1041.63 267.316 1057.21 279.149C1097.74 309.936 1139.65 341.772 1186.88 368.344C1209.75 381.221 1233.74 393.743 1258.17 405.564C1287.76 419.863 1318.68 433.466 1350.09 445.995C1398.34 465.124 1458.38 488.935 1518.82 482.195C1551.95 478.577 1576.99 467.167 1593.25 448.287C1626.22 410.076 1619.15 347.561 1613.98 301.916C1612.53 289.106 1611.16 277.007 1610.89 267.247C1610.29 245.556 1610.34 216.955 1616.12 188.068C1626.09 138.012 1650.55 98.8826 1688.81 71.7732C1702.22 62.2222 1717.61 53.9242 1734.52 47.1081C1758.59 37.3997 1785.74 30.8691 1815.23 27.701C1843.02 24.7176 1872.26 24.7644 1902.14 27.8413C1927.36 30.4949 1952.16 35.3049 1975.85 42.1333C1999.78 49.0306 2021.96 57.8185 2041.8 68.2531C2064.73 80.3099 2085.68 94.6782 2104.06 110.962C2121.49 126.393 2136.75 143.664 2149.44 162.298C2173.26 197.282 2187.95 237.125 2191.92 277.519L2190.18 277.596C2181.62 190.574 2127.15 114.607 2040.73 69.1762C2001.55 48.5654 1952.23 34.2956 1901.88 28.9983C1839.81 22.6105 1782.25 29.2198 1735.42 48.1125C1718.64 54.872 1703.39 63.1035 1690.08 72.5781C1652.07 99.5078 1627.77 138.416 1617.85 188.226C1612.09 217.034 1612.04 245.578 1612.63 267.228C1612.91 276.953 1614.27 289.037 1615.72 301.83C1618.39 325.424 1621.42 352.169 1619.69 378.279C1617.67 408.682 1609.52 431.774 1594.76 448.875C1586.82 458.099 1576.78 465.631 1564.91 471.263C1552.05 477.37 1536.64 481.437 1519.11 483.352C1491.92 486.382 1462.66 483.66 1429.65 475.027C1400.96 467.522 1373.47 456.622 1349.21 447.007C1317.76 434.46 1286.79 420.838 1257.16 406.519C1232.69 394.681 1208.67 382.142 1185.76 369.248C1138.44 342.621 1096.48 310.751 1055.9 279.932C1040.33 268.102 1024.23 255.87 1008.01 244.072C975.934 220.746 949.894 203.793 923.575 189.102C865.207 156.53 799.328 141.766 727.751 145.205C614.969 150.485 511.369 199.202 444.317 239.143C396.121 267.976 350.61 301.911 316.172 334.7C289.71 359.891 270.111 386.161 249.362 413.972C247.05 417.071 244.734 420.176 242.404 423.282C237.864 429.34 231.855 437.313 225.637 445.254C201.198 476.499 164.807 512.633 99.7782 514.722C97.4662 514.794 95.1248 514.831 92.7689 514.831Z" fill="#FFE492"/>
<path d="M99.7962 549.103C41.0986 549.103 -20.49 524.884 -75.0876 503.411C-91.8651 496.814 -107.712 490.581 -122.771 485.311L-366 400.197L-365.154 399.107L-121.925 484.221C-106.825 489.503 -90.9601 495.743 -74.1606 502.35C-17.4525 524.652 46.8254 549.93 107.205 547.739C172.765 545.364 207.302 506.535 230.067 472.976C237.512 462 244.701 450.832 251.655 440.03C270.675 410.491 290.34 379.946 316.512 351.517C337.294 328.944 363.111 305.271 391.17 283.06C421.952 258.693 454.91 236.337 489.121 216.615C526.842 194.872 565.197 176.885 603.116 163.157C645.058 147.974 686.377 138.061 725.934 133.692C805.176 124.941 877.247 138.221 940.14 173.168C992.407 202.207 1036.83 238.117 1079.79 272.845C1117.19 303.073 1155.85 334.328 1199.64 361.046C1250.21 391.904 1304.95 420.382 1362.33 445.685C1410.68 467.004 1470.85 493.54 1532.86 487.576C1585.24 482.539 1615.52 458.997 1625.43 415.599C1633.87 378.685 1625.84 334.896 1619.4 299.713C1617.2 287.723 1615.13 276.397 1614.11 267.213C1608.49 216.583 1612.07 174.788 1625.06 139.442C1633.16 117.388 1645.12 97.7303 1660.6 81.0137C1677.89 62.3402 1700.09 46.7731 1726.59 34.7458C1749.5 24.3407 1775.33 16.7837 1803.36 12.2839C1830.04 8.00075 1858.12 6.56565 1886.84 8.01799C1943.32 10.8734 1998.57 24.7961 2042.41 47.2187C2065.84 59.2041 2087.12 73.624 2105.65 90.0748C2123.21 105.666 2138.42 123.181 2150.86 142.135C2174.3 177.84 2187.76 218.473 2189.79 259.638L2187.96 259.68C2183.64 172.018 2128.81 92.9598 2041.3 48.2008C1948.36 0.667701 1816.43 -4.56315 1727.6 35.7674C1639.61 75.7189 1603.08 151.395 1615.93 267.122C1616.94 276.276 1619.02 287.587 1621.21 299.563C1627.67 334.822 1635.71 378.705 1627.24 415.786C1622.62 435.984 1613.35 452.215 1599.67 464.033C1591.97 470.677 1582.7 476.107 1572.1 480.169C1560.82 484.491 1547.7 487.394 1533.12 488.797C1527.16 489.37 1521.09 489.658 1514.93 489.658C1492.45 489.658 1468.52 485.84 1442.29 478.106C1412.74 469.392 1384.23 456.818 1361.32 446.716C1303.86 421.377 1249.05 392.862 1198.4 361.959C1154.51 335.184 1115.81 303.893 1078.37 273.632C1035.47 238.949 991.099 203.084 938.964 174.118C876.492 139.41 804.915 126.216 726.22 134.908C567.032 152.488 403.053 259.852 318.058 352.167C291.956 380.517 272.317 411.021 253.322 440.52C246.364 451.327 239.172 462.502 231.719 473.488C216.605 495.768 201.678 511.721 184.743 523.69C174.172 531.158 162.704 537.046 150.657 541.189C137.261 545.795 122.671 548.414 107.289 548.973C104.805 549.059 102.302 549.103 99.7962 549.103Z" fill="#FFE492"/>
</g>
</svg>
