<svg width="37" height="30" viewBox="0 0 37 30" fill="none" xmlns="http://www.w3.org/2000/svg">
<g clip-path="url(#clip0_1_642)">
<path d="M0 2.86525V9.6182C0 11.6749 2.50611 12.7719 4.03763 11.3322L11.3471 4.5792C12.9483 3.1052 11.904 0.5 9.71119 0.5H2.40169C1.07902 0.5 0 1.56265 0 2.86525Z" fill="white"/>
<path d="M34.5982 0.5H27.2887C25.1307 0.5 24.0517 3.1052 25.6528 4.5792L32.9623 11.3322C34.4938 12.7376 36.9999 11.6749 36.9999 9.6182V2.86525C36.9999 1.56265 35.9209 0.5 34.5982 0.5Z" fill="white"/>
<path d="M20.1533 16.9881L32.9624 28.8487C34.4939 30.2541 37 29.1914 37 27.1347V20.3132C37 19.6619 36.7215 19.0449 36.2342 18.5992L20.1533 3.6879C19.2135 2.83092 17.7865 2.83092 16.8467 3.6879L0.765757 18.5992C0.278457 19.0449 0 19.6619 0 20.3132V27.1347C0 29.1914 2.50611 30.2884 4.03763 28.8487L16.8467 16.9881C17.7865 16.1312 19.2135 16.1312 20.1533 16.9881Z" fill="white"/>
</g>
<defs>
<clipPath id="clip0_1_642">
<rect width="37" height="29" fill="white" transform="translate(0 0.5)"/>
</clipPath>
</defs>
</svg>
