<svg width="223" height="33" viewBox="0 0 223 33" fill="none" xmlns="http://www.w3.org/2000/svg">
<path d="M209.537 17.2357C209.231 17.262 208.923 17.28 208.624 17.3194C208.429 17.344 208.346 17.2718 208.216 17.2341C208.173 17.221 208.127 17.1948 208.087 17.198C207.784 17.2243 207.482 17.2538 207.18 17.2833C207.087 17.3473 207.028 17.4325 206.887 17.4637C206.748 17.4932 206.584 17.4932 206.43 17.508C206.226 17.526 206.023 17.5441 205.819 17.5605C205.717 17.5687 205.634 17.5998 205.6 17.6588C205.594 17.6687 205.662 17.6933 205.699 17.708C205.822 17.7572 205.942 17.813 206.078 17.8507C206.208 17.8868 206.368 17.8277 206.507 17.8737C206.819 17.977 206.822 17.9753 207.059 17.9557C207.263 17.9376 207.467 17.918 207.67 17.9048C207.71 17.9016 207.757 17.9261 207.8 17.9393C207.929 17.9753 208.013 18.0573 208.204 18.0262C208.349 18.0016 208.509 17.9967 208.661 17.9835C208.787 18.0311 208.904 18.0852 209.04 18.1229C209.167 18.159 209.204 18.1869 209.136 18.2344C209.074 18.2787 208.988 18.2968 208.873 18.3C208.772 18.3017 208.67 18.3164 208.568 18.3246C208.516 18.3296 208.466 18.3328 208.417 18.3378C208.222 18.3558 208.222 18.3558 207.868 18.2508C207.729 18.2098 207.571 18.2672 207.439 18.2279C207.349 18.2016 207.272 18.1623 207.186 18.1344C207.149 18.1229 207.09 18.1213 207.044 18.1246C206.89 18.136 206.735 18.1442 206.587 18.1656C206.482 18.1803 206.421 18.2262 206.433 18.2722C206.436 18.2902 206.51 18.3164 206.553 18.3181C206.652 18.3214 206.757 18.2984 206.853 18.3099C206.945 18.3214 207.041 18.3542 207.109 18.3902C207.247 18.4657 207.405 18.3984 207.537 18.4181C207.676 18.4394 207.79 18.505 207.923 18.5444C207.957 18.5542 208.022 18.5378 208.074 18.5329C208.226 18.5214 208.377 18.5116 208.528 18.5001C208.654 18.5477 208.79 18.5903 208.904 18.6444C209.111 18.7428 209.333 18.7805 209.602 18.733C209.753 18.7067 209.901 18.7166 210.021 18.7805C210.145 18.8461 210.287 18.8396 210.444 18.8264C210.589 18.8133 210.737 18.7772 210.885 18.8232C211.206 18.9248 211.209 18.9298 211.589 18.8904C211.703 18.8789 211.789 18.8756 211.876 18.9134C211.956 18.9478 212.042 18.9773 212.126 19.0101C212.277 18.9986 212.431 18.9872 212.582 18.974C212.777 18.956 212.885 18.979 212.931 19.0708C212.959 19.1265 212.971 19.1774 213.039 19.2151C213.119 19.261 213.205 19.2594 213.323 19.2462C213.434 19.2348 213.514 19.2167 213.56 19.1577C213.579 19.1331 213.616 19.1101 213.65 19.0905C213.677 19.0757 213.721 19.0528 213.745 19.056C213.792 19.0626 213.853 19.0806 213.869 19.1019C214.02 19.3004 214.02 19.302 214.174 19.3594C214.344 19.4234 214.52 19.4807 214.674 19.5529C214.813 19.6169 214.952 19.589 215.103 19.589C215.217 19.589 215.291 19.6316 215.282 19.6743C215.276 19.6989 215.233 19.7349 215.196 19.7382C214.893 19.771 214.588 19.7989 214.282 19.8218C214.245 19.8251 214.199 19.7956 214.156 19.7808C214.069 19.7513 213.992 19.7054 213.9 19.6956C213.807 19.6857 213.699 19.7103 213.597 19.7185C213.495 19.7267 213.387 19.7481 213.295 19.7349C213.202 19.7218 213.128 19.6743 213.042 19.6431C213.002 19.6283 212.946 19.607 212.912 19.612C212.687 19.6513 212.52 19.5972 212.36 19.525C212.326 19.5103 212.267 19.5004 212.224 19.5037C211.866 19.5316 211.512 19.5644 211.154 19.5955C211.009 19.6087 210.891 19.5513 210.86 19.4545C210.845 19.4004 210.814 19.3463 210.814 19.2922C210.814 19.1938 210.645 19.1397 210.521 19.1511C210.318 19.1675 210.111 19.1806 209.91 19.2052C209.747 19.2249 209.608 19.2052 209.497 19.1462C209.367 19.079 209.219 19.0921 209.071 19.1101C208.96 19.1233 208.929 19.1774 208.935 19.3135C208.941 19.4234 208.889 19.4578 208.688 19.4758C208.435 19.4988 208.179 19.5217 207.923 19.5398C207.883 19.5431 207.837 19.5152 207.797 19.5004C207.71 19.4709 207.633 19.4234 207.541 19.4135C207.448 19.402 207.34 19.4266 207.238 19.4365C207.136 19.4447 207.028 19.4676 206.936 19.4562C206.843 19.4447 206.766 19.3955 206.683 19.3643C206.643 19.3496 206.593 19.3282 206.553 19.3315C206.35 19.3446 206.146 19.3643 205.942 19.3824C205.714 19.402 205.714 19.402 205.39 19.3004C205.242 19.2545 205.094 19.2905 204.949 19.3037C204.795 19.3168 204.65 19.3233 204.529 19.2577C204.449 19.2151 204.36 19.1889 204.264 19.1971C204.008 19.2167 203.755 19.2413 203.499 19.261C203.456 19.2643 203.397 19.2561 203.363 19.2413C203.199 19.1725 203.039 19.1183 202.811 19.1528C202.613 19.1823 202.4 19.1839 202.203 19.2118C202.095 19.2266 202.045 19.2791 202.067 19.3201C202.079 19.3414 202.144 19.366 202.187 19.366C202.286 19.3676 202.394 19.343 202.487 19.3528C202.678 19.3725 202.774 19.5103 203.024 19.4725C203.172 19.4496 203.326 19.4414 203.48 19.4348C203.52 19.4332 203.563 19.4644 203.607 19.4808C203.73 19.525 203.838 19.5824 204.017 19.5529C204.165 19.5299 204.323 19.5234 204.474 19.5103C204.714 19.489 204.714 19.4906 205.026 19.5906C205.174 19.6382 205.322 19.6005 205.467 19.589C205.575 19.5808 205.677 19.5644 205.763 19.5874C205.896 19.6218 205.992 19.7005 206.155 19.6956C206.309 19.6907 206.461 19.6677 206.615 19.6595C206.711 19.6546 206.8 19.6808 206.877 19.7251C206.957 19.7694 207.044 19.789 207.149 19.7792C207.3 19.7661 207.454 19.7497 207.608 19.7415C207.652 19.7399 207.701 19.7546 207.741 19.7677C207.828 19.7973 207.911 19.8317 207.994 19.8628C208.145 19.853 208.3 19.8497 208.448 19.8301C208.562 19.8153 208.642 19.8219 208.735 19.8547C208.852 19.8989 208.948 19.9776 209.139 19.9399C209.235 19.9219 209.346 19.9268 209.441 19.9104C209.558 19.8891 209.639 19.8973 209.722 19.9465C209.879 20.0399 210.077 20.0416 210.28 20.0055C210.503 19.9662 210.669 20.0121 210.836 20.0842C211.012 20.1597 211.012 20.158 211.147 20.3401C211.188 20.3925 211.302 20.4171 211.397 20.4073C211.558 20.3909 211.697 20.3991 211.814 20.4614C211.937 20.5286 212.085 20.5204 212.237 20.5024C212.437 20.4778 212.638 20.4565 212.801 20.5516C212.881 20.5975 212.968 20.609 213.076 20.5975C213.381 20.568 213.69 20.55 213.989 20.5139C214.171 20.4909 214.276 20.5434 214.399 20.5877C214.566 20.6484 214.748 20.7025 214.748 20.832C214.748 20.8533 214.791 20.8779 214.828 20.8943C214.909 20.9288 214.995 20.9583 215.078 20.9911C215.202 21.0403 215.322 21.0813 215.492 21.055C215.64 21.0337 215.797 21.0272 215.948 21.0124C216.1 20.9976 216.238 20.9894 216.374 21.0518C216.532 21.1223 216.698 21.1895 216.877 21.242C217.004 21.2797 217.17 21.2158 217.306 21.2666C217.389 21.2977 217.469 21.3338 217.559 21.3601C217.596 21.3715 217.655 21.3633 217.704 21.3601C217.806 21.3535 217.911 21.3486 218.009 21.3322C218.124 21.3141 218.21 21.3174 218.296 21.3552C218.377 21.3896 218.457 21.4371 218.549 21.447C218.688 21.4617 218.842 21.3961 218.981 21.4716C219.052 21.5093 219.142 21.5454 219.234 21.5569C219.327 21.5683 219.435 21.5437 219.534 21.5454C219.577 21.5454 219.629 21.5716 219.654 21.5929C219.669 21.6044 219.648 21.6356 219.626 21.652C219.598 21.6716 219.558 21.6979 219.518 21.7012C219.213 21.7307 218.907 21.7553 218.602 21.7832C218.42 21.7996 218.42 21.7996 218.053 21.6962C217.966 21.6716 217.871 21.6766 217.763 21.688C217.618 21.7028 217.469 21.7307 217.318 21.7012C217.121 21.5896 216.877 21.5798 216.618 21.6224C216.51 21.6405 216.411 21.6405 216.331 21.6093C216.161 21.547 215.982 21.4896 215.831 21.4158C215.714 21.3584 215.658 21.3535 215.609 21.4322C215.594 21.4568 215.578 21.483 215.581 21.506C215.6 21.588 215.634 21.6684 215.652 21.7503C215.658 21.7733 215.634 21.7996 215.618 21.8242C215.569 21.893 215.504 21.8881 215.396 21.8307C215.288 21.7733 215.159 21.7356 214.986 21.7618C214.838 21.7848 214.677 21.7815 214.529 21.8061C214.301 21.8422 214.14 21.7897 213.977 21.7192C213.943 21.7044 213.884 21.6962 213.841 21.6995C213.381 21.7372 212.925 21.7799 212.465 21.8176C212.366 21.8258 212.277 21.8012 212.2 21.7569C212.119 21.7126 212.03 21.6897 211.931 21.6979C211.524 21.7323 211.117 21.7635 210.709 21.8061C210.543 21.8242 210.41 21.8028 210.296 21.7454C210.21 21.7028 210.129 21.6897 210.021 21.6946C209.904 21.6995 209.821 21.7159 209.762 21.7635C209.707 21.8094 209.747 21.8373 209.87 21.8733C210.003 21.9127 210.126 21.9635 210.253 22.0095C210.354 22.0029 210.456 21.9898 210.555 21.9914C210.598 21.9914 210.638 22.0209 210.682 22.0373C210.805 22.0849 210.919 22.1324 211.095 22.1062C211.243 22.0833 211.4 22.0783 211.552 22.0636C211.761 22.0455 211.761 22.0455 212.101 22.1488C212.187 22.1751 212.28 22.1734 212.391 22.1587C212.486 22.1472 212.585 22.1702 212.653 22.2194C212.681 22.239 212.672 22.2718 212.613 22.3801C212.613 22.4604 212.678 22.4243 212.699 22.3719C212.733 22.2964 212.669 22.2718 212.545 22.3128C212.459 22.3424 212.416 22.385 212.437 22.4194C212.45 22.4375 212.508 22.4604 212.613 22.3801C212.885 22.2817 213.091 22.2702 213.289 22.244C213.406 22.2292 213.48 22.2357 213.573 22.2784C213.684 22.3292 213.795 22.3834 213.977 22.3571C214.174 22.3276 214.384 22.3243 214.585 22.2997C214.77 22.2767 214.865 22.3489 214.983 22.3915C215.125 22.4424 215.282 22.385 215.411 22.4145C215.547 22.444 215.643 22.5162 215.8 22.5293C216.029 22.485 216.174 22.567 216.346 22.6211C216.482 22.6621 216.643 22.626 216.788 22.608C216.951 22.5883 217.087 22.6064 217.201 22.6654C217.331 22.7326 217.476 22.7179 217.624 22.7031C217.969 22.6703 217.982 22.6654 218.182 22.7556C218.327 22.8212 218.466 22.7917 218.611 22.7835C218.738 22.8278 218.861 22.8753 218.994 22.9147C219.028 22.9245 219.092 22.9081 219.145 22.9032C219.296 22.8901 219.45 22.877 219.602 22.8638C219.703 22.8556 219.811 22.831 219.904 22.8409C219.996 22.8524 220.074 22.8999 220.157 22.9311C220.24 22.9622 220.327 22.9934 220.407 23.0262C220.53 23.0754 220.647 23.1164 220.82 23.0918C220.968 23.0705 221.123 23.0639 221.277 23.0491C221.471 23.0311 221.465 23.036 221.826 23.1344C222.02 23.1885 222.221 23.1229 222.418 23.1164C222.517 23.1131 222.613 23.1311 222.681 23.1787C222.709 23.1984 222.699 23.2312 222.709 23.2591C222.199 23.3033 221.687 23.341 221.184 23.3952C220.99 23.4165 220.888 23.3574 220.783 23.3082C220.61 23.2295 220.382 23.3443 220.219 23.2426C220.12 23.182 219.978 23.1475 219.808 23.1771C219.709 23.1935 219.605 23.1918 219.503 23.2066C219.244 23.2426 219.006 23.2443 218.799 23.1311C218.728 23.0918 218.627 23.0705 218.552 23.0327C218.466 22.9917 218.383 22.9688 218.281 22.977C217.821 23.0163 217.365 23.0557 216.908 23.0983C216.868 23.1016 216.828 23.1262 216.794 23.1442C216.707 23.1902 216.735 23.2262 216.874 23.2558C216.92 23.2656 216.957 23.2869 217.001 23.3033C217.084 23.3345 217.161 23.3837 217.253 23.3952C217.346 23.4066 217.454 23.3837 217.556 23.3755C217.658 23.3673 217.766 23.3427 217.858 23.3525C217.951 23.364 218.028 23.4116 218.114 23.4411C218.154 23.4558 218.204 23.4804 218.244 23.4788C218.448 23.4689 218.648 23.4509 218.852 23.4361C218.978 23.4804 219.086 23.5444 219.237 23.5591C219.333 23.569 219.435 23.5509 219.534 23.5542C219.577 23.5559 219.632 23.5805 219.654 23.6018C219.666 23.6149 219.626 23.6477 219.595 23.6641C219.478 23.7264 219.318 23.7149 219.173 23.7346C219.015 23.7559 218.873 23.7494 218.753 23.6854C218.673 23.6428 218.583 23.6198 218.485 23.628C218.228 23.6493 217.975 23.6739 217.719 23.692C217.676 23.6953 217.624 23.6805 217.584 23.669C217.26 23.569 217.26 23.5657 217.031 23.587C216.695 23.6182 216.695 23.6182 216.47 23.5313C216.427 23.5149 216.38 23.4837 216.343 23.4854C215.985 23.5116 215.631 23.5378 215.276 23.5755C215.158 23.587 215.078 23.587 214.992 23.5444C214.918 23.5083 214.831 23.4673 214.739 23.4575C214.643 23.4476 214.538 23.4722 214.437 23.4804C214.335 23.4886 214.227 23.5099 214.137 23.4968C214.045 23.4837 213.964 23.4378 213.884 23.405C213.801 23.3706 213.711 23.3722 213.597 23.3853C213.246 23.423 213.242 23.4181 212.894 23.3164C212.854 23.305 212.801 23.2918 212.758 23.2951C212.502 23.3148 212.249 23.3394 211.993 23.3591C211.894 23.3673 211.798 23.346 211.731 23.2984C211.703 23.2787 211.712 23.2459 211.694 23.182C211.672 23.1672 211.697 23.1935 211.703 23.2181C211.749 23.2148 211.805 23.218 211.839 23.2049C211.925 23.1738 211.968 23.1328 211.947 23.0983C211.934 23.0803 211.876 23.0573 211.839 23.0573C211.771 23.0573 211.712 23.0934 211.694 23.182C211.499 23.2361 211.292 23.2476 211.092 23.2738C210.975 23.2902 210.901 23.282 210.808 23.2394C210.697 23.1869 210.583 23.136 210.401 23.1623C210.203 23.1918 209.993 23.1967 209.79 23.2197C209.555 23.2459 209.454 23.0983 209.256 23.1016C209.052 23.1049 208.849 23.1328 208.645 23.1525C208.466 23.1689 208.466 23.1688 208.096 23.0623C207.96 23.0229 207.8 23.0803 207.667 23.0393C207.578 23.0131 207.5 22.9737 207.414 22.9458C207.377 22.9343 207.318 22.9343 207.272 22.9376C207.016 22.9573 206.757 22.9704 206.51 23.0065C206.229 23.0491 206.016 23.0032 205.816 22.9065C205.563 22.9245 205.307 22.9343 205.057 22.9655C204.875 22.9885 204.77 22.9344 204.646 22.8901C204.603 22.8753 204.566 22.8507 204.52 22.8442C204.474 22.8376 204.418 22.8507 204.369 22.8556C204.165 22.8737 203.955 22.8819 203.758 22.9114C203.514 22.9491 203.422 22.8146 203.233 22.7982C203.107 22.8786 203.039 22.9885 202.789 22.9967C202.585 23.0032 202.382 23.0295 202.178 23.0475C202.076 23.0557 201.975 23.0655 201.873 23.0737C201.709 23.0885 201.632 23.1524 201.666 23.2508C201.685 23.305 201.7 23.3591 201.715 23.4132C201.746 23.5099 201.669 23.5919 201.539 23.6034C201.182 23.6346 200.827 23.6674 200.469 23.6952C200.373 23.7034 200.281 23.6756 200.203 23.6313C200.123 23.587 200.034 23.5673 199.935 23.5755C199.577 23.6067 199.222 23.6395 198.864 23.6674C198.824 23.6707 198.772 23.6543 198.732 23.6411C198.645 23.6116 198.562 23.5772 198.479 23.546C198.275 23.5608 198.075 23.5706 197.874 23.5903C197.55 23.6198 197.55 23.6214 197.312 23.5313C197.269 23.5149 197.226 23.4837 197.186 23.4854C197.032 23.4919 196.881 23.5083 196.726 23.5231C196.273 23.5657 196.273 23.5657 196.14 23.5165C196.02 23.4706 195.912 23.4148 195.73 23.4411C195.532 23.4706 195.322 23.4804 195.119 23.4968C194.967 23.5083 194.816 23.5214 194.665 23.5247C194.625 23.5264 194.582 23.4952 194.539 23.4788C194.415 23.428 194.295 23.387 194.125 23.4148C194.026 23.4312 193.922 23.4345 193.82 23.4427C193.554 23.4657 193.554 23.4657 193.119 23.3673C193.076 23.3574 193.024 23.346 192.981 23.3509C192.623 23.3804 192.268 23.4132 191.91 23.4411C191.867 23.4444 191.814 23.4345 191.771 23.4263C191.284 23.3312 191.284 23.3312 190.765 23.3771C190.568 23.3935 190.562 23.4001 190.355 23.3132C190.262 23.2754 190.185 23.2574 190.077 23.2689C189.67 23.3082 189.26 23.3345 188.855 23.3804C188.673 23.4001 188.568 23.3509 188.445 23.3066C188.402 23.2918 188.356 23.2591 188.318 23.2607C187.911 23.2918 187.504 23.3296 187.097 23.3607C187.06 23.364 187.013 23.3312 186.97 23.3164C186.887 23.2869 186.807 23.2426 186.714 23.2328C186.618 23.223 186.513 23.2476 186.409 23.2558C186.152 23.2771 186.152 23.2754 185.856 23.1787C185.816 23.1656 185.764 23.1475 185.724 23.1508C185.316 23.1836 184.906 23.2115 184.502 23.2591C184.27 23.2853 184.113 23.2377 183.949 23.1688C183.916 23.1541 183.857 23.1475 183.814 23.1508C183.354 23.1885 182.897 23.2312 182.438 23.2689C182.342 23.2771 182.249 23.2492 182.172 23.2066C182.049 23.1393 181.904 23.1475 181.75 23.1623C181.395 23.1967 181.392 23.1951 181.182 23.1164C181.139 23.1 181.102 23.0787 181.055 23.0705C181.012 23.0623 180.957 23.0672 180.91 23.0705C180.707 23.0869 180.503 23.1049 180.299 23.1229C180.096 23.141 179.889 23.1508 179.689 23.1787C179.442 23.2131 179.324 23.1065 179.152 23.0573C178.899 23.0786 178.639 23.0918 178.39 23.1262C178.198 23.1524 178.109 23.0803 177.982 23.0426C177.939 23.0295 177.893 23.0016 177.853 23.0049C177.393 23.0409 176.933 23.0803 176.477 23.1246C176.366 23.1344 176.292 23.1213 176.199 23.0819C175.992 22.9934 175.983 22.9967 175.637 23.0295C175.486 23.0442 175.341 23.0573 175.212 22.9901C175.097 22.9294 174.959 22.9147 174.795 22.9343C174.595 22.9589 174.388 22.9721 174.184 22.9885C173.981 23.0065 173.777 23.0311 173.573 23.0393C173.41 23.0475 173.311 22.9704 173.181 22.9311C173.141 22.9196 173.086 22.9179 173.039 22.9212C172.836 22.936 172.626 22.9475 172.429 22.9753C172.188 23.0098 172.055 22.9196 171.886 22.8671C171.849 22.8556 171.787 22.8622 171.74 22.8671C171.383 22.8966 171.028 22.9294 170.67 22.9606C170.543 22.9163 170.414 22.8737 170.287 22.8294C170.084 22.8458 169.88 22.8638 169.676 22.8802C169.522 22.8933 169.365 22.8983 169.22 22.9229C169.031 22.9557 168.939 22.8786 168.812 22.8409C168.769 22.8278 168.723 22.7999 168.683 22.8032C168.427 22.8212 168.171 22.8409 167.918 22.8688C167.677 22.8966 167.581 22.749 167.384 22.7507C167.18 22.7523 166.97 22.7736 166.773 22.8032C166.545 22.8376 166.384 22.7851 166.221 22.7146C166.187 22.6998 166.128 22.6916 166.085 22.6949C165.829 22.7146 165.576 22.7392 165.32 22.7589C165.277 22.7622 165.224 22.754 165.181 22.7441C164.693 22.6474 164.693 22.6457 164.481 22.6654C164.329 22.6785 164.175 22.6949 164.021 22.7031C163.978 22.7064 163.925 22.6916 163.885 22.6785C163.564 22.5785 163.564 22.5769 163.333 22.5965C163.129 22.6146 162.925 22.6326 162.722 22.6506C162.595 22.6064 162.466 22.5637 162.339 22.5195C162.086 22.5408 161.827 22.5572 161.577 22.5867C161.46 22.5998 161.383 22.5949 161.293 22.5539C161.182 22.5047 161.071 22.4473 160.886 22.4752C160.689 22.5047 160.479 22.508 160.278 22.5326C160.038 22.5621 159.939 22.4129 159.744 22.4145C159.541 22.4161 159.331 22.4375 159.133 22.467C158.905 22.5014 158.745 22.4489 158.581 22.3784C158.547 22.3637 158.489 22.3555 158.445 22.3588C157.884 22.4063 157.325 22.4539 156.764 22.5047C156.418 22.5358 156.418 22.5375 155.761 22.4473C155.715 22.4407 155.665 22.4342 155.619 22.4375C155.416 22.4522 155.206 22.4637 155.008 22.4916C154.768 22.526 154.635 22.4375 154.465 22.3833C154.428 22.3719 154.37 22.3784 154.32 22.3817C154.166 22.3932 154.015 22.408 153.86 22.4211C153.657 22.4391 153.453 22.4571 153.25 22.4752C153.123 22.4325 152.993 22.3883 152.867 22.3456C152.614 22.3669 152.355 22.3784 152.105 22.4129C151.914 22.4391 151.824 22.3702 151.698 22.3309C151.654 22.3178 151.608 22.2899 151.568 22.2915C151.108 22.3276 150.649 22.3653 150.192 22.4112C150.004 22.4309 149.917 22.3571 149.791 22.3194C149.748 22.3079 149.698 22.2866 149.658 22.2899C149.353 22.3128 149.047 22.3407 148.742 22.3686C148.569 22.385 148.569 22.385 148.193 22.2833C148.149 22.2718 148.1 22.2604 148.057 22.2636C147.088 22.3456 146.122 22.4325 145.153 22.5145C145.055 22.5227 144.965 22.4981 144.888 22.4539C144.808 22.4096 144.718 22.3866 144.62 22.3948C144.212 22.4293 143.802 22.4604 143.398 22.5031C143.231 22.5211 143.099 22.4998 142.984 22.4424C142.898 22.3997 142.818 22.3833 142.71 22.3932C142.506 22.4129 142.303 22.4293 142.099 22.4473C141.895 22.4653 141.692 22.4834 141.488 22.5014C141.284 22.5195 141.078 22.5293 140.877 22.5572C140.63 22.5916 140.51 22.4899 140.34 22.4391C140.035 22.4637 139.729 22.4883 139.427 22.5145C139.02 22.549 138.612 22.5867 138.205 22.6195C138.168 22.6228 138.122 22.5933 138.079 22.5785C137.952 22.5375 137.86 22.4801 137.671 22.4981C136.758 22.5851 135.839 22.6588 134.922 22.7441C134.731 22.7622 134.648 22.6916 134.518 22.6539C134.475 22.6424 134.425 22.6195 134.385 22.6228C133.876 22.6638 133.367 22.7097 132.858 22.754C132.651 22.772 132.651 22.772 132.306 22.6703C132.266 22.6588 132.213 22.6441 132.17 22.6474C131.507 22.7031 130.846 22.7622 130.183 22.8196C130.084 22.8278 129.995 22.8048 129.915 22.7605C129.837 22.7162 129.745 22.6916 129.649 22.6998C129.038 22.7523 128.424 22.8032 127.817 22.8605C127.653 22.8769 127.517 22.8622 127.4 22.8032C127.317 22.7605 127.233 22.7425 127.128 22.7523C126.212 22.8327 125.296 22.9098 124.379 22.995C124.203 23.0114 124.08 22.9803 123.969 22.9261C123.88 22.8835 123.802 22.8753 123.691 22.8819C123.574 22.8901 123.503 22.9081 123.438 22.9573C123.355 23.0213 123.303 23.1016 123.105 23.1065C122.901 23.1115 122.695 23.1311 122.494 23.159C122.303 23.1869 122.213 23.1131 122.093 23.0688C122.004 23.0377 121.92 23.0327 121.806 23.0475C121.701 23.0606 121.636 23.0885 121.575 23.141C121.439 23.2525 121.427 23.2525 121.26 23.182C121.171 23.1442 121.09 23.1147 120.992 23.1213C120.584 23.1541 120.177 23.1902 119.77 23.2279C119.535 23.2492 119.532 23.2525 119.356 23.1705C119.27 23.1295 119.187 23.1098 119.085 23.1196C117.965 23.218 116.845 23.3132 115.725 23.4165C115.552 23.4329 115.435 23.3984 115.311 23.3492C115.271 23.3328 115.231 23.3099 115.185 23.3033C115.139 23.2968 115.086 23.3033 115.037 23.3066C114.222 23.3771 113.404 23.4444 112.593 23.5231C112.408 23.5411 112.309 23.4886 112.183 23.446C112.14 23.4312 112.102 23.4083 112.056 23.4017C112.01 23.3968 111.954 23.4083 111.905 23.4132C111.09 23.4837 110.273 23.551 109.461 23.6297C109.267 23.6477 109.184 23.5788 109.057 23.5427C109.014 23.5296 108.968 23.505 108.928 23.5083C108.672 23.5263 108.419 23.5509 108.162 23.5723C107.551 23.6264 106.941 23.6772 106.33 23.733C106.095 23.7543 105.993 23.6083 105.796 23.6149C105.54 23.6231 105.287 23.6559 105.031 23.6788C104.827 23.6969 104.623 23.7133 104.42 23.733C104.219 23.751 104.219 23.751 103.719 23.6559C103.676 23.6477 103.624 23.6362 103.581 23.6395C102.868 23.7002 102.152 23.7608 101.442 23.8264C101.279 23.8412 101.143 23.833 101.026 23.7723C100.942 23.7297 100.856 23.7084 100.754 23.7182C99.6837 23.8117 98.6161 23.9052 97.5454 23.997C97.5053 24.0003 97.4529 23.9839 97.4128 23.9708C97.3264 23.9412 97.2431 23.9068 97.1598 23.8756C97.0981 23.9134 97.0179 23.9478 96.9778 23.9904C96.9222 24.0478 96.8482 24.0642 96.7309 24.0741C96.6137 24.0839 96.5396 24.0806 96.4471 24.038C96.336 23.9855 96.2218 23.9445 96.0398 23.9609C94.9198 24.0642 93.7997 24.1577 92.6797 24.2594C92.4946 24.2758 92.4083 24.2036 92.2787 24.1659C92.2355 24.1544 92.1861 24.1364 92.146 24.1397C91.6862 24.1774 91.2296 24.2184 90.7699 24.2577C89.4956 24.3692 88.2214 24.4758 86.9502 24.5939C86.7188 24.6152 86.5614 24.5742 86.3979 24.5037C86.3639 24.489 86.3053 24.4808 86.2621 24.484C84.4788 24.6382 82.6954 24.794 80.9151 24.9498C80.8194 24.958 80.7268 24.9317 80.6497 24.8891C80.5695 24.8448 80.48 24.8235 80.3813 24.8317C79.5667 24.9022 78.7522 24.9727 77.9377 25.0449C77.734 25.0629 77.7309 25.0645 77.5211 24.9858C77.4779 24.9694 77.4317 24.9383 77.3977 24.9416C77.3268 24.9498 77.2589 24.9907 77.2095 25.0465C77.1601 25.1055 77.083 25.1219 76.9688 25.1334C76.8516 25.1449 76.7745 25.14 76.685 25.1006C76.5708 25.0514 76.4659 25.0039 76.2808 25.0203C73.9389 25.2302 71.5971 25.4319 69.2553 25.6401C69.0671 25.6565 68.9806 25.5877 68.8511 25.55C68.8079 25.5385 68.7647 25.5221 68.7184 25.5188C68.669 25.5155 68.6166 25.5254 68.5672 25.5303C64.7475 25.8632 60.9278 26.1977 57.108 26.5306C56.8797 26.5503 56.8828 26.5503 56.6329 26.7012C56.602 26.7192 56.5619 26.7438 56.5187 26.7471C55.3493 26.852 54.1769 26.9537 53.0044 27.0554C52.4953 27.0996 51.9862 27.1456 51.4771 27.1882C51.2951 27.203 51.2951 27.203 50.8601 27.3801C50.823 27.3948 50.7798 27.4145 50.7366 27.4178C48.7002 27.5965 46.6638 27.7753 44.6244 27.9507C44.4639 27.9639 44.3343 27.9934 44.2603 28.0721C44.2078 28.1279 44.14 28.1606 44.0382 28.1705C42.6127 28.2951 41.1873 28.4214 39.7587 28.5427C39.589 28.5575 39.4872 28.6034 39.4039 28.6723C39.3761 28.6953 39.3514 28.7215 39.3113 28.7379C39.2743 28.7526 39.2187 28.7576 39.1724 28.7625C37.9506 28.8691 36.7288 28.979 35.5039 29.0806C35.3219 29.0954 35.2478 29.1561 35.1583 29.22C35.1275 29.2413 35.1059 29.2709 35.0657 29.2856C35.0256 29.2987 34.967 29.2987 34.9176 29.302C33.8995 29.3906 32.8813 29.4808 31.8631 29.5693C31.6656 29.5611 31.6224 29.6562 31.5268 29.7136C31.4928 29.7333 31.4682 29.7595 31.4281 29.7727C31.3849 29.7858 31.3293 29.7841 31.2768 29.7874C30.4623 29.8579 29.6478 29.9334 28.8301 29.999C28.6419 30.0137 28.6049 30.0973 28.503 30.1547C28.4691 30.1728 28.4352 30.2007 28.3951 30.2056C27.886 30.2531 27.3769 30.2974 26.8678 30.34C26.6981 30.3548 26.6981 30.3532 26.3988 30.5155C26.3649 30.5336 26.3248 30.5532 26.2816 30.5582C25.5195 30.627 24.7543 30.6926 23.9891 30.7599C23.8904 30.7681 23.8225 30.8074 23.7732 30.8632C23.7238 30.9189 23.6528 30.955 23.5541 30.9632C22.9432 31.0173 22.3322 31.0731 21.7213 31.1223C21.5516 31.1354 21.4406 31.1764 21.3665 31.2502C21.311 31.3059 21.2431 31.3338 21.1351 31.3437C20.5242 31.3961 19.9133 31.4535 19.2993 31.4995C19.1203 31.5126 19.0277 31.5683 18.9537 31.6372C18.8951 31.693 18.8272 31.7126 18.713 31.7225C17.593 31.8176 16.47 31.9127 15.353 32.0176C15.1648 32.0357 15.0692 31.9783 14.9457 31.9373C14.7699 31.8799 14.6064 31.8176 14.6064 31.6897C14.6064 31.67 14.5539 31.647 14.5169 31.6306C14.2423 31.5076 14.2423 31.5077 14.1991 31.3765C14.1744 31.2961 14.1466 31.2141 14.1251 31.1321C14.0849 30.9977 13.9862 30.9632 13.7023 30.9878C13.6005 30.996 13.4987 31.0075 13.3969 31.014C13.2457 31.0255 13.1315 30.9714 13.1038 30.873C13.0883 30.8189 13.0698 30.7648 13.0544 30.7107C13.2087 30.6975 13.2056 30.6959 13.4771 30.4975C13.5912 30.4139 13.5913 30.4139 13.3722 30.3302C13.2889 30.2991 13.2087 30.2646 13.1192 30.2351C13.0791 30.222 13.0267 30.2138 12.9835 30.2171C12.7274 30.2367 12.4744 30.2597 12.2214 30.2827C11.8141 30.3187 11.814 30.3187 11.4006 30.1515C11.3667 30.1383 11.3142 30.1138 11.3204 30.1006C11.3543 30.04 11.4376 30.0137 11.5425 30.0071C11.6968 29.9973 11.848 29.9809 11.9992 29.9678C12.101 29.9596 12.2028 29.9498 12.3046 29.9416C12.4003 29.8793 12.499 29.8186 12.5885 29.7546C12.7304 29.6562 12.7304 29.6529 12.536 29.5841C12.4126 29.5381 12.2799 29.4971 12.1534 29.4545C12.0022 29.4676 11.848 29.4824 11.6968 29.4939C11.5055 29.5086 11.4284 29.4775 11.379 29.3709C11.3358 29.2774 11.3882 29.1971 11.5363 29.1774C11.6875 29.1577 11.8295 29.1446 11.9067 29.061C11.9807 28.9806 12.1103 28.9494 12.2707 28.9429C12.3725 28.9379 12.4743 28.9265 12.5762 28.9166C12.7088 28.9035 12.7798 28.8199 12.7521 28.7264C12.7366 28.6657 12.7058 28.6149 12.5854 28.6018C12.0517 28.5444 12.0454 28.546 11.7801 28.4345C11.7554 28.4247 11.7369 28.3952 11.7462 28.3804C11.7616 28.3558 11.7956 28.3197 11.8326 28.3148C12.1874 28.2787 12.5422 28.2459 12.8971 28.2213C13.0143 28.2131 13.1007 28.2016 13.1408 28.141C13.1964 28.0573 13.1717 27.9803 13.0637 27.9229C13.0297 27.9048 12.9742 27.8819 12.9371 27.8835C12.5299 27.913 12.1257 27.9507 11.7184 27.9803C11.6814 27.9835 11.6135 27.9557 11.5981 27.9344C11.5673 27.895 11.6135 27.8425 11.7215 27.8245C11.8634 27.7999 12.0084 27.7982 12.1041 27.7162C12.2368 27.5998 12.4003 27.4932 12.5484 27.3817C12.5731 27.362 12.6132 27.3243 12.604 27.321C12.5268 27.2849 12.4373 27.2571 12.3571 27.2226C12.2214 27.1652 12.2213 27.0849 12.2522 27.0078C12.2769 26.9455 12.3694 26.9209 12.4836 26.9209C12.533 26.9209 12.5947 26.9209 12.6348 26.9061C12.7397 26.8701 12.7736 26.8241 12.7212 26.7897C12.6903 26.77 12.6348 26.7422 12.5978 26.7454C11.9375 26.7996 11.2741 26.852 10.6169 26.9193C10.4225 26.9389 10.3331 26.8766 10.2158 26.8323C10.1264 26.7979 10.043 26.7848 9.93194 26.8094C9.82704 26.8323 9.72525 26.8192 9.66046 26.7651C9.60801 26.7208 9.70055 26.6831 9.95047 26.6405C9.99675 26.6323 10.0492 26.6274 10.0831 26.611C10.441 26.4339 10.441 26.4322 10.6879 26.4093C10.9285 26.3879 10.9286 26.3863 11.0551 26.2912C11.1137 26.2469 11.1784 26.2026 11.234 26.1567C11.2556 26.1387 11.2926 26.1059 11.2803 26.096C11.2124 26.0452 11.1198 26.0337 11.0118 26.0452C10.7712 26.0731 10.4874 26.0501 10.3609 26.2059C10.3115 26.2649 10.2343 26.2813 10.1233 26.2912C9.00635 26.3863 7.88939 26.488 6.76939 26.5798C6.58735 26.5946 6.50409 26.6552 6.43313 26.7225C6.37142 26.7782 6.30352 26.7946 6.18628 26.8045C6.06903 26.8143 5.97642 26.8192 5.90854 26.7651C5.86843 26.7323 5.90238 26.6864 5.99495 26.6405C6.12762 26.5749 6.10292 26.4929 6.05973 26.4158C6.02887 26.365 5.93323 26.3289 5.83141 26.3322C5.68022 26.3387 5.53525 26.3568 5.40875 26.2912C5.3347 26.2535 5.24212 26.2272 5.15881 26.1944C4.99837 26.1272 4.83792 26.0583 4.61268 26.1026C4.45841 26.0862 4.35042 26.0272 4.22701 25.9812C4.02028 25.9058 4.00177 25.8943 4.14987 25.814C4.31648 25.7238 4.18687 25.6057 4.27943 25.5172C4.37817 25.422 4.51397 25.3384 4.6343 25.2499C4.66516 25.2269 4.69294 25.2056 4.72379 25.1826C4.65283 25.1498 4.58805 25.1088 4.50474 25.0859C4.39675 25.0564 4.34121 25.0203 4.34738 24.9186C4.32578 24.9039 4.33498 24.9416 4.35966 24.9514C4.38743 24.9612 4.45536 24.953 4.4893 24.9416C4.57569 24.9104 4.61884 24.8694 4.59724 24.835C4.5849 24.8169 4.52632 24.794 4.4893 24.794C4.42142 24.794 4.3628 24.8301 4.34429 24.9186C3.99873 24.9858 3.64076 25.0186 3.28285 25.0449C3.24583 25.0482 3.19957 25.0154 3.15638 24.999C3.01445 24.9432 3.01443 24.9448 2.5979 24.9284C2.5547 24.9268 2.49611 24.9039 2.47451 24.8809C2.38503 24.7809 2.38814 24.671 2.34495 24.5644C2.42517 24.4955 2.50533 24.4283 2.58863 24.361C2.75524 24.2249 2.97127 24.1052 3.10086 23.956C3.07309 23.8756 3.03606 23.7953 3.17182 23.7297C3.5575 23.6477 3.55443 23.6477 3.65934 23.569C3.95862 23.346 4.25481 23.1213 4.56643 22.9015C4.64974 22.8442 4.64975 22.813 4.50165 22.7884C4.45537 22.7818 4.40594 22.7802 4.35657 22.7835C4.2023 22.795 4.04803 22.8245 3.89685 22.8179C3.74566 22.813 3.63459 22.7408 3.51117 22.6966C3.38467 22.6506 3.25817 22.6031 3.13167 22.5555C2.98665 22.5605 2.84167 22.6064 2.69665 22.5326C2.58558 22.4752 2.44674 22.4342 2.32024 22.3866C2.41589 22.262 2.59487 22.1669 2.73371 22.057C2.86022 21.957 2.86323 21.9586 3.20263 21.8815C3.36307 21.8455 3.41861 21.6602 3.28285 21.606C3.11932 21.5404 2.94658 21.4798 2.77996 21.4174C2.63495 21.4224 2.48688 21.4667 2.34804 21.3929C2.24005 21.3371 2.11661 21.2994 1.93765 21.3207C1.63528 21.3568 1.32675 21.3748 1.02129 21.4043C0.916387 21.4142 0.802193 21.4076 0.755912 21.3519C0.725058 21.3125 0.814541 21.2584 0.91636 21.2469C1.07063 21.2305 1.20946 21.2108 1.28659 21.1288C1.36064 21.0469 1.49639 21.0222 1.65683 21.0108C1.70003 21.0075 1.74943 20.9878 1.77103 20.9681C1.8821 20.873 2.00553 20.791 2.2431 20.7943C2.34184 20.7615 2.39426 20.7205 2.3634 20.6811C2.34489 20.6598 2.28013 20.632 2.2431 20.6352C1.98701 20.6516 1.73093 20.668 1.48102 20.6976C1.36377 20.7107 1.27424 20.7139 1.20019 20.6647C1.14774 20.6319 1.17551 20.5877 1.27424 20.5401C1.36063 20.4991 1.38534 20.4516 1.37917 20.3958C1.36375 20.2663 1.27116 20.2285 0.974965 20.2367C0.762071 20.2433 0.709616 20.222 0.663335 20.1105C0.650993 20.0842 0.620193 20.0482 0.641791 20.0301C0.774464 19.9186 0.860862 19.7809 1.11078 19.7284C1.20951 19.7087 1.31438 19.7087 1.37608 19.6661C1.43779 19.6234 1.49336 19.5742 1.55815 19.5332C1.63837 19.484 1.69386 19.4381 1.65683 19.407C1.59512 19.3512 1.49642 19.3463 1.38226 19.366C1.28353 19.3824 1.17863 19.384 1.07681 19.3938C0.894768 19.4119 0.746701 19.3692 0.725103 19.2971C0.66648 19.1069 0.604754 18.9183 0.552302 18.7281C0.546131 18.7051 0.561516 18.6756 0.586199 18.6559C0.672591 18.587 0.76519 18.5214 0.854667 18.4542C0.959571 18.3771 1.12621 18.3919 1.26814 18.3771C1.46869 18.3558 1.46862 18.3574 1.73705 18.2C1.84196 18.1377 2.02401 18.1623 2.132 18.1065C2.16594 18.0885 2.21839 18.059 2.20913 18.0426C2.19679 18.0213 2.13511 18.0049 2.08883 17.995C2.04564 17.9852 1.9932 17.9803 1.94692 17.9852C1.38537 18.0327 0.826925 18.0836 0.265379 18.1295C0.169731 18.1377 0.0648239 18.1016 0.0308843 18.0508C-0.00305529 18.0032 0.00617083 17.9458 0 17.8917C0.0894771 17.8245 0.191257 17.7622 0.268392 17.69C0.327015 17.6342 0.394906 17.6096 0.512152 17.6064C0.666423 17.6014 0.817624 17.5818 0.990407 17.567C1.31129 17.3276 1.62598 17.0767 1.97155 16.8373C2.11039 16.7405 2.07651 16.6421 2.10428 16.5388C2.13204 16.4437 2.33876 16.4585 2.4776 16.4306C2.58867 16.4076 2.62565 16.3551 2.58246 16.3191C2.55777 16.2977 2.50226 16.2731 2.45907 16.2731C2.35725 16.2731 2.25543 16.2879 2.15362 16.2961C2.0518 16.3043 1.93456 16.2994 1.85125 16.3273C1.77103 16.3535 1.71855 16.4092 1.6661 16.4568C1.60747 16.5093 1.53039 16.5273 1.41315 16.5306C1.26196 16.5339 1.11078 16.5486 0.959598 16.5601C0.792985 16.4962 0.620166 16.4339 0.459724 16.3666C0.42887 16.3535 0.422666 16.3158 0.425751 16.2912C0.431922 16.2272 0.385653 16.1879 0.283834 16.1567C0.197443 16.1305 0.126472 16.0928 0.0462511 16.06C0.107959 16.0157 0.175863 15.973 0.225229 15.9255C0.333219 15.8255 0.468993 15.7533 0.703484 15.7566C0.796047 15.6926 0.870076 15.6139 0.990407 15.5696C1.10457 15.527 1.29896 15.5696 1.38535 15.4729C1.42855 15.4253 1.49338 15.3712 1.57668 15.3515C1.70935 15.3204 1.88213 15.3368 1.95927 15.2449C2.00555 15.1925 2.0734 15.1449 2.16288 15.1318C2.2647 15.117 2.36958 15.1138 2.44363 15.0826C2.48374 15.0662 2.52694 15.04 2.52694 15.017C2.52694 15.0022 2.46528 14.9793 2.42208 14.9694C2.38197 14.958 2.32946 14.9498 2.28318 14.953C2.12891 14.9629 1.97773 14.9809 1.82345 14.9908C1.78026 14.994 1.73091 14.9826 1.68463 14.9727C1.54887 14.9465 1.55811 14.9137 1.6661 14.8547C1.77408 14.7973 1.85126 14.7235 1.94074 14.6562C2.03947 14.6447 2.16287 14.6497 2.23075 14.6185C2.34491 14.5677 2.42511 14.4939 2.51767 14.4299C2.61949 14.4201 2.72439 14.4168 2.82004 14.3988C2.86015 14.3922 2.87868 14.3561 2.91262 14.3348C2.97432 14.2938 3.02682 14.2348 3.11012 14.2151C3.24588 14.1856 3.41249 14.1971 3.49271 14.1069C3.53899 14.0544 3.60993 13.9986 3.69632 13.9954C3.93699 13.9888 4.03881 13.8986 4.16223 13.8133C4.25479 13.7494 4.45226 13.7822 4.55408 13.7182C4.62196 13.6772 4.67136 13.6264 4.73923 13.587C4.767 13.5706 4.8256 13.5624 4.87189 13.5575C5.12489 13.5329 5.38097 13.5149 5.63398 13.4886C5.67409 13.4837 5.71114 13.4591 5.74199 13.4394C5.80679 13.3968 5.84685 13.3378 5.92707 13.3099C6.0073 13.282 6.12144 13.282 6.22017 13.2738C6.53797 13.2492 6.56268 13.2558 6.70769 13.1164C6.82494 13.0032 7.11192 13.0836 7.20757 12.9589C7.26311 12.8868 7.36488 12.8278 7.54692 12.8196C7.80301 12.8081 8.05601 12.7769 8.3121 12.7556C8.54042 12.7359 8.53734 12.7359 8.78417 12.5834C8.89525 12.5145 9.05881 12.5244 9.20382 12.5113C9.3581 12.4981 9.50001 12.4785 9.57406 12.3965C9.64811 12.3161 9.78385 12.2899 9.94121 12.2784C10.0862 12.2669 10.2498 12.2751 10.3639 12.2095C10.6416 12.0521 10.6386 12.0504 10.8329 12.034C11.1384 12.0078 11.4438 11.9816 11.7493 11.9537C11.9529 11.9357 12.1658 11.9324 12.3571 11.8963C12.496 11.8701 12.5576 11.7782 12.6471 11.7143C12.9001 11.6897 13.1531 11.6651 13.4061 11.6421C13.7609 11.6093 14.1188 11.5798 14.4768 11.5486C14.631 11.4863 14.6527 11.3486 14.9118 11.342C15.0661 11.3387 15.2173 11.3174 15.3716 11.3043C15.6277 11.2813 15.8807 11.2518 16.1367 11.2403C16.3311 11.2322 16.365 11.1436 16.4668 11.0878C16.5008 11.0682 16.5317 11.0403 16.5718 11.0354C16.9729 10.9894 17.3863 10.9796 17.7781 10.9124C17.8182 10.9058 17.8553 10.8714 17.8645 10.8468C17.8707 10.8337 17.8183 10.8091 17.7843 10.7976C17.7442 10.7845 17.6918 10.7713 17.6486 10.7746C16.3743 10.8845 15.1001 10.996 13.8258 11.1059C13.6468 11.1223 13.6468 11.1206 13.2118 11.301C13.1748 11.3158 13.1315 11.3322 13.0852 11.3371C12.8816 11.3568 12.6749 11.3683 12.4743 11.3929C12.3108 11.4125 12.1751 11.3928 12.0578 11.3338C11.9745 11.2912 11.8881 11.2781 11.7832 11.2813C11.6659 11.2863 11.5889 11.3043 11.521 11.3486C11.4315 11.4093 11.3852 11.488 11.197 11.5044C10.33 11.5749 9.46294 11.6536 8.59902 11.729C8.47869 11.7061 8.42007 11.6716 8.45092 11.6306C8.46944 11.606 8.50648 11.5732 8.5435 11.57C8.89833 11.5355 9.25622 11.506 9.61104 11.4732C9.66041 11.4683 9.72828 11.4716 9.75605 11.4552C9.89181 11.3814 9.94123 11.2617 10.1973 11.2535C10.3454 11.2485 10.4966 11.224 10.6385 11.201C10.6786 11.1944 10.7157 11.16 10.7249 11.1354C10.728 11.1223 10.6786 11.0977 10.6416 11.0862C10.5058 11.0386 10.3485 11.096 10.2128 11.0633C10.1665 11.0518 10.1016 11.0354 10.0924 11.0157C10.0862 10.9976 10.1387 10.9681 10.1757 10.9501C10.2096 10.9337 10.2559 10.9189 10.3022 10.914C10.7095 10.8763 11.1168 10.8369 11.5241 10.8074C11.6907 10.7959 11.8079 10.7549 11.8819 10.6795C11.9375 10.6237 12.0054 10.5942 12.1103 10.586C12.823 10.5254 13.5357 10.4581 14.2515 10.4024C14.4305 10.3893 14.5231 10.3351 14.5971 10.2646C14.6558 10.2089 14.7236 10.1892 14.8378 10.1794C15.8591 10.0941 16.8741 9.99897 17.8954 9.91698C18.0836 9.90222 18.1392 9.8317 18.2348 9.77102C18.2688 9.7497 18.2903 9.72347 18.3335 9.71035C18.3767 9.69723 18.4323 9.69885 18.4847 9.69557C19.2993 9.62506 20.1139 9.54964 20.9315 9.48404C21.1228 9.46929 21.1598 9.38728 21.2585 9.32988C21.2924 9.31185 21.3233 9.28234 21.3634 9.27742C21.9743 9.22166 22.5852 9.16919 23.1961 9.11507C23.6034 9.07899 24.0107 9.04291 24.418 9.00847C24.6185 8.99207 24.6185 8.99043 24.89 8.83464C24.9209 8.8166 24.9641 8.79528 25.0042 8.79036C26.1767 8.6854 27.346 8.58539 28.5185 8.48208C28.6172 8.47388 28.6882 8.43614 28.7375 8.38039C28.7869 8.32463 28.8579 8.28691 28.9536 8.27871C29.87 8.19672 30.7863 8.11637 31.7058 8.0393C31.8724 8.02618 31.9896 7.98682 32.0636 7.91302C32.1192 7.85727 32.187 7.82776 32.292 7.81956C33.2083 7.74085 34.1247 7.6572 35.0442 7.58177C35.2201 7.56701 35.3064 7.51126 35.3928 7.44566C35.4237 7.4227 35.4484 7.38498 35.4854 7.3817C35.942 7.33579 36.3956 7.28823 36.8553 7.25707C37.0466 7.24395 37.1114 7.17507 37.1885 7.10948C37.2503 7.057 37.3212 7.03897 37.4385 7.03241C37.6946 7.01765 37.9476 6.98978 38.1975 6.96191C38.2345 6.95698 38.2808 6.92091 38.2839 6.89795C38.2901 6.85531 38.2191 6.82579 38.1018 6.81103C36.88 6.91762 35.6551 7.02421 34.4333 7.1308C34.2327 7.14884 34.2327 7.14885 33.9612 7.30463C33.9304 7.32267 33.8871 7.344 33.8439 7.34891C32.6715 7.45223 31.5021 7.5539 30.3297 7.65721C30.2309 7.66541 30.16 7.70313 30.1106 7.75888C30.0612 7.81464 29.9902 7.85236 29.8946 7.86056C28.7746 7.95895 27.6546 8.05899 26.5315 8.15246C26.3649 8.16558 26.2477 8.20328 26.1736 8.27871C26.1181 8.33447 26.0502 8.364 25.9453 8.3722C24.8747 8.46403 23.8071 8.56078 22.7333 8.64933C22.6253 8.65753 22.5452 8.60997 22.5513 8.56569C22.5544 8.54274 22.6006 8.50504 22.6377 8.50176C23.1961 8.44764 23.7516 8.39188 24.3131 8.35088C24.5013 8.33776 24.5568 8.2656 24.6525 8.20493C24.6833 8.18361 24.708 8.15573 24.7481 8.14425C24.7913 8.13113 24.8469 8.13278 24.8993 8.1295C26.2229 8.01307 27.5466 7.895 28.8734 7.78513C29.0647 7.76873 29.1016 7.68837 29.2004 7.63097C29.2343 7.61129 29.2652 7.58178 29.3053 7.5785C29.7126 7.53914 30.1198 7.5047 30.5271 7.47026C31.2398 7.40795 31.9525 7.34563 32.6684 7.28332C32.8751 7.26528 32.8751 7.26527 33.1404 7.11112C33.1713 7.09308 33.2145 7.07014 33.2546 7.06686C35.1398 6.90123 37.025 6.7356 38.9102 6.57161C39.009 6.56341 39.0799 6.5257 39.1293 6.46994C39.1787 6.41582 39.2496 6.37647 39.3452 6.36663C41.8938 6.1436 44.4393 5.92057 46.9878 5.70083C47.1544 5.68607 47.2717 5.65163 47.3457 5.57455C47.3982 5.5188 47.4691 5.48928 47.574 5.47945C50.3756 5.2351 53.1772 4.99076 55.9818 4.74478C57.867 4.58079 59.7522 4.41353 61.6374 4.25282C61.8102 4.23806 61.9027 4.18721 61.9891 4.11998C62.0169 4.09702 62.0446 4.0593 62.0817 4.05602C62.4859 4.01502 62.89 3.97731 63.2942 3.93959C63.4207 3.98387 63.5472 4.02652 63.6737 4.07079C63.7694 4.00848 63.862 3.94452 63.9576 3.8822C64.5685 3.83465 65.1702 3.76085 65.7873 3.73789C65.8274 3.73625 65.8705 3.76741 65.9137 3.78381C66.2007 3.88713 66.3642 3.87892 66.5463 3.74117C66.6111 3.69198 66.6666 3.6477 66.7653 3.6395C67.0708 3.60999 67.3794 3.5903 67.6817 3.55587C67.8453 3.53783 67.981 3.55422 68.0982 3.61326C68.1815 3.6559 68.268 3.67394 68.3698 3.66411C68.9313 3.61491 69.4898 3.56735 70.0513 3.51487C70.0914 3.51159 70.1284 3.4837 70.1593 3.46402C70.2241 3.42139 70.2796 3.37548 70.3413 3.3312C70.4246 3.35908 70.5172 3.3804 70.5851 3.41648C70.6715 3.45912 70.7517 3.45911 70.8689 3.44763C73.1089 3.2492 75.3521 3.0557 77.5921 2.85563C77.7834 2.83924 77.8667 2.90812 77.9963 2.94419C78.0395 2.95731 78.0826 2.9737 78.1289 2.97698C78.1783 2.98026 78.2308 2.97043 78.2801 2.96551C79.9617 2.81792 81.6432 2.67196 83.3248 2.52438C83.547 2.5047 83.547 2.5047 83.8771 2.60637C83.9172 2.61949 83.9697 2.63425 84.0128 2.62933C84.778 2.56537 85.5432 2.49651 86.3053 2.43091C86.404 2.42271 86.4874 2.44894 86.5768 2.48666C86.7527 2.56046 86.765 2.56046 86.8946 2.45223C86.9563 2.40139 87.0211 2.37022 87.1229 2.35546C87.234 2.33906 87.3235 2.344 87.4099 2.37352C87.5333 2.41452 87.6228 2.48338 87.811 2.46534C88.6256 2.38827 89.4432 2.32432 90.2546 2.2456C90.4398 2.22756 90.5385 2.28332 90.6619 2.32431C90.7051 2.33907 90.7452 2.36203 90.7915 2.36695C90.8378 2.37187 90.8933 2.36038 90.9427 2.35546C91.9609 2.26691 92.9821 2.18001 93.9972 2.0849C94.1885 2.06686 94.2718 2.13736 94.4014 2.17344C94.4446 2.18656 94.494 2.20953 94.5341 2.20625C95.145 2.15541 95.759 2.10128 96.37 2.04716C96.589 2.02749 96.589 2.02913 96.9222 2.12916C96.9623 2.14228 97.0148 2.1554 97.058 2.15212C97.7707 2.09144 98.4865 2.02913 99.1993 1.96681C99.4183 1.94713 99.4183 1.94714 100.051 2.03241C100.097 2.03897 100.146 2.04882 100.193 2.04554C101.007 1.97503 101.825 1.90614 102.639 1.83071C102.803 1.81595 102.939 1.82906 103.056 1.8881C103.139 1.93074 103.226 1.94879 103.328 1.93895C104.244 1.85859 105.163 1.78152 106.077 1.69625C106.253 1.67985 106.367 1.71591 106.49 1.76347C106.53 1.77987 106.57 1.80283 106.617 1.80939C106.663 1.81595 106.715 1.80938 106.765 1.80446C107.681 1.72411 108.601 1.64868 109.514 1.56177C109.699 1.54373 109.798 1.59948 109.921 1.64048C109.964 1.65524 110.011 1.68476 110.048 1.68312C110.405 1.65524 110.763 1.63065 111.118 1.58965C111.309 1.56669 111.393 1.64211 111.522 1.67819C111.566 1.68967 111.615 1.71428 111.655 1.711C112.42 1.64704 113.185 1.57981 113.948 1.51094C114.056 1.5011 114.136 1.51585 114.222 1.55848C114.336 1.61588 114.469 1.63884 114.636 1.6208C114.99 1.58308 115.348 1.55685 115.706 1.52569C115.916 1.50765 115.916 1.50766 116.558 1.59293C116.604 1.59949 116.653 1.60933 116.7 1.60605C117.311 1.55357 117.925 1.50274 118.532 1.44534C118.696 1.42894 118.832 1.4437 118.949 1.50273C119.032 1.54537 119.116 1.56342 119.22 1.55358C119.782 1.50438 120.341 1.45518 120.902 1.40598C121.106 1.38795 121.309 1.35678 121.513 1.35678C121.661 1.35842 121.769 1.43713 121.902 1.47649C121.939 1.48797 122.001 1.47486 122.05 1.47158C122.763 1.40927 123.478 1.35187 124.188 1.28135C124.373 1.26331 124.472 1.31907 124.595 1.36006C124.639 1.37482 124.685 1.40434 124.722 1.4027C124.978 1.38466 125.231 1.36006 125.487 1.33874C125.792 1.31251 126.101 1.29283 126.403 1.25675C126.65 1.22723 126.743 1.3699 126.94 1.37482C127.091 1.37974 127.246 1.35186 127.397 1.33874C127.702 1.31251 128.008 1.28299 128.313 1.26003C128.421 1.25183 128.505 1.22558 128.539 1.16655C128.545 1.15507 128.492 1.13048 128.458 1.11572C128.048 0.948455 128.048 0.948447 127.634 0.984524C127.378 1.00748 127.125 1.03044 126.869 1.05012C126.826 1.0534 126.777 1.04028 126.734 1.03045C126.61 1.00257 126.622 0.969773 126.727 0.910737C126.832 0.851701 126.912 0.779553 127.002 0.712318C127.128 0.754955 127.252 0.797577 127.378 0.840214C127.48 0.832014 127.582 0.822189 127.684 0.81399C128.193 0.771353 128.702 0.727073 129.211 0.687716C129.248 0.684436 129.294 0.717238 129.338 0.733637C129.461 0.781194 129.572 0.82218 129.751 0.804141C130.208 0.756584 130.667 0.722147 131.124 0.68115C131.325 0.663111 131.325 0.663113 131.676 0.764785C131.716 0.776265 131.769 0.789384 131.812 0.786105C132.272 0.748387 132.728 0.707395 133.188 0.668038C133.287 0.659839 133.383 0.681156 133.454 0.728713C133.481 0.748391 133.475 0.781183 133.592 1.05012C133.956 1.26823 134.206 1.24528 134.459 1.2256C134.567 1.2174 134.663 1.20919 134.734 1.1764C134.771 1.15836 134.817 1.13212 134.817 1.1108C134.817 1.0944 134.749 1.06816 134.706 1.06488C134.401 1.03208 134.111 1.10096 133.811 1.11572C133.673 1.12228 133.552 1.06489 133.528 0.971412C133.521 0.945174 133.512 0.917298 133.503 0.891059C133.494 0.864821 133.488 0.836945 133.478 0.810707C133.358 0.802507 133.287 0.832021 133.235 0.887776C133.191 0.933693 133.13 0.986169 133.046 1.01077C132.963 1.03701 132.849 1.03209 132.747 1.04029C132.648 1.04849 132.54 1.06981 132.448 1.05833C132.355 1.04521 132.281 0.997647 132.195 0.968129C132.155 0.95337 132.105 0.93206 132.065 0.935339C131.71 0.963217 131.359 0.991085 131.007 1.02716C130.822 1.04684 130.729 0.977976 130.612 0.935339C130.519 0.902542 130.427 0.910731 130.411 0.986165C130.371 1.16655 130.513 1.24198 130.828 1.20755C131.087 1.17803 131.322 1.17312 131.525 1.28464C131.553 1.29939 131.618 1.30595 131.658 1.30267C131.911 1.28299 132.161 1.25839 132.414 1.23871C132.46 1.23543 132.509 1.24198 132.553 1.24854C133.182 1.3371 133.182 1.33874 133.395 1.31907C133.497 1.30923 133.595 1.30103 133.586 1.05176C133.781 0.784464 134.089 0.766428 134.388 0.727071C134.583 0.702473 134.666 0.774631 134.793 0.812348C134.836 0.825467 134.882 0.851701 134.922 0.848421C135.586 0.794305 136.246 0.736901 136.906 0.676225C137.017 0.666386 137.097 0.676227 137.184 0.718864C137.295 0.77298 137.418 0.807425 137.594 0.787746C137.946 0.748389 138.304 0.723796 138.662 0.690999C138.844 0.6746 138.844 0.674583 139.211 0.776256C139.251 0.787735 139.303 0.800855 139.347 0.797575C139.705 0.769697 140.059 0.73527 140.414 0.705752C140.513 0.697553 140.602 0.720509 140.68 0.764785C140.757 0.809062 140.849 0.832018 140.945 0.823819C141.303 0.794301 141.658 0.761514 142.013 0.731996C142.056 0.728716 142.108 0.740194 142.148 0.751674C142.525 0.853346 142.525 0.853329 142.697 0.836931C142.95 0.812332 143.21 0.800866 143.46 0.768068C143.703 0.735271 143.83 0.830376 143.996 0.882852C144.453 0.845135 144.913 0.813985 145.366 0.768068C145.551 0.74839 145.65 0.802501 145.774 0.845138C145.817 0.859897 145.86 0.891058 145.9 0.889418C146.054 0.882858 146.206 0.864823 146.357 0.851704C146.508 0.838585 146.662 0.825467 146.813 0.812348C146.986 0.859905 147.1 0.971415 147.347 0.933698C147.495 0.91074 147.653 0.90582 147.804 0.892701C147.955 0.879582 148.109 0.866464 148.26 0.853345C148.362 0.845146 148.467 0.840219 148.566 0.82546C148.748 0.800862 148.837 0.881226 148.967 0.917303C149.01 0.928782 149.06 0.948448 149.1 0.945168C149.405 0.92221 149.714 0.902533 150.013 0.864816C150.244 0.835298 150.402 0.884501 150.565 0.953376C150.599 0.968135 150.658 0.976333 150.701 0.973054C151.059 0.945176 151.414 0.910728 151.769 0.881211C151.864 0.873011 151.957 0.899248 152.034 0.941885C152.114 0.986162 152.204 1.0075 152.302 0.999297C152.657 0.969779 153.015 0.936972 153.37 0.907454C153.413 0.904175 153.466 0.917296 153.506 0.930415C153.851 1.03209 153.851 1.03373 154.055 1.01405C154.104 1.00913 154.157 1.00584 154.206 1.00092C154.459 0.97796 154.721 0.969772 154.968 0.930415C155.252 0.886138 155.459 0.941897 155.659 1.03537C155.912 1.01569 156.171 1.00421 156.418 0.971412C156.603 0.946814 156.702 1.00913 156.826 1.05012C156.869 1.06488 156.915 1.0944 156.952 1.09112C157.31 1.06324 157.668 1.03865 158.02 0.997656C158.211 0.974697 158.294 1.04848 158.424 1.0862C158.467 1.09931 158.513 1.12229 158.553 1.11901C158.757 1.10589 158.961 1.0862 159.164 1.06816C159.402 1.04684 159.402 1.04848 159.717 1.14851C159.865 1.19607 160.013 1.15835 160.158 1.14687C160.312 1.13375 160.457 1.12392 160.581 1.19115C160.658 1.23379 160.75 1.26003 160.846 1.25347C161.05 1.23871 161.256 1.22396 161.457 1.19936C161.617 1.17968 161.756 1.19279 161.873 1.25347C161.957 1.2961 162.043 1.31744 162.145 1.3076C162.602 1.26824 163.061 1.22723 163.518 1.18951C163.558 1.18623 163.613 1.20099 163.651 1.21575C163.737 1.24527 163.82 1.27806 163.904 1.31086C164.104 1.2961 164.311 1.28956 164.508 1.2666C164.718 1.24364 164.909 1.23544 165.073 1.32563C165.107 1.34531 165.156 1.37317 165.196 1.37153C165.351 1.36497 165.502 1.34858 165.653 1.33546C165.804 1.32234 165.958 1.30922 166.11 1.29611C166.285 1.3371 166.397 1.45517 166.643 1.41746C166.792 1.3945 166.949 1.38958 167.1 1.37646C167.251 1.36334 167.406 1.34858 167.557 1.3371C167.606 1.33382 167.662 1.32562 167.705 1.33218C167.751 1.33874 167.791 1.3617 167.831 1.3781C167.955 1.42566 168.069 1.47322 168.245 1.44534C168.393 1.42238 168.55 1.41746 168.701 1.4027C168.908 1.38466 168.908 1.38467 169.251 1.48798C169.389 1.53062 169.547 1.47486 169.679 1.51094C169.769 1.53554 169.846 1.57653 169.932 1.6044C169.969 1.61588 170.028 1.6208 170.071 1.61752C170.275 1.60276 170.482 1.58801 170.682 1.56341C170.846 1.54373 170.982 1.5634 171.096 1.62244C171.179 1.66508 171.262 1.68313 171.367 1.67329C171.876 1.62737 172.385 1.588 172.891 1.53716C173.064 1.51912 173.203 1.54701 173.299 1.60605C173.462 1.70772 173.694 1.58801 173.863 1.67C173.968 1.72084 174.073 1.77988 174.264 1.75528C174.616 1.71264 174.974 1.68967 175.329 1.66015C175.455 1.70443 175.582 1.74872 175.711 1.79299C175.915 1.77496 176.119 1.75691 176.322 1.74051C176.474 1.72739 176.628 1.71263 176.779 1.70115C176.828 1.69787 176.881 1.69131 176.927 1.69951C176.973 1.70771 177.01 1.72903 177.054 1.74543C177.267 1.82579 177.266 1.82743 177.618 1.79464C177.769 1.77988 177.914 1.77004 178.041 1.83563C178.158 1.89631 178.297 1.90778 178.457 1.88974C178.76 1.85694 179.065 1.83235 179.374 1.80939C179.47 1.80119 179.559 1.82907 179.639 1.87171C179.759 1.93894 179.908 1.93238 180.059 1.91434C180.259 1.89139 180.457 1.86843 180.626 1.96027C180.66 1.97994 180.713 2.00781 180.75 2.00617C181.003 1.99305 181.259 1.98322 181.506 1.95206C181.753 1.9209 181.873 2.02257 182.043 2.07177C182.296 2.05045 182.552 2.02913 182.805 2.00781C182.854 2.00289 182.913 1.98814 182.956 1.99634C183.138 2.03078 183.243 2.15376 183.493 2.11605C183.638 2.09473 183.795 2.08818 183.946 2.08326C183.987 2.08162 184.039 2.10948 184.067 2.1308C184.082 2.14228 184.067 2.17343 184.048 2.18983C183.993 2.23575 183.925 2.2784 183.875 2.32596C183.869 2.33252 183.928 2.36202 183.962 2.37514C184.045 2.40466 184.141 2.39975 184.252 2.38663C184.348 2.37515 184.446 2.39811 184.514 2.44731C184.542 2.46698 184.533 2.49978 184.474 2.60801C184.474 2.68836 184.539 2.65228 184.56 2.5998C184.594 2.52437 184.53 2.49977 184.406 2.54077C184.32 2.57029 184.277 2.61293 184.298 2.64737C184.311 2.66541 184.369 2.68836 184.474 2.60801C184.746 2.50962 184.949 2.49159 185.153 2.47355C185.205 2.46863 185.267 2.45222 185.304 2.46206C185.437 2.50142 185.56 2.54898 185.69 2.59326C185.838 2.58342 185.977 2.55881 186.122 2.62276C186.325 2.71296 186.335 2.70476 186.532 2.68672C186.634 2.67688 186.736 2.6687 186.837 2.6605C186.939 2.6523 187.019 2.67689 187.109 2.71461C187.291 2.79168 187.306 2.79167 187.427 2.68672C187.498 2.62277 187.547 2.60145 187.637 2.63097C187.933 2.731 187.936 2.73756 188.189 2.70804C188.399 2.68344 188.596 2.67688 188.75 2.77036C188.855 2.83595 188.889 2.8212 188.973 2.75232C189.195 2.57029 189.296 2.57357 189.713 2.70476C189.907 2.76707 190.108 2.69985 190.305 2.69165C190.472 2.68509 190.589 2.72444 190.602 2.82775C190.611 2.8917 190.639 2.93763 190.75 2.95895C190.793 2.96715 190.845 2.97862 190.889 2.97534C191.145 2.95566 191.398 2.9327 191.654 2.90974C191.783 2.89826 191.854 2.8212 191.83 2.71953C191.802 2.6113 191.851 2.57193 192.036 2.54077C192.147 2.52273 192.237 2.52603 192.326 2.55554C192.425 2.58834 192.397 2.61786 192.311 2.67689C192.104 2.8212 192.129 2.90974 192.394 3.00977C192.487 3.04421 192.561 3.07538 192.582 3.12622C192.595 3.15246 192.583 3.18689 192.61 3.20657C192.761 3.31644 192.971 3.38697 193.206 3.43944C193.431 3.39517 193.585 3.46895 193.758 3.52798C193.894 3.5739 194.054 3.53455 194.199 3.51815C194.363 3.50011 194.499 3.51323 194.616 3.5739C194.699 3.61654 194.785 3.63621 194.887 3.62801C195.091 3.60997 195.298 3.5985 195.498 3.57226C195.671 3.5493 195.801 3.58211 195.909 3.63786C196.044 3.70838 196.196 3.66081 196.337 3.67065C196.529 3.68213 196.624 3.82807 196.874 3.78872C197.022 3.76576 197.177 3.75756 197.331 3.751C197.371 3.74936 197.42 3.77725 197.454 3.79693C197.618 3.88712 197.809 3.8822 198.019 3.85596C198.164 3.83792 198.306 3.82153 198.448 3.88384C198.682 3.9888 198.942 4.08064 199.188 4.17739C199.222 4.25282 199.198 4.34136 199.373 4.38564C199.466 4.4086 199.552 4.44305 199.623 4.48076C199.71 4.52504 199.79 4.53652 199.901 4.52504C200.102 4.50208 200.312 4.49715 200.509 4.46763C200.691 4.44139 200.805 4.49553 200.916 4.54636C201.006 4.58736 201.089 4.60703 201.197 4.57751C201.308 4.54963 201.388 4.56766 201.478 4.61194C201.604 4.67262 201.614 4.66607 202.033 4.68411C202.076 4.68575 202.129 4.71033 202.153 4.73165C202.166 4.74313 202.138 4.77595 202.116 4.79234C202.089 4.81202 202.045 4.83497 202.005 4.83989C201.549 4.88252 201.089 4.92024 200.632 4.96288C200.586 4.9678 200.537 4.97929 200.503 4.99569C200.466 5.01373 200.419 5.03831 200.419 5.06127C200.419 5.07767 200.481 5.09735 200.524 5.10883C200.66 5.14655 200.821 5.08915 200.953 5.13179C201.043 5.15967 201.117 5.19902 201.206 5.22526C201.243 5.23673 201.302 5.2351 201.348 5.23182C201.502 5.22034 201.654 5.20395 201.808 5.19411C201.851 5.19247 201.9 5.20887 201.941 5.22199C202.237 5.32039 202.237 5.32038 202.493 5.29906C202.595 5.29086 202.703 5.26626 202.798 5.2761C202.891 5.28594 202.971 5.33022 203.054 5.3581C203.227 5.41713 203.391 5.47453 203.403 5.60244C203.409 5.65163 203.511 5.69426 203.613 5.69754C203.712 5.70082 203.816 5.6828 203.918 5.67296C204.159 5.65328 204.159 5.65328 204.471 5.75331C204.557 5.78119 204.65 5.78446 204.761 5.76807C204.804 5.76151 204.856 5.76807 204.903 5.77627C205.054 5.80087 205.054 5.83202 204.955 5.89106C204.816 5.97797 204.828 5.98618 205.217 6.05997C205.365 6.08785 205.48 6.14033 205.603 6.18624C205.803 6.26004 205.8 6.26003 205.668 6.35678C205.637 6.3781 205.609 6.40106 205.578 6.42402C205.489 6.48797 205.418 6.55685 205.233 6.5634C205.029 6.56996 204.825 6.59621 204.622 6.61425C204.424 6.63229 204.372 6.67163 204.39 6.78314C204.412 6.91761 204.452 6.93238 204.807 6.93074C204.909 6.93074 204.998 6.94385 205.075 6.98813C205.038 7.0406 204.97 7.0816 204.872 7.09144C204.619 7.11604 204.363 7.13736 204.11 7.15868C203.906 7.17672 203.702 7.19475 203.499 7.21279C203.372 7.22427 203.292 7.30955 203.326 7.40466C203.344 7.45878 203.36 7.5129 203.375 7.56701C203.409 7.67524 203.474 7.70313 203.681 7.69821C203.733 7.69657 203.783 7.68344 203.832 7.68672C204.032 7.6982 204.128 7.83431 204.369 7.80643C204.569 7.78347 204.779 7.77855 204.977 7.74904C205.159 7.7228 205.26 7.78185 205.387 7.82613C205.43 7.84088 205.476 7.87203 205.514 7.87039C205.77 7.85235 206.026 7.83432 206.276 7.80316C206.393 7.79005 206.464 7.79988 206.556 7.83924C206.778 7.93435 206.785 7.92943 207.115 7.89991C207.355 7.87695 207.359 7.88023 207.667 7.98027C207.754 8.00814 207.846 8.00814 207.957 7.99502C208.102 7.97862 208.253 7.95238 208.405 7.97698C208.451 7.98354 208.509 8.00323 208.525 8.02455C208.534 8.0393 208.491 8.07538 208.454 8.08686C208.182 8.17214 207.865 8.15738 207.568 8.19182C207.476 8.20166 207.383 8.17049 207.306 8.12622C207.226 8.08194 207.14 8.06391 207.035 8.07211C206.831 8.09015 206.624 8.10162 206.424 8.12786C206.251 8.15082 206.131 8.1131 206.01 8.06226C205.97 8.04586 205.924 8.0147 205.884 8.01634C205.427 8.04914 204.967 8.08194 204.514 8.12786C204.332 8.14754 204.227 8.09507 204.103 8.05079C204.06 8.03603 204.017 8.00487 203.977 8.00651C203.823 8.01307 203.672 8.0311 203.517 8.04422C202.956 8.09342 202.397 8.14262 201.836 8.18853C201.799 8.19181 201.752 8.15737 201.709 8.14261C201.626 8.11309 201.539 8.08521 201.453 8.05733C201.299 8.07045 201.148 8.08685 200.993 8.09669C200.882 8.10325 200.784 8.12622 200.768 8.18853C200.759 8.22953 200.861 8.26724 200.969 8.26396C201.074 8.26068 201.178 8.241 201.265 8.26232C201.694 8.36727 201.694 8.36892 201.962 8.3476C202.197 8.32792 202.172 8.31151 202.379 8.40171C202.468 8.44106 202.548 8.46403 202.65 8.45419C202.903 8.43123 203.159 8.40827 203.415 8.38859C203.456 8.38531 203.508 8.40172 203.548 8.41484C203.85 8.51323 203.85 8.51651 204.1 8.49191C204.427 8.46239 204.44 8.45419 204.659 8.55422C204.81 8.6231 204.949 8.57554 205.094 8.57226C205.26 8.63622 205.443 8.69362 205.594 8.76577C205.773 8.85105 205.961 8.83627 206.164 8.81168C206.316 8.79364 206.464 8.78708 206.587 8.85431C206.704 8.91663 206.846 8.9232 207.007 8.9068C207.152 8.89204 207.3 8.86088 207.451 8.89695C207.491 8.90679 207.553 8.9314 207.55 8.94616C207.547 8.96912 207.507 9.00192 207.467 9.01176C207.183 9.07899 206.871 9.07735 206.572 9.1085C206.532 9.11342 206.479 9.09538 206.439 9.08226C206.353 9.05274 206.269 9.01831 206.186 8.98715C206.035 8.99699 205.881 9.00027 205.733 9.01994C205.618 9.0347 205.532 9.03308 205.449 8.99372C205.372 8.95764 205.288 8.91336 205.196 8.90188C205.103 8.8904 204.995 8.915 204.893 8.92484C204.792 8.93468 204.674 8.92975 204.594 8.95599C204.514 8.98222 204.464 9.03963 204.412 9.08554C204.353 9.13638 204.273 9.15279 204.156 9.15771C204.048 9.16263 203.962 9.15606 203.881 9.11015C203.847 9.09047 203.801 9.0757 203.755 9.06258C203.712 9.0511 203.662 9.03306 203.622 9.03634C203.162 9.07406 202.706 9.11507 202.246 9.15443C202.018 9.1741 202.021 9.17409 201.546 9.07734C201.502 9.06914 201.45 9.05766 201.407 9.06094C201.151 9.08062 200.898 9.10358 200.642 9.12654C200.382 9.1495 200.386 9.14622 199.944 9.0429C199.864 9.02323 199.747 9.04947 199.651 9.04619C199.451 9.03799 199.352 8.90024 199.117 8.92648C198.917 8.94944 198.707 8.95435 198.506 8.98387C198.324 9.01011 198.22 8.95272 198.096 8.90844C198.053 8.89368 198.007 8.86088 197.97 8.86416C197.51 8.90024 197.053 8.94124 196.442 8.94616C196.291 8.94616 196.359 8.9806 196.458 8.99208C196.6 9.01012 196.646 8.97568 196.569 8.91008C196.513 8.86417 196.433 8.84119 196.368 8.85267C196.334 8.85923 196.291 8.8904 196.442 8.94616C196.603 9.00847 196.594 9.0429 196.621 9.06258C196.689 9.11014 196.785 9.12982 196.884 9.12326C197.038 9.11178 197.189 9.09538 197.343 9.08554C197.387 9.08226 197.439 9.09374 197.479 9.10686C197.818 9.20854 197.822 9.2151 198.183 9.17575C198.297 9.16427 198.38 9.16427 198.469 9.19542C198.593 9.23806 198.682 9.3102 198.871 9.28725C199.121 9.25609 199.377 9.23806 199.633 9.22003C199.673 9.21675 199.716 9.24626 199.762 9.25938C199.889 9.29874 199.981 9.37253 200.17 9.34137C200.315 9.31678 200.472 9.3102 200.626 9.30528C200.666 9.30364 200.728 9.32989 200.746 9.3512C200.784 9.38892 200.737 9.43321 200.632 9.46437C200.589 9.47748 200.531 9.4742 200.481 9.47912C200.278 9.49716 200.074 9.51683 199.87 9.53159C199.762 9.53979 199.66 9.5644 199.648 9.62507C199.639 9.66607 199.75 9.70214 199.855 9.69886C200.009 9.69394 200.163 9.68082 200.311 9.6595C200.574 9.62342 200.802 9.63326 201.015 9.73657C201.166 9.80873 201.157 9.7825 201.317 9.99569C201.357 10.0498 201.478 10.0547 201.583 10.0514C201.836 10.0432 201.953 10.0678 201.931 10.1187C201.904 10.181 201.814 10.2007 201.7 10.2089C201.496 10.222 201.293 10.2433 201.089 10.2613C201.04 10.2663 200.984 10.2761 200.938 10.2728C200.892 10.2695 200.848 10.2499 200.808 10.2351C200.722 10.2039 200.648 10.1564 200.555 10.1449C200.463 10.1334 200.355 10.158 200.253 10.1679C200.151 10.1761 200.043 10.2007 199.951 10.1892C199.858 10.1777 199.781 10.1285 199.697 10.099C199.657 10.0842 199.608 10.0613 199.568 10.0629C199.364 10.076 199.161 10.0974 198.957 10.1138C198.707 10.1351 198.707 10.1351 198.405 10.0334C198.318 10.0039 198.229 10.0055 198.115 10.0186C197.868 10.0449 197.865 10.04 197.414 9.94484C197.371 9.935 197.319 9.92353 197.275 9.92844C196.816 9.96616 196.359 10.0072 195.902 10.0465C195.511 10.0809 195.511 10.081 195.295 10.245C195.134 10.3663 195.131 10.3663 195.288 10.4221C195.415 10.468 195.529 10.5352 195.668 10.5598C195.797 10.5828 195.958 10.509 196.1 10.5844C196.171 10.6221 196.263 10.6631 196.353 10.6697C196.495 10.6779 196.646 10.6303 196.782 10.7025C196.85 10.7385 196.951 10.7763 197.038 10.7779C197.189 10.7812 197.343 10.7549 197.495 10.7435C197.541 10.7402 197.593 10.7402 197.636 10.7484C197.683 10.7582 197.723 10.7779 197.763 10.7943C197.886 10.8501 198.019 10.8763 198.179 10.8484C198.442 10.8025 198.676 10.8255 198.88 10.9304C198.908 10.9452 198.975 10.9468 199.019 10.9403C199.13 10.9239 199.225 10.9222 199.309 10.9534C199.343 10.9665 199.392 10.9894 199.386 11.0042C199.377 11.0288 199.34 11.0616 199.299 11.0698C199.009 11.1256 198.698 11.1321 198.399 11.1616C198.358 11.1649 198.309 11.1436 198.269 11.1288C198.183 11.0993 198.108 11.0501 198.016 11.0386C197.923 11.0272 197.815 11.0485 197.714 11.0567C197.612 11.0649 197.504 11.0895 197.411 11.0796C197.319 11.0682 197.232 11.0272 197.158 10.9911C197.072 10.9501 196.988 10.9452 196.874 10.9616C196.726 10.9829 196.572 10.9862 196.421 10.9977C196.337 10.9665 196.254 10.932 196.168 10.9025C196.128 10.8878 196.078 10.8697 196.035 10.8714C195.831 10.8845 195.628 10.9042 195.424 10.9222C195.22 10.9402 195.221 10.9403 194.875 10.8386C194.835 10.8271 194.782 10.814 194.739 10.8173C194.483 10.8369 194.23 10.8615 193.974 10.8812C193.875 10.8894 193.786 10.8664 193.706 10.8222C193.628 10.7779 193.536 10.7533 193.44 10.7615C193.033 10.7959 192.626 10.8287 192.218 10.8697C192.055 10.8861 191.916 10.8714 191.805 10.8123C191.675 10.7451 191.53 10.7615 191.379 10.7746C191.037 10.8074 191.034 10.8058 190.815 10.7221C190.771 10.7057 190.728 10.6746 190.688 10.6762C190.333 10.7008 189.975 10.7238 189.624 10.7631C189.438 10.7845 189.34 10.7271 189.216 10.6844C189.173 10.6697 189.127 10.6385 189.09 10.6418C188.834 10.6598 188.578 10.6762 188.328 10.709C188.078 10.7418 187.982 10.5893 187.794 10.591C187.538 10.5926 187.285 10.6303 187.032 10.6533C186.828 10.6713 186.625 10.6894 186.421 10.7074C186.217 10.7254 186.014 10.7402 185.81 10.7615C185.702 10.773 185.622 10.7582 185.532 10.7172C185.418 10.6631 185.282 10.6205 185.159 10.5713C184.971 10.5008 184.971 10.5008 184.742 10.5204C184.693 10.5254 184.641 10.5286 184.591 10.5336C184.218 10.5696 184.218 10.5664 183.743 10.463C183.721 10.4581 183.666 10.4762 183.644 10.4893C183.579 10.5319 183.521 10.5778 183.462 10.6221C183.379 10.5959 183.277 10.5811 183.221 10.5434C183.064 10.4368 182.817 10.5828 182.657 10.4778C182.598 10.4384 182.496 10.404 182.404 10.3942C182.308 10.3843 182.2 10.4073 182.101 10.4171C181.845 10.4417 181.845 10.4401 181.626 10.586C181.515 10.6582 181.355 10.6451 181.21 10.6615C181.058 10.6795 180.913 10.6893 180.787 10.6221C180.673 10.5614 180.534 10.5467 180.37 10.5664C180.17 10.591 179.963 10.6057 179.76 10.6205C179.716 10.6238 179.664 10.6156 179.621 10.6057C179.149 10.509 179.149 10.5073 178.92 10.5286C178.818 10.5385 178.714 10.5418 178.615 10.5565C178.448 10.5828 178.322 10.5483 178.201 10.4958C178.161 10.4794 178.115 10.4483 178.075 10.4499C177.871 10.4581 177.671 10.4729 177.47 10.4877C177.316 10.4991 177.162 10.5057 177.013 10.5286C176.767 10.5664 176.646 10.4598 176.477 10.4106C176.224 10.4319 175.968 10.4466 175.715 10.4762C175.597 10.4893 175.52 10.4844 175.431 10.445C175.317 10.3958 175.212 10.3401 175.026 10.3647C174.78 10.3975 174.52 10.4089 174.267 10.4286C174.098 10.3778 173.974 10.2745 173.731 10.3122C173.583 10.3351 173.425 10.34 173.274 10.3532C173.07 10.3712 172.867 10.3876 172.663 10.4073C172.444 10.427 172.447 10.4221 172.111 10.3253C171.916 10.2679 171.716 10.3319 171.518 10.3417C171.364 10.3499 171.287 10.4253 171.324 10.5221C171.361 10.6188 171.278 10.6943 171.136 10.7074C170.781 10.7385 170.423 10.7713 170.068 10.7992C170.025 10.8025 169.973 10.791 169.932 10.7795C169.553 10.6762 169.553 10.6779 169.383 10.6926C169.13 10.7172 168.871 10.7303 168.621 10.7615C168.448 10.7828 168.322 10.7484 168.211 10.6926C168.124 10.65 168.044 10.6402 167.933 10.65C166.711 10.7599 165.489 10.8615 164.271 10.9747C164.089 10.9911 163.984 10.9435 163.86 10.8993C163.817 10.8845 163.777 10.8533 163.734 10.8533C163.632 10.8533 163.53 10.8681 163.428 10.8779C162.972 10.9173 162.515 10.9649 162.055 10.9944C161.861 11.0075 161.809 11.0829 161.725 11.1452C161.66 11.1928 161.586 11.2125 161.472 11.219C161.361 11.2256 161.281 11.2174 161.195 11.1748C161.083 11.119 160.957 11.0846 160.784 11.1075C160.584 11.1337 160.38 11.1452 160.173 11.1633C160.068 11.1715 159.988 11.201 159.954 11.26C159.948 11.2699 160.013 11.2945 160.05 11.3092C160.173 11.3584 160.291 11.4158 160.429 11.4503C160.571 11.4847 160.726 11.4453 160.874 11.4355C160.926 11.4322 160.975 11.4224 161.025 11.424C161.071 11.4257 161.127 11.4339 161.161 11.4486C161.321 11.5224 161.491 11.5732 161.713 11.529C161.904 11.5503 162.003 11.6864 162.247 11.6503C162.395 11.629 162.549 11.6192 162.703 11.611C162.743 11.6093 162.787 11.6388 162.83 11.6536C162.953 11.6946 163.052 11.7602 163.237 11.7323C163.435 11.7028 163.644 11.6979 163.845 11.6749C163.956 11.6618 164.036 11.6733 164.123 11.7159C164.234 11.77 164.36 11.811 164.533 11.7848C164.681 11.7618 164.838 11.7569 164.99 11.7421C165.187 11.7241 165.187 11.7257 165.539 11.8274C165.579 11.8389 165.631 11.852 165.675 11.8487C165.931 11.8291 166.184 11.8045 166.44 11.7848C166.538 11.7766 166.634 11.7979 166.702 11.8455C166.73 11.8651 166.72 11.898 166.73 11.9258C166.221 11.9701 165.712 12.0078 165.206 12.0619C165.014 12.0833 164.928 12.016 164.801 11.9783C164.758 11.9652 164.712 11.9373 164.672 11.9406C164.314 11.9685 163.959 11.998 163.604 12.034C163.493 12.0455 163.41 12.039 163.327 11.9914C163.114 11.8651 162.855 11.934 162.614 11.9521C162.429 11.9652 162.37 12.016 162.392 12.1242C162.419 12.2522 162.531 12.2915 162.814 12.2686C162.916 12.2604 163.018 12.2489 163.12 12.2423C163.219 12.2358 163.308 12.2571 163.388 12.3013C163.465 12.3456 163.558 12.3686 163.654 12.362C163.857 12.3473 164.064 12.3325 164.261 12.3079C164.425 12.2882 164.561 12.3046 164.675 12.3653C164.801 12.4325 164.95 12.4178 165.098 12.403C165.443 12.3702 165.446 12.3719 165.662 12.4539C165.705 12.4703 165.749 12.5014 165.789 12.4998C166.144 12.4752 166.501 12.4539 166.85 12.4145C167.032 12.3948 167.137 12.4473 167.257 12.4899C167.301 12.5047 167.344 12.5375 167.384 12.5342C167.64 12.5162 167.896 12.4981 168.146 12.467C168.263 12.4522 168.334 12.4621 168.43 12.5014C168.658 12.5982 168.664 12.5949 168.988 12.5637C169.087 12.5539 169.195 12.5359 169.288 12.549C169.38 12.5621 169.454 12.6097 169.541 12.6392C169.581 12.6523 169.63 12.6703 169.673 12.667C169.877 12.6539 170.081 12.6343 170.284 12.6162C170.475 12.5982 170.475 12.5998 170.833 12.7015C170.978 12.7441 171.13 12.708 171.275 12.6949C171.432 12.6802 171.574 12.6802 171.694 12.7441C171.815 12.8081 171.96 12.8048 172.114 12.7917C172.259 12.7786 172.407 12.7425 172.555 12.7868C172.894 12.8884 172.894 12.8901 173.104 12.8704C173.41 12.8425 173.712 12.8163 174.021 12.7917C174.061 12.7884 174.113 12.8081 174.153 12.8212C174.24 12.8507 174.314 12.8999 174.406 12.9114C174.499 12.9245 174.607 12.9048 174.706 12.895C175.023 12.8638 175.045 12.8524 175.258 12.9606C175.437 13.0491 175.659 12.9212 175.826 13.0229C175.921 13.0803 176.051 13.1262 176.23 13.0983C176.378 13.0754 176.532 13.0688 176.686 13.0557C176.93 13.0344 176.93 13.036 177.239 13.1344C177.279 13.1475 177.331 13.1639 177.371 13.1606C177.575 13.1475 177.782 13.1361 177.979 13.1065C178.211 13.0721 178.359 13.1344 178.531 13.1951C178.667 13.2427 178.828 13.2033 178.973 13.1869C179.13 13.1705 179.272 13.1754 179.389 13.2394C179.513 13.305 179.658 13.2968 179.812 13.2836C179.957 13.2722 180.105 13.2344 180.253 13.2804C180.571 13.382 180.571 13.382 180.802 13.3623C181.006 13.3443 181.21 13.3246 181.413 13.3115C181.453 13.3082 181.503 13.3296 181.543 13.3443C181.629 13.3738 181.703 13.423 181.796 13.4345C181.888 13.446 181.996 13.4247 182.098 13.4165C182.2 13.4083 182.308 13.3837 182.401 13.3935C182.493 13.4034 182.58 13.4444 182.654 13.4804C182.74 13.5231 182.82 13.528 182.937 13.5116C183.086 13.4903 183.24 13.4853 183.391 13.4739C183.474 13.505 183.561 13.5362 183.641 13.5706C183.724 13.6067 183.814 13.6034 183.928 13.5919C184.307 13.5526 184.31 13.5575 184.628 13.6592C184.773 13.7051 184.925 13.6674 185.07 13.6559C185.224 13.6428 185.369 13.6362 185.489 13.7018C185.606 13.7641 185.751 13.7723 185.906 13.7526C186.004 13.7395 186.109 13.7313 186.211 13.7264C186.257 13.7248 186.313 13.7313 186.347 13.7445C186.51 13.8133 186.671 13.8756 186.896 13.8314C187.094 13.8445 187.192 13.979 187.43 13.9527C187.63 13.9298 187.84 13.9248 188.038 13.8953C188.22 13.8691 188.349 13.915 188.442 13.9724C188.608 14.0741 188.843 13.9363 189.01 14.0364C189.105 14.0938 189.229 14.1397 189.414 14.1151C189.617 14.0888 189.682 14.1233 189.741 14.2266C189.775 14.2856 189.769 14.3332 189.707 14.3791C189.645 14.4266 189.577 14.4184 189.479 14.3643C189.364 14.3037 189.229 14.2922 189.065 14.3053C188.905 14.3184 188.806 14.2331 188.673 14.2003C188.541 14.1659 188.383 14.2233 188.244 14.179C187.917 14.0757 187.917 14.0757 187.695 14.0954C187.544 14.1085 187.387 14.1151 187.239 14.138C187.063 14.1659 186.949 14.1151 186.828 14.0691C186.785 14.0527 186.742 14.0216 186.705 14.0232C186.35 14.0478 185.992 14.0708 185.64 14.1118C185.455 14.1331 185.356 14.0741 185.233 14.0331C185.19 14.0183 185.144 13.9888 185.107 13.9921C184.801 14.015 184.499 14.0446 184.193 14.0724C184.135 14.1167 184.07 14.1593 184.014 14.2069C183.956 14.2561 183.875 14.2774 183.758 14.2758C183.564 14.2758 183.373 14.3447 183.178 14.2577C182.978 14.1692 182.962 14.1741 182.768 14.1954C182.521 14.2233 182.259 14.2167 182.027 14.2807C181.987 14.2922 181.944 14.3233 181.944 14.3463C181.941 14.361 182.006 14.3824 182.046 14.3955C182.182 14.4348 182.339 14.3774 182.475 14.4184C182.564 14.4447 182.638 14.484 182.728 14.5119C182.765 14.5234 182.82 14.5218 182.87 14.5201C182.922 14.5185 182.971 14.507 183.021 14.5086C183.067 14.5103 183.116 14.5201 183.154 14.5349C183.323 14.5972 183.502 14.6546 183.653 14.7284C183.801 14.8005 183.94 14.7513 184.088 14.7481C184.681 14.8629 184.681 14.8645 185.079 14.8284C185.178 14.8202 185.279 14.8104 185.381 14.812C185.424 14.812 185.464 14.8415 185.508 14.8579C185.631 14.9071 185.748 14.9514 185.921 14.9252C186.069 14.9022 186.227 14.8973 186.378 14.8825C186.581 14.8645 186.581 14.8645 186.927 14.9678C187.013 14.994 187.106 14.9908 187.217 14.9776C187.313 14.9662 187.411 14.9908 187.479 15.0383C187.507 15.058 187.498 15.0908 187.507 15.1187C187.202 15.1449 186.893 15.163 186.597 15.2023C186.406 15.2269 186.319 15.1564 186.193 15.1187C186.149 15.1056 186.103 15.0777 186.063 15.081C185.761 15.1056 185.458 15.1334 185.156 15.1662C185.119 15.1695 185.073 15.2072 185.07 15.2302C185.063 15.2728 185.14 15.3138 185.252 15.3122C185.4 15.3105 185.545 15.2826 185.677 15.3499C185.788 15.4089 185.927 15.4352 186.091 15.4089C186.189 15.3942 186.294 15.3942 186.393 15.3811C186.655 15.3417 186.893 15.3499 187.09 15.4614C187.242 15.4909 187.39 15.4631 187.535 15.4483C187.643 15.4368 187.748 15.4253 187.825 15.4565C187.988 15.5221 188.149 15.5877 188.374 15.5434C188.618 15.5893 188.803 15.6861 189.007 15.7648C189.102 15.8025 189.176 15.8238 189.287 15.7992C189.334 15.7894 189.389 15.7894 189.438 15.7845C189.54 15.7763 189.648 15.7517 189.741 15.7615C189.833 15.773 189.911 15.8205 189.994 15.8501C190.034 15.8648 190.08 15.8894 190.12 15.8878C190.275 15.8796 190.426 15.8632 190.577 15.8501C190.728 15.8386 190.879 15.8271 191.031 15.8156C191.157 15.8583 191.287 15.9009 191.413 15.9435C191.617 15.9255 191.82 15.9075 192.021 15.8911C192.246 15.8714 192.246 15.873 192.57 15.9747C192.715 16.0206 192.869 15.9911 193.008 15.9698C193.24 15.9353 193.394 15.9977 193.558 16.0632C193.591 16.0764 193.653 16.0846 193.693 16.078C193.854 16.055 193.992 16.0731 194.11 16.1338C194.193 16.1764 194.276 16.1961 194.378 16.1879C194.733 16.1567 195.088 16.1239 195.443 16.096C195.486 16.0928 195.535 16.1075 195.575 16.1206C195.89 16.2207 195.893 16.2256 196.125 16.1994C196.331 16.1764 196.523 16.1665 196.686 16.2567C196.72 16.2764 196.772 16.3043 196.809 16.3027C197.062 16.2863 197.319 16.2682 197.569 16.2403C197.683 16.2272 197.763 16.2322 197.852 16.2699C197.967 16.3174 198.068 16.3748 198.257 16.3535C198.778 16.2928 198.781 16.3027 199.398 16.4158C199.441 16.424 199.5 16.4109 199.549 16.4043C199.654 16.3879 199.731 16.4109 199.824 16.4486C200.031 16.5339 200.037 16.529 200.234 16.5109C200.386 16.4962 200.543 16.4929 200.691 16.4683C200.919 16.4322 201.07 16.4962 201.24 16.5569C201.376 16.6044 201.533 16.565 201.678 16.5503C201.836 16.5339 201.978 16.5388 202.095 16.6011C202.175 16.6438 202.261 16.6667 202.363 16.6585C202.718 16.629 203.073 16.5962 203.428 16.5667C203.471 16.5634 203.523 16.5765 203.564 16.588C203.915 16.6897 203.915 16.6946 204.264 16.6569C204.375 16.6454 204.468 16.6421 204.551 16.6766C204.631 16.7094 204.717 16.7405 204.801 16.7717C204.952 16.7602 205.106 16.7569 205.254 16.7372C205.368 16.7225 205.449 16.729 205.538 16.7635C205.655 16.8078 205.754 16.8848 205.939 16.8471C206.035 16.8291 206.146 16.834 206.242 16.8176C206.356 16.7963 206.433 16.8094 206.522 16.852C206.634 16.9029 206.748 16.9553 206.927 16.9291C207.124 16.8996 207.334 16.8947 207.534 16.8717C207.645 16.8586 207.723 16.8717 207.812 16.9143C207.923 16.9685 208.05 17.0029 208.223 16.9816C208.574 16.9406 208.577 16.9488 208.92 17.0521C209.006 17.0783 209.099 17.075 209.21 17.0619C209.305 17.0505 209.404 17.075 209.472 17.1226C209.537 17.1751 209.531 17.2079 209.537 17.2357ZM182.043 2.44566C181.941 2.45386 181.839 2.4637 181.691 2.32103C181.682 2.29643 181.688 2.26692 181.666 2.2456C181.617 2.20133 181.54 2.17017 181.447 2.16525C181.281 2.15869 181.08 2.21444 181.083 2.25707C181.086 2.29315 181.139 2.3243 181.24 2.35382C181.284 2.3653 181.318 2.38498 181.358 2.3981C181.475 2.43582 181.568 2.50963 181.737 2.47191C181.722 2.42107 181.706 2.37024 181.737 2.47191C181.722 2.53422 181.768 2.5785 181.879 2.59654C181.91 2.60146 181.956 2.59817 181.981 2.58833C182.077 2.55226 182.092 2.50307 182.021 2.37352C182.009 2.39484 182.018 2.43254 182.046 2.44238C182.074 2.45222 182.141 2.44403 182.175 2.43255C182.262 2.40139 182.305 2.36039 182.283 2.32596C182.271 2.30792 182.212 2.28496 182.175 2.28496C182.111 2.28496 182.052 2.32103 182.043 2.44566ZM206.991 21.4634C206.766 21.4945 206.507 21.483 206.282 21.547C206.242 21.5585 206.202 21.588 206.198 21.611C206.195 21.6257 206.257 21.647 206.294 21.6585C206.377 21.6848 206.47 21.6766 206.578 21.6684C206.741 21.6569 206.837 21.7323 206.964 21.77C207.004 21.7815 207.056 21.7897 207.099 21.7864C207.349 21.7667 207.596 21.7454 207.846 21.7225C207.889 21.7176 207.936 21.7061 207.973 21.6913C208.096 21.6438 208.084 21.6126 207.963 21.5765C207.831 21.5372 207.726 21.4716 207.59 21.4404C207.396 21.3961 207.198 21.4552 206.991 21.4634ZM189.469 22.6605C189.318 22.6736 189.17 22.6867 189.019 22.6998C188.969 22.7048 188.917 22.7064 188.871 22.713C188.775 22.7244 188.704 22.7589 188.658 22.813C188.729 22.8556 188.815 22.8802 188.911 22.8753C189.062 22.8655 189.21 22.8442 189.361 22.8392C189.525 22.8327 189.62 22.9065 189.747 22.9442C189.787 22.9557 189.836 22.9573 189.883 22.9589C190.111 22.9655 190.25 22.8802 190.207 22.7605C190.176 22.667 190.059 22.6113 189.917 22.6228C189.769 22.6343 189.617 22.6474 189.469 22.6605ZM208.047 19.0396C208.084 19.0117 208.124 18.9921 208.142 18.9675C208.198 18.8838 208.176 18.8215 208.074 18.7559C207.951 18.6756 207.8 18.7297 207.661 18.7379C207.627 18.7395 207.59 18.774 207.571 18.7953C207.559 18.81 207.559 18.8412 207.578 18.8494C207.729 18.915 207.889 18.9757 208.047 19.0396ZM181.281 14.1954C181.133 14.2085 180.981 14.2184 180.833 14.2364C180.796 14.2413 180.762 14.2725 180.741 14.2938C180.701 14.3332 180.744 14.3873 180.87 14.3922C181.015 14.3988 181.166 14.3709 181.318 14.3578C181.509 14.3414 181.623 14.2807 181.552 14.2282C181.484 14.1774 181.392 14.1675 181.281 14.1954ZM18.8673 10.691C18.966 10.6828 19.0678 10.6762 19.1666 10.6648C19.2591 10.6533 19.3302 10.6172 19.3764 10.5631C19.2993 10.5204 19.2129 10.4975 19.1172 10.5024C18.966 10.5122 18.818 10.5254 18.6699 10.5418C18.5773 10.5516 18.4879 10.5877 18.4663 10.6434C18.4447 10.6861 18.6513 10.7107 18.8673 10.691ZM168.232 10.4384C168.272 10.4532 168.313 10.4827 168.353 10.4827C168.451 10.4827 168.553 10.4729 168.646 10.4565C168.686 10.4499 168.717 10.4204 168.735 10.3974C168.748 10.3827 168.745 10.3565 168.726 10.3433C168.637 10.2646 168.279 10.2925 168.22 10.3827C168.214 10.3991 168.229 10.4204 168.232 10.4384ZM158.498 1.45845C158.507 1.48469 158.51 1.51093 158.523 1.53716C158.547 1.58636 158.615 1.62244 158.714 1.64704C158.791 1.60605 158.831 1.56014 158.828 1.51094C158.825 1.4847 158.816 1.45845 158.803 1.43221C158.779 1.38301 158.711 1.34695 158.612 1.32235C158.535 1.36171 158.498 1.40762 158.498 1.45845ZM215.177 22.9458C215.149 22.9671 215.121 22.9885 215.091 23.0081C215.174 23.0557 215.251 23.0705 215.31 23.0442C215.347 23.0278 215.368 23.0032 215.396 22.9819C215.313 22.9343 215.239 22.9212 215.177 22.9458ZM213.258 23.1688C213.298 23.1836 213.335 23.2033 213.378 23.2131C213.449 23.2295 213.514 23.2016 213.563 23.1426C213.523 23.1278 213.486 23.1082 213.443 23.0983C213.372 23.0819 213.307 23.1098 213.258 23.1688ZM214.473 22.8688C214.452 22.9081 214.495 22.9409 214.609 22.9688C214.637 22.9475 214.674 22.9278 214.693 22.9048C214.723 22.8671 214.671 22.8327 214.56 22.8064C214.529 22.8261 214.501 22.8474 214.473 22.8688ZM207.96 21.101C207.939 21.1403 207.982 21.1731 208.096 21.201C208.124 21.1797 208.161 21.16 208.179 21.137C208.21 21.0993 208.158 21.0649 208.047 21.0386C208.016 21.0583 207.988 21.0796 207.96 21.101ZM199.087 9.49716C199.059 9.51847 199.031 9.53979 199 9.55947C199.083 9.60703 199.161 9.62178 199.219 9.59554C199.256 9.57915 199.278 9.55455 199.306 9.53323C199.222 9.48567 199.148 9.47256 199.087 9.49716ZM190.586 3.34103C190.66 3.35251 190.722 3.32956 190.774 3.26889C190.734 3.25413 190.697 3.23445 190.654 3.22461C190.583 3.20821 190.518 3.2361 190.469 3.29513C190.509 3.31153 190.549 3.32627 190.586 3.34103ZM186.072 2.95566C186.045 2.97698 186.017 2.9983 185.986 3.01798C186.069 3.06554 186.146 3.08029 186.205 3.05405C186.242 3.03766 186.264 3.01306 186.291 2.99174C186.208 2.94418 186.134 2.93271 186.072 2.95566ZM155.462 1.45681C155.434 1.47813 155.406 1.49945 155.375 1.51913C155.459 1.56668 155.536 1.58144 155.595 1.5552C155.632 1.5388 155.653 1.5142 155.681 1.49288C155.598 1.44533 155.524 1.43385 155.462 1.45681ZM3.04527 14.7989C3.00516 14.7841 2.96508 14.7694 2.92806 14.753C2.83858 14.7973 2.81082 14.8383 2.86019 14.8694C2.89104 14.8891 2.93729 14.9006 2.9774 14.9153C3.06996 14.8711 3.09155 14.8317 3.04527 14.7989Z" fill="#FFE492"/>
</svg>
